<svg xmlns="http://www.w3.org/2000/svg" viewBox="0 0 600 600"><ellipse cx="224.49436" cy="209.22263" rx="98.87881" ry="109.2871" transform="matrix(0.34202, -0.93969, 0.93969, 0.34202, -48.8922, 348.61997)" style="fill:#1975f1;opacity:0.1"/><ellipse cx="397.74455" cy="402.96714" rx="146.57276" ry="132.61345" transform="translate(-148.1959 252.85963) rotate(-30)" style="fill:#1975f1;opacity:0.2"/><path d="M372.02765,296.71656l-9.20268-4.553a11.94928,11.94928,0,0,1-5.41127-16.009l8.83145-17.85025L426.936,288.33119l-8.83146,17.85025a11.94929,11.94929,0,0,1-16.009,5.41128l-9.42916-4.6651a1.49367,1.49367,0,0,1-.67641-2.00113L397.068,294.6626a5.97464,5.97464,0,0,0-2.70564-8.00451l-7.13674-3.53092a5.97463,5.97463,0,0,0-7.97717,2.65108l-5.22655,10.27554A1.49366,1.49366,0,0,1,372.02765,296.71656Z" style="fill:#e6e6e6;stroke:#666;stroke-miterlimit:10;stroke-width:6px"/><path d="M397.49427,203.45114h30.869a0,0,0,0,1,0,0v61.738A11.94928,11.94928,0,0,1,416.414,277.13838h-6.97041a11.94928,11.94928,0,0,1-11.94928-11.94928v-61.738a0,0,0,0,1,0,0Z" transform="translate(676.47911 638.78309) rotate(-153.67599)" style="fill:#e6e6e6;stroke:#666;stroke-linecap:round;stroke-miterlimit:10;stroke-width:6px"/><line x1="441.0195" y1="230.25639" x2="399.98846" y2="217.14386" style="fill:#e6e6e6;stroke:#666;stroke-linecap:round;stroke-miterlimit:10;stroke-width:5px"/><line x1="434.99416" y1="243.83526" x2="393.96312" y2="230.72274" style="fill:#e6e6e6;stroke:#666;stroke-linecap:round;stroke-miterlimit:10;stroke-width:5px"/><line x1="428.96882" y1="257.41414" x2="387.93778" y2="244.30161" style="fill:#e6e6e6;stroke:#666;stroke-linecap:round;stroke-miterlimit:10;stroke-width:5px"/><polygon points="378.358 346.931 382.579 358.641 370.156 359.415 295.256 310.204 303.458 297.72 378.358 346.931" style="fill:#e6e6e6;stroke:#666;stroke-miterlimit:10;stroke-width:6px"/><path d="M264.238,292.39275h57.75486a5.97464,5.97464,0,0,1,5.97464,5.97464v8.962a0,0,0,0,1,0,0H258.26338a0,0,0,0,1,0,0v-8.962a5.97464,5.97464,0,0,1,5.97464-5.97464Z" transform="translate(-118.44602 380.17589) rotate(-56.69406)" style="fill:#e6e6e6;stroke:#666;stroke-miterlimit:10;stroke-width:6px"/><polygon points="305.07 148.353 309.648 136.778 319.478 144.414 339.171 216.454 324.763 220.393 305.07 148.353" style="fill:#e6e6e6;stroke:#666;stroke-miterlimit:10;stroke-width:6px"/><path d="M319.99593,218.15906h27.88166a5.97464,5.97464,0,0,1,5.97464,5.97464v8.962a0,0,0,0,1,0,0H314.02128a0,0,0,0,1,0,0v-8.962a5.97464,5.97464,0,0,1,5.97464-5.97464Z" transform="translate(715.55098 355.21147) rotate(164.71058)" style="fill:#e6e6e6;stroke:#666;stroke-miterlimit:10;stroke-width:6px"/><polygon points="369.423 379.874 391.403 391.563 374.027 409.39 276.623 424.583 272.019 395.066 369.423 379.874" style="fill:#e6e6e6;stroke:#666;stroke-linecap:round;stroke-miterlimit:10;stroke-width:6px"/><line x1="368.96592" y1="414.97214" x2="357.10369" y2="377.27294" style="fill:#e6e6e6;stroke:#666;stroke-linecap:round;stroke-miterlimit:10;stroke-width:5px"/><line x1="382.04966" y1="408.3963" x2="372.16828" y2="378.0037" style="fill:#e6e6e6;stroke:#666;stroke-linecap:round;stroke-miterlimit:10;stroke-width:5px"/><line x1="354.20775" y1="417.27397" x2="342.34552" y2="379.57478" style="fill:#e6e6e6;stroke:#666;stroke-linecap:round;stroke-miterlimit:10;stroke-width:5px"/><line x1="339.44958" y1="419.57581" x2="327.58735" y2="381.87661" style="fill:#e6e6e6;stroke:#666;stroke-linecap:round;stroke-miterlimit:10;stroke-width:5px"/><line x1="324.69141" y1="421.87765" x2="312.82918" y2="384.17845" style="fill:#e6e6e6;stroke:#666;stroke-linecap:round;stroke-miterlimit:10;stroke-width:5px"/><line x1="309.93323" y1="424.17949" x2="298.07101" y2="386.48029" style="fill:#e6e6e6;stroke:#666;stroke-linecap:round;stroke-miterlimit:10;stroke-width:5px"/><polygon points="232.533 406.738 227.944 377.319 272.12 395.624 276.723 425.14 240.221 456.029 235.559 426.141 253.269 423.378 250.258 404.073 232.533 406.738" style="fill:#e6e6e6;stroke:#666;stroke-miterlimit:10;stroke-width:6px"/><rect x="160.34568" y="183.11325" width="109.53509" height="49.78868" rx="11.94928" transform="translate(23.97256 -22.22296) rotate(6.26216)" style="fill:#e6e6e6;stroke:#666;stroke-miterlimit:10;stroke-width:6px"/><line x1="183.99346" y1="229.63651" x2="189.42431" y2="180.14491" style="fill:#e6e6e6;stroke:#666;stroke-miterlimit:10;stroke-width:5px"/><line x1="240.06848" y1="235.78977" x2="245.49932" y2="186.29817" style="fill:#e6e6e6;stroke:#666;stroke-miterlimit:10;stroke-width:5px"/><path d="M180.68461,232.38261H229.9754a0,0,0,0,1,0,0V338.93038a11.94928,11.94928,0,0,1-11.94928,11.94928H192.63389a11.94928,11.94928,0,0,1-11.94928-11.94928V232.38261a0,0,0,0,1,0,0Z" transform="translate(33.03567 -20.65686) rotate(6.26216)" style="fill:#e6e6e6;stroke:#666;stroke-linecap:round;stroke-miterlimit:10;stroke-width:6px"/><line x1="172.1475" y1="331.56609" x2="232.02005" y2="329.12031" style="fill:#e6e6e6;stroke:#666;stroke-linecap:round;stroke-miterlimit:10;stroke-width:5px"/><line x1="173.77675" y1="316.71861" x2="233.64931" y2="314.27283" style="fill:#e6e6e6;stroke:#666;stroke-linecap:round;stroke-miterlimit:10;stroke-width:5px"/><line x1="175.40601" y1="301.87113" x2="235.27856" y2="299.42535" style="fill:#e6e6e6;stroke:#666;stroke-linecap:round;stroke-miterlimit:10;stroke-width:5px"/><line x1="177.03526" y1="287.02365" x2="236.90781" y2="284.57787" style="fill:#e6e6e6;stroke:#666;stroke-linecap:round;stroke-miterlimit:10;stroke-width:5px"/><line x1="178.66451" y1="272.17617" x2="238.53706" y2="269.73039" style="fill:#e6e6e6;stroke:#666;stroke-linecap:round;stroke-miterlimit:10;stroke-width:5px"/><line x1="180.29377" y1="257.32869" x2="240.16632" y2="254.88291" style="fill:#e6e6e6;stroke:#666;stroke-linecap:round;stroke-miterlimit:10;stroke-width:5px"/><g style="opacity:0.6"><line x1="76.26558" y1="218.2784" x2="76.26558" y2="183.7784" style="fill:#e6e6e6;stroke:#1975f1;stroke-linecap:round;stroke-miterlimit:10;stroke-width:8px"/><line x1="93.51558" y1="201.0284" x2="59.01558" y2="201.0284" style="fill:#e6e6e6;stroke:#1975f1;stroke-linecap:round;stroke-miterlimit:10;stroke-width:8px"/></g><circle cx="486.25471" cy="441.7784" r="7.5" style="fill:none;stroke:#1975f1;stroke-linecap:round;stroke-miterlimit:10;stroke-width:16px;opacity:0.6"/><circle cx="154.75471" cy="430.2784" r="16" style="fill:none;stroke:#1975f1;stroke-linecap:round;stroke-miterlimit:10;stroke-width:11px"/><g style="opacity:0.4"><line x1="427.1653" y1="135.0959" x2="444.4828" y2="117.7784" style="fill:none;stroke:#1975f1;stroke-linecap:round;stroke-miterlimit:10;stroke-width:8px"/><line x1="444.4828" y1="135.0959" x2="427.1653" y2="117.7784" style="fill:none;stroke:#1975f1;stroke-linecap:round;stroke-miterlimit:10;stroke-width:8px"/></g><circle cx="252.25471" cy="68.7784" r="8" style="fill:#1975f1"/></svg>