<?xml version="1.0" encoding="utf-8"?>
<svg xmlns="http://www.w3.org/2000/svg" viewBox="0 0 112 112"><defs><style>.cls-1{fill:currentColor;}</style></defs><title>lifetime-warranty</title><path class="cls-1" d="M56,111A55,55,0,1,0,1,56,55.06,55.06,0,0,0,56,111ZM7.57,50.24l23.65-.91V47.6L8.12,46.71a48.77,48.77,0,0,1,95.76,0l-23.11.89v1.73l23.65.91a47.34,47.34,0,0,1,0,11.52l-23.65.91V64.4l23.11.89a48.77,48.77,0,0,1-95.76,0l23.11-.89V62.67L7.57,61.76a47.34,47.34,0,0,1,0-11.52ZM37,56A19,19,0,1,0,56,37,19,19,0,0,0,37,56Zm24.66-9.07a1.52,1.52,0,0,1,1.55-.09l.52.31A4.07,4.07,0,0,1,65,48.44l.18.33a1.57,1.57,0,0,1-.11,1.57l-3.76,5a1.31,1.31,0,0,0,0,1.49l3.76,5a1.4,1.4,0,0,1,0,1.52l-.19.28a6.2,6.2,0,0,1-1.29,1.32l-.45.32a1.37,1.37,0,0,1-1.51,0l-5-3.76a1.31,1.31,0,0,0-1.49,0l-5,3.76a1.39,1.39,0,0,1-1.52,0L48.38,65a6.26,6.26,0,0,1-1.31-1.3l-.28-.41a1.38,1.38,0,0,1,0-1.52l3.76-5a1.32,1.32,0,0,0,0-1.49l-3.76-5a1.37,1.37,0,0,1,0-1.51l.32-.45a6.14,6.14,0,0,1,1.31-1.29l.28-.19a1.4,1.4,0,0,1,1.52,0l5,3.76a1.31,1.31,0,0,0,1.49,0ZM94.29,56a2.23,2.23,0,1,1,2.24,2.24A2.23,2.23,0,0,1,94.29,56Zm-81,0a2.23,2.23,0,1,1,2.24,2.24A2.23,2.23,0,0,1,13.24,56ZM26.43,35.54l-2.71,4.7L16.32,36l.91-1.58,6,3.47L25,34.74Zm3.41-4-6.07-6L25,24.22l6.08,6Zm5.62-5-4.33-7.36,5.21-3.06.81,1.38L33.51,19.6l.92,1.56L38,19.06l.81,1.38-3.56,2.1,1.79,3Zm10-4.88-1.82-8.34L49.55,12l.34,1.56-4.13.9.39,1.76,4-.88.34,1.56-4,.88.41,1.89,4.13-.9.34,1.56Zm13.86-8.27-2.49-.25L57,11.51l6.78.67-.16,1.59-2.47-.25-.68,6.91-1.82-.18Zm10.25,9.47-1.7-.65,3-8,1.7.64Zm6.56,3.41L74.71,25.1,80,18.42,82,20l-1.6,5.33,4.84-2.74,2,1.6-5.33,6.68-1.43-1.14,3.73-4.67-5.62,3.17-.62-.5,1.85-6.18Zm9.2,9,7.34-4.37L95.76,36l-1.38.82-2.16-3.63-1.55.93,2.12,3.55-1.38.82L89.3,35l-1.66,1L89.8,39.6l-1.37.82ZM28.54,45.06,26,44.93a32,32,0,0,1,60,0l-2.56.13a29.55,29.55,0,0,0-54.92,0Zm0,22a29.55,29.55,0,0,0,54.86,0l2.56.13a32,32,0,0,1-60,0ZM27.24,78.66l-8,2-.88-1.55,4-3.88L17,76.69l-.88-1.55,5.72-5.87.93,1.63-4.25,4,5.68-1.52.65,1.14-4.2,4.12L26.31,77ZM24,86.55,25.4,87.8l1.25-.68,2.55,2.22-.51,1.32,1.44,1.26L33,84l-1.58-1.38Zm5.86,1.38L28,86.31l3.15-1.75Zm12.39,1.54L38.82,88l-3.15,7.24,1.54.67,1.12-2.57,1.13.49.3,3.19,1.77.77-.43-3.46a2.26,2.26,0,0,0,2.52-1.46A2.46,2.46,0,0,0,42.21,89.47Zm-.16,2.71a1.07,1.07,0,0,1-1.51.5L38.92,92l.85-2,1.62.7A1.07,1.07,0,0,1,42.05,92.18Zm13,2.68a2.45,2.45,0,0,0-2.36-2.81l-3.67-.39-.84,7.84,1.67.18.3-2.78L51.4,97l1.24,3,1.92.21L53.12,97A2.26,2.26,0,0,0,55.08,94.86Zm-3,.75-1.75-.19.23-2.12,1.75.19a1.07,1.07,0,1,1-.23,2.12Zm10-3.92L60.66,100l1.88-.38.23-1.41,3.32-.66.74,1.22,1.88-.38-4.53-7.14Zm.82,5,.54-3.57,1.87,3.09Zm14-11,3.91,6.84-1.4.8-5.81-2.59,2.55,4.46-1.45.83-3.91-6.84,1.5-.86L78,90.84l-2.45-4.29ZM84.15,81l4.69,4.37-1.15,1.24L83,82.27,81.43,84l-1.08-1,4.29-4.61,1.08,1Zm8.13-6.25-5.53.67.85-1.72,3.71-.36-2-3.14.85-1.72L93,73.28l2.9,1.43-.74,1.51Z"/></svg>
