<svg xmlns="http://www.w3.org/2000/svg" viewBox="0 0 600 600"><ellipse cx="223.02516" cy="405.85815" rx="109.2871" ry="98.87881" transform="matrix(0.13895, -0.9903, 0.9903, 0.13895, -209.88471, 570.32731)" style="fill:#1975f1;opacity:0.1"/><ellipse cx="376.46718" cy="196.07704" rx="132.61345" ry="146.57276" transform="translate(-34.47931 302.36309) rotate(-42.0131)" style="fill:#1975f1;opacity:0.2"/><g style="opacity:0.6"><line x1="344.73426" y1="523.95589" x2="310.98981" y2="531.13656" style="fill:#e6e6e6;stroke:#1975f1;stroke-linecap:round;stroke-miterlimit:10;stroke-width:8px"/><line x1="324.2717" y1="510.674" x2="331.45237" y2="544.41845" style="fill:#e6e6e6;stroke:#1975f1;stroke-linecap:round;stroke-miterlimit:10;stroke-width:8px"/></g><circle cx="396.00638" cy="101.42725" r="7.5" style="fill:none;stroke:#1975f1;stroke-linecap:round;stroke-miterlimit:10;stroke-width:16px;opacity:0.6"/><circle cx="145.07118" cy="144.69735" r="16" style="fill:none;stroke:#1975f1;stroke-linecap:round;stroke-miterlimit:10;stroke-width:11px"/><g style="opacity:0.4"><line x1="470.33881" y1="417.05408" x2="449.79619" y2="403.72023" style="fill:none;stroke:#1975f1;stroke-linecap:round;stroke-miterlimit:10;stroke-width:8px"/><line x1="466.73443" y1="400.11584" x2="453.40057" y2="420.65847" style="fill:none;stroke:#1975f1;stroke-linecap:round;stroke-miterlimit:10;stroke-width:8px"/></g><circle cx="92.49436" cy="403.19321" r="8" style="fill:#1975f1"/><rect x="343.74457" y="311.86156" width="35.32417" height="147.91994" rx="3.31164" transform="translate(-160.29204 300.36104) rotate(-37.56831)" style="fill:#e6e6e6;stroke:#666;stroke-miterlimit:10;stroke-width:6px"/><circle cx="251.36408" cy="242.7647" r="76.16773" style="fill:#e6e6e6;stroke:#666;stroke-miterlimit:10;stroke-width:6px"/><line x1="316.53149" y1="327.03059" x2="298.1203" y2="303.0958" style="fill:#e6e6e6;stroke:#666;stroke-miterlimit:10;stroke-width:6.5381104946136475px"/><circle cx="251.36408" cy="242.7647" r="59.73504" style="fill:#fff;stroke:#666;stroke-linecap:round;stroke-miterlimit:10;stroke-width:6.243888056098505px"/><path d="M298.71166,206.34384a59.73489,59.73489,0,0,0-83.76831-10.92675c-.06152.04718-.1184.098-.17968.14538,3.46582,36.65814,18.98486,73.58624,46.58007,104.21985.48877.5426.98706,1.07074,1.48047,1.6062a59.73223,59.73223,0,0,0,35.88745-95.04468Z" style="fill:#1975f1;opacity:0.3"/><path d="M278.923,227.018a32.02275,32.02275,0,0,0-2.40363-3.60329" style="fill:#e6e6e6;stroke:#666;stroke-linecap:round;stroke-miterlimit:10;stroke-width:6px"/><path d="M270.71407,267.92a31.72216,31.72216,0,0,0,12.14442-29.10906" style="fill:none;stroke:#666;stroke-linecap:round;stroke-miterlimit:10;stroke-width:6px"/><line x1="318.1749" y1="358.58783" x2="346.17379" y2="337.05045" style="fill:#e6e6e6;stroke:#666;stroke-linecap:round;stroke-miterlimit:10;stroke-width:6px"/><path d="M229.88077,391.00762l1.3227-8.47717a9.98519,9.98519,0,0,1,11.40518-8.32645l16.443,2.56561-8.72308,55.90628-16.443-2.56561a9.98519,9.98519,0,0,1-8.32645-11.40518l1.35525-8.68581a1.24815,1.24815,0,0,1,1.42565-1.04081l9.45474,1.47523a4.9926,4.9926,0,0,0,5.70259-4.16323l1.02576-6.57411a4.9926,4.9926,0,0,0-4.11289-5.69447l-9.50123-1.59066A1.24815,1.24815,0,0,1,229.88077,391.00762Z" style="fill:#e6e6e6;stroke:#666;stroke-miterlimit:10;stroke-width:6px"/><path d="M272.2122,378.68147h25.79506a0,0,0,0,1,0,0V430.2716a9.98519,9.98519,0,0,1-9.98519,9.98519h-5.82469a9.98519,9.98519,0,0,1-9.98519-9.98519V378.68147A0,0,0,0,1,272.2122,378.68147Z" transform="translate(-163.41816 628.04463) rotate(-81.13163)" style="fill:#e6e6e6;stroke:#666;stroke-linecap:round;stroke-miterlimit:10;stroke-width:6px"/><line x1="300.15309" y1="429.3454" x2="300.32082" y2="393.35072" style="fill:#e6e6e6;stroke:#666;stroke-linecap:round;stroke-miterlimit:10;stroke-width:5px"/><line x1="287.81838" y1="427.94601" x2="287.9861" y2="391.95133" style="fill:#e6e6e6;stroke:#666;stroke-linecap:round;stroke-miterlimit:10;stroke-width:5px"/><line x1="275.48367" y1="426.54662" x2="275.65139" y2="390.55194" style="fill:#e6e6e6;stroke:#666;stroke-linecap:round;stroke-miterlimit:10;stroke-width:5px"/><polygon points="185.676 436.931 181.539 448.67 171.427 441.411 144.544 355.919 158.793 351.438 185.676 436.931" style="fill:#e6e6e6;stroke:#666;stroke-miterlimit:10;stroke-width:6px"/><path d="M120.55112,339.08582H178.306a5.97464,5.97464,0,0,1,5.97464,5.97464v8.962a0,0,0,0,1,0,0H114.57648a0,0,0,0,1,0,0v-8.962A5.97464,5.97464,0,0,1,120.55112,339.08582Z" transform="translate(-97.07368 60.78271) rotate(-17.45565)" style="fill:#e6e6e6;stroke:#666;stroke-miterlimit:10;stroke-width:6px"/></svg>