<svg width="44" height="290" viewBox="0 0 44 290" fill="none" xmlns="http://www.w3.org/2000/svg">
<g clip-path="url(#clip0_1992_3761)">
<path d="M28.4501 236.42H15.4501C14.2074 236.42 13.2001 237.427 13.2001 238.67V286.51C13.2001 287.753 14.2074 288.76 15.4501 288.76H28.4501C29.6927 288.76 30.7001 287.753 30.7001 286.51V238.67C30.7001 237.427 29.6927 236.42 28.4501 236.42Z" fill="#F7F9FA" stroke="#1975F1"/>
<path d="M21.95 1.33002H37.28C37.6452 1.33036 38.0054 1.41436 38.333 1.57557C38.6606 1.73678 38.947 1.97092 39.17 2.26002L41.59 5.39002C41.9242 5.8215 42.1007 6.35436 42.09 6.90002L41.93 15.47C41.9214 15.9384 41.7754 16.394 41.51 16.78L40.81 17.86C40.5455 18.2427 40.3994 18.6949 40.39 19.16C40.28 25.52 39.48 72.66 39.17 82.41C39.1767 82.5066 39.1767 82.6035 39.17 82.7C36.44 98.52 37.03 107.46 37.11 108.39C37.11 108.45 37.11 108.51 37.11 108.57V225.27C37.1032 225.748 36.9572 226.214 36.69 226.61C35.52 228.4 33.5 234.44 32.55 237.4C32.3934 237.881 32.0884 238.3 31.6786 238.596C31.2689 238.893 30.7758 239.052 30.27 239.05H13.7C13.1943 239.052 12.7011 238.893 12.2914 238.596C11.8817 238.3 11.5766 237.881 11.42 237.4C10.42 234.4 8.42002 228.4 7.28002 226.61C7.0128 226.214 6.86685 225.748 6.86002 225.27V108.57C6.86002 108.51 6.86002 108.45 6.86002 108.39C6.93002 107.46 7.52002 98.53 4.80002 82.7C4.79331 82.6035 4.79331 82.5066 4.80002 82.41C4.47002 72.67 3.66002 25.53 3.56002 19.17C3.55066 18.7049 3.40459 18.2527 3.14002 17.87L2.39002 16.77C2.12466 16.384 1.97861 15.9284 1.97002 15.46L1.81002 6.89002C1.7994 6.34436 1.97584 5.8115 2.31002 5.38002L4.73002 2.26002C4.95308 1.97092 5.23941 1.73678 5.56704 1.57557C5.89467 1.41436 6.25488 1.33036 6.62002 1.33002H21.95Z" fill="#F7F9FA" stroke="#1975F1"/>
<path d="M3.76001 31.22H40.14" stroke="#1975F1"/>
<path d="M3.54004 19.06H40.36" stroke="#1975F1"/>
<path d="M41.9201 15.89H1.9801" stroke="#1975F1"/>
<path d="M1.79004 6.05002H42.11" stroke="#1975F1"/>
<path d="M39.13 82.06H4.77002" stroke="#1975F1"/>
<path d="M37.0301 108.48H6.87012" stroke="#1975F1"/>
<path d="M13.2001 226.39C13.2001 226.39 11.9001 229.22 10.2801 229.22C8.66011 229.22 8.23011 227.39 6.86011 226.14" fill="#F7F9FA"/>
<path d="M13.2001 226.39C13.2001 226.39 11.9001 229.22 10.2801 229.22C8.66011 229.22 8.23011 227.39 6.86011 226.14" stroke="#1975F1"/>
<path d="M37.0301 226.14C37.0301 226.14 36.4501 189.64 34.8601 189.64C33.2701 189.64 30.6901 226.39 30.6901 226.39H13.2001C13.2001 226.39 10.6201 189.64 9.03011 189.64C7.44011 189.64 6.86011 226.14 6.86011 226.14" fill="#F7F9FA"/>
<path d="M37.0301 226.14C37.0301 226.14 36.4501 189.64 34.8601 189.64C33.2701 189.64 30.6901 226.39 30.6901 226.39H13.2001C13.2001 226.39 10.6201 189.64 9.03011 189.64C7.44011 189.64 6.86011 226.14 6.86011 226.14" stroke="#1975F1"/>
<path d="M30.7001 226.39C30.7001 226.39 32.0001 229.22 33.6201 229.22C35.2401 229.22 35.6701 227.39 37.0401 226.14" fill="#F7F9FA"/>
<path d="M30.7001 226.39C30.7001 226.39 32.0001 229.22 33.6201 229.22C35.2401 229.22 35.6701 227.39 37.0401 226.14" stroke="#1975F1"/>
</g>
<defs>
<clipPath id="clip0_1992_3761">
<rect width="42.28" height="289.44" fill="white" transform="translate(0.810059 0.330017)"/>
</clipPath>
</defs>
</svg>
