<svg width="49" height="348" viewBox="0 0 49 348" fill="none" xmlns="http://www.w3.org/2000/svg">
<g clip-path="url(#clip0_1992_3765)">
<path d="M47.14 331.19V115.11C47.1405 113.906 46.7354 112.736 45.99 111.79C45.4 111.05 44.65 110.11 43.89 109.19C38.1 102.19 39.06 97.94 38.81 90.02C38.23 71.77 36.64 48.94 35.81 39.52C34.98 30.1 31.31 26.52 22.81 18.6C10.4 7.05003 4.71996 2.84003 2.19996 1.31003C2.12192 1.26173 2.02903 1.24331 1.93846 1.25817C1.84789 1.27304 1.76576 1.32018 1.70725 1.39088C1.64873 1.46159 1.61778 1.55109 1.62012 1.64284C1.62246 1.73459 1.65792 1.8224 1.71996 1.89003C8.80255 9.21085 15.5079 16.8874 21.81 24.89C31.14 37.06 28.14 54.06 24.81 69.22C17.61 101.99 18.31 118.01 18.31 118.01V331.38C18.2893 334.221 18.9767 337.022 20.31 339.53C21.4564 341.784 23.2234 343.663 25.4028 344.946C27.5821 346.229 30.0828 346.862 32.61 346.77C35.0131 346.858 37.3956 346.297 39.5072 345.146C41.6187 343.995 43.3814 342.297 44.61 340.23C46.2786 337.511 47.1549 334.38 47.14 331.19Z" fill="#F7F9FA" stroke="#1975F1"/>
<path d="M20.2 22.87L23.66 19.42" stroke="#1975F1"/>
<path d="M21.01 181.44H44.44" stroke="#1975F1"/>
<path d="M18.3099 304.94L22.2499 118.06C22.2499 118.06 21.5499 102.06 28.7499 69.27L28.7999 69.04C28.925 68.4425 29.262 67.9104 29.7486 67.5417C30.2353 67.1731 30.8388 66.9929 31.4479 67.0343C32.057 67.0758 32.6305 67.336 33.0628 67.7671C33.4951 68.1982 33.7569 68.7711 33.7999 69.38C34.2799 76.29 34.6999 83.45 34.9099 90.02C35.1599 97.94 34.1999 102.23 39.9899 109.19C40.6399 109.97 41.2699 110.76 41.8099 111.43C42.7368 112.599 43.2408 114.048 43.2399 115.54L47.1399 304.94" fill="#F7F9FA"/>
<path d="M18.3099 304.94L22.2499 118.06C22.2499 118.06 21.5499 102.06 28.7499 69.27L28.7999 69.04C28.925 68.4425 29.262 67.9104 29.7486 67.5417C30.2353 67.1731 30.8388 66.9929 31.4479 67.0343C32.057 67.0758 32.6305 67.336 33.0628 67.7671C33.4951 68.1982 33.7569 68.7711 33.7999 69.38C34.2799 76.29 34.6999 83.45 34.9099 90.02C35.1599 97.94 34.1999 102.23 39.9899 109.19C40.6399 109.97 41.2699 110.76 41.8099 111.43C42.7368 112.599 43.2408 114.048 43.2399 115.54L47.1399 304.94" stroke="#1975F1"/>
</g>
<defs>
<clipPath id="clip0_1992_3765">
<rect width="47.53" height="347.52" fill="white" transform="translate(0.609985 0.250031)"/>
</clipPath>
</defs>
</svg>
