<svg width="116" height="323" viewBox="0 0 116 323" fill="none" xmlns="http://www.w3.org/2000/svg">
<g clip-path="url(#clip0_1992_3757)">
<path d="M26.73 108.65V285.52C26.73 286.581 27.1514 287.598 27.9016 288.348C28.6517 289.099 29.6691 289.52 30.73 289.52H77.06C78.1208 289.52 79.1383 289.099 79.8884 288.348C80.6386 287.598 81.06 286.581 81.06 285.52V108.65H26.73Z" fill="#F7F9FA" stroke="#1975F1"/>
<path d="M26.73 299.24V303.41C26.73 304.471 27.1514 305.488 27.9016 306.238C28.6517 306.989 29.6691 307.41 30.73 307.41H77.06C78.1208 307.41 79.1383 306.989 79.8884 306.238C80.6386 305.488 81.06 304.471 81.06 303.41V299.24H26.73Z" fill="#F7F9FA" stroke="#1975F1"/>
<path d="M94.23 98.24C94.3302 103.891 95.7915 109.434 98.49 114.4H106.93C109.634 109.439 111.102 103.899 111.21 98.25" fill="#F7F9FA"/>
<path d="M94.23 98.24C94.3302 103.891 95.7915 109.434 98.49 114.4H106.93C109.634 109.439 111.102 103.899 111.21 98.25" stroke="#1975F1"/>
<path d="M102.73 101.98H99.49C99.3277 101.979 99.1688 101.934 99.03 101.85C89.34 96.11 92.79 88.3 93.19 87.52C93.2165 87.4659 93.2366 87.4088 93.25 87.35L94.25 83.35C94.257 83.2869 94.257 83.2232 94.25 83.16L94.41 70.21C94.4145 70.0894 94.3935 69.9691 94.3485 69.8571C94.3035 69.745 94.2353 69.6437 94.1485 69.5598C94.0618 69.4758 93.9583 69.4111 93.8448 69.3698C93.7313 69.3285 93.6104 69.3115 93.49 69.32H93.09C92.8619 69.32 92.6432 69.2294 92.4819 69.0681C92.3206 68.9069 92.23 68.6881 92.23 68.46V65.26C92.23 65.0319 92.3206 64.8132 92.4819 64.6519C92.6432 64.4906 92.8619 64.4 93.09 64.4C93.308 64.4006 93.5182 64.3182 93.6778 64.1697C93.8375 64.0212 93.9348 63.8176 93.95 63.6L95.04 48.12C95.0495 47.978 95.0942 47.8405 95.17 47.72L95.78 46.72C95.8558 46.5995 95.9004 46.4621 95.91 46.32L98.7 7.13002C98.753 6.38897 99.0847 5.69548 99.6283 5.18901C100.172 4.68254 100.887 4.40065 101.63 4.40002H103.83C104.573 4.40065 105.288 4.68254 105.832 5.18901C106.375 5.69548 106.707 6.38897 106.76 7.13002L109.55 46.35C109.56 46.4921 109.604 46.6295 109.68 46.75L110.29 47.75C110.366 47.8705 110.41 48.008 110.42 48.15L111.49 63.6C111.505 63.8176 111.602 64.0212 111.762 64.1697C111.922 64.3182 112.132 64.4006 112.35 64.4C112.578 64.4 112.797 64.4906 112.958 64.6519C113.119 64.8132 113.21 65.0319 113.21 65.26V68.45C113.21 68.6781 113.119 68.8969 112.958 69.0581C112.797 69.2194 112.578 69.31 112.35 69.31H111.92C111.806 69.31 111.694 69.3326 111.589 69.3764C111.484 69.4203 111.388 69.4845 111.308 69.5654C111.228 69.6464 111.165 69.7423 111.123 69.8478C111.08 69.9533 111.059 70.0663 111.06 70.18L111.22 83.13C111.213 83.1932 111.213 83.2569 111.22 83.32L112.22 87.32C112.233 87.3788 112.253 87.4359 112.28 87.49C112.68 88.32 116.13 96.13 106.46 101.88C106.321 101.964 106.162 102.009 106 102.01L102.73 101.98Z" fill="#F7F9FA" stroke="#1975F1"/>
<path d="M93.1899 87.56H112.26" stroke="#1975F1"/>
<path d="M94.23 83.13H111.23" stroke="#1975F1"/>
<path d="M94.23 83.13L97.69 68.38C97.6991 68.2769 97.6991 68.1732 97.69 68.07L100.92 8.72003C100.946 8.27079 101.142 7.84841 101.47 7.53967C101.797 7.23094 102.23 7.0593 102.68 7.06003C103.14 7.04636 103.587 7.21354 103.926 7.52572C104.264 7.83791 104.467 8.27024 104.49 8.73003L107.72 68.08C107.711 68.1832 107.711 68.2869 107.72 68.39L111.18 83.14" fill="#F7F9FA"/>
<path d="M94.23 83.13L97.69 68.38C97.6991 68.2769 97.6991 68.1732 97.69 68.07L100.92 8.72003C100.946 8.27079 101.142 7.84841 101.47 7.53967C101.797 7.23094 102.23 7.0593 102.68 7.06003C103.14 7.04636 103.587 7.21354 103.926 7.52572C104.264 7.83791 104.467 8.27024 104.49 8.73003L107.72 68.08C107.711 68.1832 107.711 68.2869 107.72 68.39L111.18 83.14" stroke="#1975F1"/>
<path d="M26.73 20.15H19.49C18.7279 20.1527 17.9979 20.4573 17.46 20.9971C16.922 21.5369 16.62 22.2679 16.62 23.03V105.78C16.6226 106.54 16.9259 107.269 17.4635 107.807C18.0012 108.344 18.7296 108.647 19.49 108.65H88.27C89.0321 108.65 89.7631 108.348 90.3029 107.81C90.8428 107.272 91.1474 106.542 91.15 105.78V23.02C91.1474 22.2597 90.8441 21.5312 90.3065 20.9935C89.7688 20.4559 89.0404 20.1527 88.28 20.15H81.06" fill="#F7F9FA"/>
<path d="M26.73 20.15H19.49C18.7279 20.1527 17.9979 20.4573 17.46 20.9971C16.922 21.5369 16.62 22.2679 16.62 23.03V105.78C16.6226 106.54 16.9259 107.269 17.4635 107.807C18.0012 108.344 18.7296 108.647 19.49 108.65H88.27C89.0321 108.65 89.7631 108.348 90.3029 107.81C90.8428 107.272 91.1474 106.542 91.15 105.78V23.02C91.1474 22.2597 90.8441 21.5312 90.3065 20.9935C89.7688 20.4559 89.0404 20.1527 88.28 20.15H81.06" stroke="#1975F1"/>
<path d="M23.14 63.4H84.64" stroke="#1975F1"/>
<path d="M81.34 22.52C81.34 22.52 90.06 25.35 88.72 46.19C87.38 67.03 82.03 91.52 79.72 111.36C77.41 131.2 75.54 148.52 81.97 197.52C81.97 197.52 83.4 215.45 85.56 235.52C86.84 247.4 94.72 260.97 94.72 260.97L84.06 278.15C81.44 253.15 79.92 238.5 77.27 214.98C74.7 192.2 71.27 168.58 71.27 144.66C71.27 120.74 74.89 101.1 76.33 90.92C77.77 80.74 81.81 65.25 82.52 46.92C83.02 33.8 80.77 29.31 79.52 29.05C78.27 28.79 70.27 35.13 70.27 35.13L81.34 22.52Z" fill="#F7F9FA" stroke="#1975F1"/>
<path d="M9.49004 60.4C11.32 49.4 13.6 38.15 19.02 29.4C24.44 20.65 40.1 13.52 49.6 10.98C59.1 8.44002 68.35 4.40002 79.81 12.52C84.81 16.07 89.35 29.85 92.73 40.94C95.2511 49.2037 96.7884 57.736 97.31 66.36C97.91 78.36 88.17 85.36 82.5 93.47C76.83 101.58 77.41 107.47 81.06 111.59C82.2479 112.91 83.8232 113.82 85.56 114.19C91.41 115.86 96.56 118.19 107.18 117.69C112.26 117.44 111.72 111.69 105.56 110.61C102.85 110.14 97.4 109.27 91.44 108.69C85.77 108.14 83.18 104.96 86.11 99.15C89.9 91.61 101.32 83.15 103.11 73.44C104.62 65.07 101.24 43.94 95.61 29.86C89.98 15.78 84.85 -1.93998 58.69 2.11002C32.53 6.16002 17.69 17.99 11.36 29.94C5.03004 41.89 2.10004 60.06 1.69004 76.77C1.28004 93.48 1.61004 106.98 1.90004 120.35C2.19004 133.72 4.90004 195.99 7.66004 224.48C11.35 263.25 13.79 290.1 35.89 307.02C58.74 324.52 81.07 331.27 93.89 299.77C93.89 299.77 76.62 302.15 74.79 302.31L58.32 312.52C44.59 306.15 24.49 300.15 17.74 256.52C10.99 212.89 8.81004 134.98 8.56004 130.65C8.31004 126.32 8.14004 121.52 7.89004 115.23C7.89004 115.23 5.67004 94 9.44004 60.4" fill="#F7F9FA"/>
<path d="M9.49004 60.4C11.32 49.4 13.6 38.15 19.02 29.4C24.44 20.65 40.1 13.52 49.6 10.98C59.1 8.44002 68.35 4.40002 79.81 12.52C84.81 16.07 89.35 29.85 92.73 40.94C95.2511 49.2037 96.7884 57.736 97.31 66.36C97.91 78.36 88.17 85.36 82.5 93.47C76.83 101.58 77.41 107.47 81.06 111.59C82.2479 112.91 83.8232 113.82 85.56 114.19C91.41 115.86 96.56 118.19 107.18 117.69C112.26 117.44 111.72 111.69 105.56 110.61C102.85 110.14 97.4 109.27 91.44 108.69C85.77 108.14 83.18 104.96 86.11 99.15C89.9 91.61 101.32 83.15 103.11 73.44C104.62 65.07 101.24 43.94 95.61 29.86C89.98 15.78 84.85 -1.93998 58.69 2.11002C32.53 6.16002 17.69 17.99 11.36 29.94C5.03004 41.89 2.10004 60.06 1.69004 76.77C1.28004 93.48 1.61004 106.98 1.90004 120.35C2.19004 133.72 4.90004 195.99 7.66004 224.48C11.35 263.25 13.79 290.1 35.89 307.02C58.74 324.52 81.07 331.27 93.89 299.77C93.89 299.77 76.62 302.15 74.79 302.31L58.32 312.52C44.59 306.15 24.49 300.15 17.74 256.52C10.99 212.89 8.81004 134.98 8.56004 130.65C8.31004 126.32 8.14004 121.52 7.89004 115.23C7.89004 115.23 5.67004 94 9.44004 60.4" stroke="#1975F1"/>
<path d="M57.29 177.52C56.73 202.73 57.08 223.06 46.99 253.31C36.9 283.56 35.65 288.21 35.65 288.21" fill="#F7F9FA"/>
<path d="M57.29 177.52C56.73 202.73 57.08 223.06 46.99 253.31C36.9 283.56 35.65 288.21 35.65 288.21" stroke="#1975F1"/>
<path d="M50.49 178.4C49.93 203.61 50.28 223.94 40.19 254.19C30.1 284.44 28.85 289.09 28.85 289.09" fill="#F7F9FA"/>
<path d="M50.49 178.4C49.93 203.61 50.28 223.94 40.19 254.19C30.1 284.44 28.85 289.09 28.85 289.09" stroke="#1975F1"/>
<path d="M33.54 150.9C33.6902 150.785 33.8307 150.658 33.96 150.52C34.4432 149.877 34.7682 149.129 34.9089 148.337C35.0496 147.544 35.0021 146.73 34.77 145.96C34.4667 145.191 33.9366 144.531 33.25 144.07L32.68 143.66L33.25 143.25C33.5075 143.076 33.7455 142.875 33.96 142.65C34.4425 142.006 34.7671 141.258 34.9077 140.466C35.0484 139.674 35.0013 138.86 34.77 138.09C34.4431 137.261 33.8575 136.56 33.1 136.09L32.47 135.67L33.11 135.25C33.7558 134.913 34.2974 134.406 34.6763 133.784C35.0552 133.162 35.257 132.448 35.26 131.72C35.1773 130.965 34.9201 130.239 34.5088 129.601C34.0975 128.962 33.5433 128.428 32.89 128.04L32.29 127.64L32.87 127.22C33.3902 126.883 33.836 126.442 34.1799 125.927C34.5238 125.411 34.7587 124.83 34.87 124.22C35.16 122.35 34.35 120.86 32.45 119.8C32.24 119.68 30.08 119.36 30.08 119.36C28.6227 118.92 27.1355 118.586 25.63 118.36C20.3 117.53 16.3 117.44 14.21 116.61C12.12 115.78 10.88 112.78 10.88 112.78C10.88 112.78 7.34004 108.96 11.34 83.1C15.34 57.24 20.69 33.02 35.15 25.4L27.73 21.8C22.5581 25.558 18.6406 30.7894 16.49 36.81C11.92 48.99 8.01004 63.28 4.23004 89.27C0.680042 113.63 5.49004 120.44 11.44 122.77L10.86 122.88V123.38C7.31004 123.68 4.86004 124.26 3.66004 125.05C3.15137 125.44 2.77098 125.973 2.56781 126.58C2.36464 127.188 2.34801 127.843 2.52004 128.46C2.72536 129.113 3.08667 129.707 3.57276 130.19C4.05885 130.672 4.65511 131.029 5.31004 131.23L6.43004 131.67L5.33004 132.15C3.46004 132.96 2.48004 133.97 2.42004 135.15C2.29004 137.48 3.00004 138.77 4.79004 139.45L5.86004 139.86L4.86004 140.37C3.32004 141.14 2.50004 142.07 2.44004 143.14C2.31004 145.43 2.98004 146.7 4.67004 147.39L5.67004 147.8L4.67004 148.3C3.22004 149.05 2.46004 149.96 2.40004 150.99C2.27004 153.24 2.92004 154.51 4.56004 155.21L5.56004 155.62L4.64004 156.11C3.25004 156.85 2.52004 157.74 2.46004 158.76C2.34004 160.95 2.98004 162.24 4.54004 162.94L5.36004 163.31L4.61004 163.81C4.1832 164.037 3.81753 164.364 3.54418 164.762C3.27082 165.161 3.09786 165.62 3.04004 166.1C2.93004 168.1 3.45004 169.35 4.73004 170.1L5.49004 170.52L4.79004 170.96C4.33238 171.183 3.93738 171.517 3.64062 171.93C3.34386 172.344 3.15465 172.825 3.09004 173.33C2.92852 174.518 3.24106 175.721 3.96004 176.68C4.24663 176.982 4.58542 177.229 4.96004 177.41L5.66004 177.78L5.03004 178.25C4.48037 178.578 4.03587 179.056 3.74887 179.629C3.46187 180.201 3.34432 180.843 3.41004 181.48C3.43843 182.101 3.62753 182.704 3.95883 183.23C4.29012 183.755 4.75227 184.186 5.30004 184.48L6.03004 184.86L5.36004 185.34C4.82636 185.627 4.38849 186.064 4.10058 186.597C3.81266 187.13 3.68731 187.736 3.74004 188.34C3.777 188.916 3.96092 189.473 4.27426 189.958C4.58761 190.443 5.01994 190.84 5.53004 191.11L6.29004 191.5L5.58004 191.97C4.30004 192.81 3.74004 193.79 3.92004 194.89C3.9655 195.41 4.13555 195.911 4.41579 196.352C4.69604 196.792 5.07823 197.159 5.53004 197.42L6.17004 197.78L5.60004 198.24C5.07707 198.599 4.66259 199.095 4.40165 199.673C4.14071 200.251 4.04331 200.89 4.12004 201.52C4.13841 202.07 4.32182 202.601 4.64643 203.045C4.97103 203.49 5.42179 203.826 5.94004 204.01L6.71004 204.33L6.07004 204.86C5.36786 205.413 4.86282 206.177 4.63004 207.04C4.49163 207.568 4.47278 208.12 4.57484 208.657C4.67691 209.193 4.89733 209.7 5.22004 210.14C5.45465 210.431 5.73906 210.678 6.06004 210.87L6.54004 211.16L6.19004 211.6C5.83551 212.037 5.57966 212.545 5.44004 213.09C5.306 213.618 5.2912 214.169 5.39671 214.704C5.50222 215.238 5.72539 215.743 6.05004 216.18C6.20324 216.363 6.37781 216.528 6.57004 216.67L7.03004 217.02L6.62004 217.43C6.14738 217.87 5.80196 218.43 5.62004 219.05C5.49335 219.52 5.47432 220.012 5.56436 220.49C5.6544 220.967 5.85119 221.419 6.14004 221.81C6.32312 222.034 6.53886 222.23 6.78004 222.39L7.25004 222.71L6.87004 223.13C6.45305 223.58 6.15413 224.126 6.00004 224.72C5.87856 225.217 5.87031 225.734 5.9759 226.234C6.08149 226.735 6.29821 227.205 6.61004 227.61C6.79823 227.833 7.01707 228.028 7.26004 228.19L7.72004 228.5L7.37004 228.92C7.02441 229.326 6.77487 229.804 6.64004 230.32C6.52384 230.795 6.51655 231.29 6.61872 231.768C6.7209 232.246 6.92989 232.694 7.23004 233.08C7.40467 233.283 7.60658 233.462 7.83004 233.61L8.27004 233.91L7.95004 234.33C7.37445 235.007 7.0904 235.884 7.16004 236.77C7.19597 237.738 7.60867 238.653 8.31004 239.32L8.66004 239.62L8.39004 239.99C7.9415 240.555 7.72677 241.271 7.79004 241.99C7.81004 242.463 7.93212 242.926 8.14789 243.347C8.36365 243.768 8.668 244.138 9.04004 244.43L9.43004 244.71L9.17004 245.11C8.49432 246.064 8.22131 247.246 8.41004 248.4C8.5749 248.991 8.92549 249.513 9.41004 249.89L9.74004 250.17L9.49004 250.52C8.91676 251.344 8.69378 252.362 8.87004 253.35C9.03019 253.927 9.3831 254.432 9.87004 254.78L10.19 255.04L10 255.4C9.7654 255.789 9.61326 256.223 9.55306 256.674C9.49285 257.124 9.52586 257.583 9.65004 258.02C9.80085 258.448 10.0591 258.83 10.4 259.13L10.69 259.39L10.51 259.73C10.2614 260.125 10.0991 260.568 10.0336 261.029C9.96808 261.491 10.001 261.962 10.13 262.41C10.3785 263.078 10.862 263.633 11.49 263.97L11.88 264.19L11.7 264.6C11.2756 265.463 11.1762 266.45 11.42 267.38C11.5877 267.819 11.856 268.212 12.2034 268.528C12.5507 268.844 12.9675 269.074 13.42 269.2C14.2698 269.451 15.1546 269.562 16.04 269.53C18.3278 269.455 20.6071 269.215 22.86 268.81L26.53 268.24L23.14 269.76C21.0668 270.649 19.0438 271.65 17.08 272.76C14.86 274.09 13.51 276.1 13.66 277.88C13.7394 278.54 14.0098 279.162 14.438 279.67C14.8661 280.178 15.4334 280.55 16.07 280.74C17.0055 281.044 17.9873 281.179 18.97 281.14C21.1742 281.081 23.3705 280.854 25.54 280.46L27.89 280.08L25.89 281.37C24.5568 282.233 23.1782 283.025 21.76 283.74C17.76 285.74 16.87 288.41 17.27 290.1C17.5129 290.906 18.0266 291.605 18.7243 292.076C19.422 292.548 20.2611 292.765 21.1 292.69C22.7997 292.55 24.4775 292.215 26.1 291.69L27.96 291.16L26.68 292.52C25.9663 293.213 25.2982 293.951 24.68 294.73C22.68 297.4 23.07 299.45 24.16 300.48C25.45 301.69 27.33 301.87 30.24 300.81L31.24 300.44L30.87 301.44C29.87 304.28 29.67 306.44 30.43 307.63C30.6961 308.097 31.0718 308.492 31.5248 308.781C31.9778 309.071 32.4945 309.245 33.03 309.29C34.3412 309.259 35.6003 308.771 36.59 307.91L37.72 307.08L37.38 308.52C36.77 310.9 37.23 312.33 38.92 313.29C40.42 314.14 41.85 313.87 43.46 312.41L44.17 311.77L44.29 312.72C44.3298 313.305 44.4929 313.874 44.7687 314.391C45.0445 314.908 45.4267 315.361 45.89 315.72C46.4875 316.136 47.1848 316.386 47.9104 316.444C48.6361 316.501 49.3641 316.366 50.02 316.05C50.3026 315.901 50.5648 315.716 50.8 315.5L51.22 315.12L51.54 315.58C51.8653 316.168 52.3439 316.658 52.9249 316.996C53.506 317.334 54.1678 317.508 54.84 317.5C55.4294 317.444 55.9926 317.23 56.47 316.88L56.91 316.57L57.18 317.04C57.4026 317.46 57.7271 317.817 58.1237 318.08C58.5203 318.342 58.9764 318.5 59.45 318.54C60.3543 318.562 61.2332 318.24 61.91 317.64L62.25 317.35L62.58 317.65C62.9142 317.959 63.3093 318.194 63.74 318.34C64.1993 318.491 64.6838 318.551 65.1659 318.515C65.6481 318.479 66.1184 318.348 66.55 318.13C67.3381 317.661 67.9337 316.928 68.23 316.06L68.53 315.33L69.15 316.01L69.25 316.12C69.675 316.474 70.1747 316.728 70.7116 316.861C71.2485 316.994 71.8087 317.004 72.35 316.89C72.8195 316.839 73.2727 316.689 73.6796 316.449C74.0864 316.209 74.4377 315.886 74.71 315.5C75.064 314.97 75.3088 314.375 75.43 313.75L75.6 313.02L76.21 313.46C76.3207 313.545 76.4377 313.622 76.56 313.69C77.1507 314.11 77.8421 314.367 78.5639 314.433C79.2857 314.5 80.0123 314.375 80.67 314.07C81.298 313.705 81.8218 313.186 82.1913 312.561C82.5607 311.935 82.7635 311.226 82.78 310.5C82.78 310.36 82.78 310.31 82.78 310.26V309.26L83.55 309.83C84.0065 310.176 84.5214 310.436 85.07 310.6C85.4476 310.706 85.8379 310.76 86.23 310.76C86.9752 310.768 87.7073 310.564 88.34 310.17C90 309.09 90.44 307.38 89.75 304.8L89.49 303.63L90.49 304.22C91.1685 304.628 91.9314 304.874 92.72 304.94H92.93C93.4553 304.933 93.9737 304.82 94.4546 304.609C94.9355 304.397 95.3692 304.092 95.73 303.71C97.12 302.32 97.13 300.71 95.78 298.27L95.11 297.07L96.39 297.56C96.993 297.805 97.6308 297.954 98.28 298C98.8027 298.036 99.3272 297.966 99.8221 297.794C100.317 297.622 100.772 297.352 101.16 297C101.49 296.705 101.756 296.345 101.94 295.942C102.124 295.539 102.223 295.103 102.23 294.66C102.119 293.049 101.519 291.511 100.51 290.25L99.9 289.37L100.97 289.47C101.53 289.52 102.03 289.55 102.5 289.55C103.84 289.55 105.62 289.34 106.5 288.33C106.9 287.93 107.214 287.452 107.422 286.925C107.63 286.399 107.728 285.836 107.71 285.27C107.61 284.01 106.78 282.6 105.18 280.99L104.42 280.22L105.5 280.14C106.744 280.123 107.962 279.778 109.03 279.14C109.693 278.669 110.233 278.045 110.604 277.321C110.975 276.596 111.166 275.794 111.16 274.98C111.078 273.854 110.604 272.793 109.82 271.98L109.28 271.37L110.06 271.16C110.606 271.044 111.118 270.803 111.555 270.456C111.992 270.109 112.343 269.666 112.58 269.16C112.846 268.47 112.934 267.724 112.834 266.992C112.735 266.259 112.451 265.564 112.01 264.97L111.67 264.51L112.17 264.23C112.688 263.941 113.127 263.529 113.448 263.03C113.769 262.531 113.962 261.961 114.01 261.37C114.074 260.871 114.037 260.364 113.902 259.88C113.766 259.395 113.534 258.943 113.22 258.55L112.99 258.25L113.22 257.95C113.89 257.06 114.93 255.29 114.3 253.52C114.109 252.975 113.836 252.462 113.49 252L113.23 251.65L113.54 251.34C114.161 250.749 114.584 249.981 114.75 249.14C114.82 248.685 114.795 248.22 114.678 247.775C114.561 247.329 114.354 246.912 114.07 246.55C113.772 246.162 113.437 245.804 113.07 245.48L112.59 245.03L113.15 244.69C113.755 244.372 114.229 243.852 114.49 243.22C114.704 242.537 114.739 241.811 114.592 241.11C114.445 240.41 114.121 239.759 113.65 239.22C113.342 238.893 113.008 238.592 112.65 238.32L112.1 237.9L112.67 237.51C113.218 237.18 113.675 236.718 113.998 236.166C114.322 235.614 114.501 234.99 114.52 234.35C114.563 233.577 114.401 232.806 114.049 232.116C113.698 231.425 113.17 230.84 112.52 230.42L111.99 230.04L112.5 229.63C113.471 228.899 114.129 227.827 114.34 226.63C114.432 226.081 114.404 225.519 114.257 224.981C114.11 224.444 113.849 223.946 113.49 223.52C113.283 223.274 113.052 223.049 112.8 222.85L112.38 222.51L112.75 222.12C114.46 220.29 114.52 218.77 114.28 217.81C113.985 216.811 113.375 215.934 112.54 215.31L112.11 214.96L112.5 214.57C113.25 213.913 113.747 213.016 113.906 212.032C114.065 211.048 113.875 210.039 113.37 209.18C112.94 208.371 112.288 207.701 111.49 207.25L110.84 206.87L111.45 206.42C112.27 205.81 114.08 204.15 113.2 201.92C112.798 200.916 112.101 200.058 111.2 199.46L110.66 199.09L111.16 198.67C111.726 198.256 112.186 197.714 112.502 197.089C112.819 196.463 112.982 195.771 112.98 195.07C112.889 194.359 112.634 193.679 112.235 193.084C111.835 192.488 111.303 191.994 110.68 191.64L110 191.19L110.71 190.78C111.318 190.449 111.833 189.971 112.21 189.39C112.456 188.974 112.615 188.512 112.677 188.032C112.739 187.552 112.703 187.065 112.57 186.6C112.33 185.599 111.737 184.719 110.9 184.12L110.4 183.74L110.88 183.34C111.579 182.756 112.088 181.976 112.34 181.1C112.53 180.39 112.91 177.93 109.64 176.18L108.85 175.76L109.62 175.31C111.03 174.49 111.62 173.57 111.62 172.31C111.624 171.697 111.477 171.092 111.191 170.549C110.905 170.006 110.489 169.543 109.98 169.2L109.54 168.86L109.92 168.45C110.721 167.696 111.207 166.667 111.28 165.57C111.268 165.041 111.145 164.52 110.919 164.041C110.694 163.562 110.37 163.136 109.97 162.79L109.64 162.46L109.94 162.1C110.752 161.232 111.202 160.088 111.2 158.9C111.116 158.003 110.703 157.17 110.04 156.56L109.73 156.25L110 155.9C110.441 155.378 110.751 154.758 110.904 154.092C111.057 153.425 111.049 152.732 110.88 152.07C110.567 151.066 109.908 150.205 109.02 149.64L108.38 149.2L109.05 148.8C109.513 148.537 109.917 148.181 110.235 147.754C110.554 147.327 110.78 146.839 110.9 146.32C111.27 144.6 110.36 142.86 108.47 141.65L107.74 141.19L108.45 140.76C109.059 140.512 109.588 140.101 109.977 139.571C110.367 139.042 110.604 138.415 110.66 137.76C110.631 136.961 110.41 136.181 110.017 135.485C109.623 134.789 109.069 134.198 108.4 133.76L107.8 133.32L108.44 132.93C109.481 132.34 110.247 131.362 110.57 130.21C110.734 129.48 110.705 128.72 110.485 128.004C110.266 127.289 109.865 126.643 109.32 126.13C108.307 125.214 107.106 124.531 105.8 124.13L105.54 124.04L108.66 125.04C108.66 124.85 110.36 121.1 110.19 121.04C109.06 120.73 108.76 118.11 107.37 117.87L104.76 116.93L87.81 115.71L90.21 115.85C94.02 116.07 97.95 116.36 98.01 116.36C98.1405 116.366 98.2681 116.321 98.3667 116.236C98.4653 116.15 98.5274 116.03 98.54 115.9C98.5483 115.769 98.5047 115.64 98.4186 115.541C98.3326 115.442 98.211 115.38 98.08 115.37C98.01 115.37 90.94 114.85 86.49 114.66H85.93L86.02 114.1C86.0253 114.05 86.0253 114 86.02 113.95C85.9992 113.818 85.9274 113.7 85.82 113.62C85.7675 113.581 85.7077 113.553 85.6441 113.538C85.5806 113.522 85.5146 113.52 85.45 113.53L84.98 113.59C82.91 113.87 79.78 114.3 78.46 116.07C78.1916 116.439 78.0024 116.86 77.9043 117.305C77.8062 117.751 77.8014 118.212 77.89 118.66C78.0121 119.232 78.2881 119.76 78.6881 120.186C79.0882 120.613 79.5971 120.922 80.16 121.08L81.23 121.53L80.17 122C79.5433 122.258 78.9853 122.659 78.54 123.17C78.2473 123.532 78.033 123.951 77.9108 124.4C77.7886 124.85 77.7611 125.32 77.83 125.78C78.01 127.25 78.83 128.05 80.69 128.55L82.01 128.9L80.78 129.48C79.9027 129.861 79.153 130.486 78.62 131.28C78.2349 131.813 78.0032 132.442 77.9503 133.098C77.8975 133.754 78.0253 134.412 78.32 135C78.8395 135.857 79.6372 136.51 80.58 136.85L81.65 137.3L80.58 137.77C78.71 138.59 77.96 139.83 78.21 141.66C78.42 143.12 79.57 144.11 81.85 144.78L83.51 145.27L81.85 145.74C80.1 146.24 79.13 146.95 78.7 148.03C78.27 149.11 77.78 150.35 78.56 151.57C78.9496 152.133 79.4856 152.579 80.11 152.86L80.92 153.27L80.14 153.74C79.4944 154.106 78.9484 154.624 78.55 155.25C78.3106 155.652 78.1687 156.105 78.1358 156.572C78.1028 157.04 78.1796 157.508 78.36 157.94C78.6347 158.749 79.2166 159.417 79.98 159.8L80.73 160.19L80.03 160.66C79.6191 160.932 79.2757 161.294 79.0261 161.718C78.7765 162.143 78.6274 162.619 78.59 163.11C78.5157 163.603 78.5516 164.106 78.6951 164.583C78.8386 165.06 79.0862 165.5 79.42 165.87C79.889 166.353 80.4595 166.725 81.09 166.96L82.09 167.37L81.14 167.87C80.7258 168.045 80.3531 168.306 80.0464 168.635C79.7397 168.964 79.5058 169.354 79.36 169.78C79.1612 170.33 79.1027 170.92 79.19 171.498C79.2773 172.076 79.5077 172.624 79.86 173.09C80.2052 173.508 80.6345 173.849 81.12 174.09L81.85 174.48L81.17 174.95C80.4329 175.423 79.9083 176.164 79.7068 177.017C79.5054 177.869 79.6428 178.767 80.09 179.52C80.5067 180.201 81.0924 180.762 81.79 181.15L82.46 181.55L81.82 181.99C81.0531 182.51 80.4966 183.287 80.25 184.18C80.0725 184.673 80.0117 185.201 80.0725 185.721C80.1332 186.242 80.3138 186.741 80.6 187.18C81.113 187.851 81.8069 188.361 82.6 188.65L83.5 189.02L82.67 189.53C82.0091 189.93 81.4722 190.505 81.1191 191.192C80.7659 191.879 80.6105 192.65 80.67 193.42C80.7165 194.059 80.9512 194.67 81.3445 195.175C81.7379 195.681 82.2722 196.058 82.88 196.26L83.95 196.62L82.95 197.17C82.4363 197.446 81.9785 197.816 81.6 198.26C81.265 198.675 81.0325 199.162 80.9213 199.683C80.8101 200.205 80.8234 200.745 80.96 201.26C81.26 202.53 81.79 203.21 83.96 203.62L85.35 203.88L84.1 204.55C83.363 204.925 82.7176 205.457 82.21 206.11C81.8635 206.577 81.6231 207.115 81.5056 207.685C81.3882 208.255 81.3965 208.844 81.53 209.41C81.6404 210.036 81.9356 210.614 82.3777 211.07C82.8197 211.526 83.3882 211.84 84.01 211.97L85.21 212.33L84.09 212.9C83.5226 213.145 83.0347 213.543 82.6814 214.05C82.328 214.557 82.1232 215.153 82.09 215.77C82.0364 216.23 82.0847 216.696 82.2316 217.135C82.3785 217.574 82.6204 217.975 82.94 218.31C83.5895 218.945 84.3816 219.415 85.25 219.68L86.56 220.13L85.26 220.62C84.6667 220.78 84.1181 221.074 83.6569 221.479C83.1956 221.885 82.8339 222.392 82.6 222.96C82.4029 223.507 82.3453 224.094 82.4327 224.668C82.52 225.243 82.7494 225.787 83.1 226.25C83.4723 226.732 83.9471 227.125 84.49 227.4L85.3 227.84L84.49 228.28C84.0228 228.502 83.615 228.831 83.3002 229.242C82.9855 229.652 82.7729 230.131 82.68 230.64C82.5569 231.163 82.5597 231.708 82.6884 232.229C82.817 232.751 83.0678 233.234 83.42 233.64C83.7487 234.004 84.1378 234.308 84.57 234.54L85.36 234.98L84.56 235.42C84.1166 235.644 83.7307 235.967 83.4324 236.364C83.134 236.761 82.9314 237.222 82.84 237.71C82.6712 238.257 82.6422 238.837 82.7558 239.398C82.8694 239.959 83.1218 240.482 83.49 240.92C83.8062 241.25 84.1787 241.521 84.59 241.72L85.4 242.13L84.62 242.6C83.9413 242.966 83.411 243.556 83.12 244.27C82.838 244.914 82.7772 245.633 82.9473 246.315C83.1174 246.997 83.5087 247.604 84.06 248.04L84.49 248.4L84.07 248.78C83.5555 249.262 83.1615 249.858 82.92 250.52C82.7181 251.097 82.6509 251.712 82.7237 252.319C82.7965 252.926 83.0073 253.507 83.34 254.02L83.55 254.37L83.24 254.65C82.8913 254.963 82.6207 255.354 82.45 255.79C82.1312 256.83 82.1914 257.95 82.62 258.95L82.73 259.23L82.54 259.46C82.153 259.92 81.8577 260.449 81.67 261.02C81.2956 261.99 81.3208 263.069 81.74 264.02L81.91 264.35L81.65 264.61C81.0112 265.286 80.6536 266.18 80.65 267.11C80.5946 267.804 80.7441 268.5 81.08 269.11L81.31 269.49L80.76 269.92C80.1369 270.48 79.7052 271.221 79.5258 272.039C79.3464 272.857 79.4283 273.711 79.76 274.48L79.99 275.04L79.39 275.16C78.8999 275.252 78.4418 275.469 78.06 275.79C77.314 276.51 76.8675 277.485 76.81 278.52V278.84L76.5 278.94C75.8195 279.141 75.1945 279.496 74.6741 279.978C74.1536 280.461 73.7518 281.057 73.5 281.72L73.41 281.97L73.15 282.03C72.6346 282.129 72.1494 282.347 71.7328 282.667C71.3162 282.986 70.9797 283.398 70.75 283.87L70.64 284.11H70.38C69.5567 284.317 68.7996 284.73 68.18 285.31L68.03 285.46H67.88C67.1894 285.577 66.5315 285.839 65.95 286.23L65.78 286.35H65.57C64.807 286.204 64.0231 286.204 63.26 286.35L63.16 286.4L62.91 286.54L62.63 286.4C61.8749 286.114 61.0611 286.018 60.26 286.12H60.11H59.88C59.0148 285.867 58.1325 285.677 57.24 285.55H57.09L56.98 285.45C56.3809 284.998 55.6597 284.737 54.91 284.7H54.73L54.6 284.57C54.2755 284.265 53.8456 284.096 53.4 284.1H53.12L52.98 283.86L53.28 283.41L52.9 283.73C52.6358 283.456 52.2798 283.289 51.9 283.26H51.63L51.52 283.01C51.392 282.71 51.206 282.438 50.9726 282.209C50.7393 281.981 50.4631 281.801 50.16 281.68L49.81 281.53V281.15C49.919 280.504 49.8137 279.84 49.51 279.26C49.2431 278.831 48.8801 278.471 48.4496 278.207C48.0191 277.943 47.5331 277.783 47.03 277.74L46.39 277.63L46.66 277.04C46.9391 276.384 47.059 275.671 47.01 274.96C47.0199 274.47 46.9251 273.984 46.732 273.534C46.5388 273.084 46.2518 272.68 45.89 272.35C44.6914 271.485 43.2368 271.049 41.76 271.11L40.02 271.03L41.53 270.17C42.8202 269.567 43.8748 268.554 44.53 267.29C44.8434 266.634 45.0061 265.917 45.0061 265.19C45.0061 264.463 44.8434 263.746 44.53 263.09C44.1688 262.437 43.6365 261.894 42.99 261.52L42.65 261.3L42.79 260.92C42.8385 260.786 42.8786 260.649 42.91 260.51C43.0221 260.104 43.0453 259.678 42.978 259.262C42.9107 258.847 42.7545 258.45 42.52 258.1C42.3618 257.884 42.1732 257.692 41.96 257.53L41.52 257.19L41.91 256.79C41.9506 256.753 41.9844 256.709 42.01 256.66C42.221 256.222 42.3305 255.741 42.3305 255.255C42.3305 254.769 42.221 254.288 42.01 253.85C41.8547 253.585 41.6551 253.348 41.42 253.15L41 252.78L41.41 252.4C41.4604 252.355 41.5012 252.301 41.53 252.24C41.7465 251.754 41.8533 251.226 41.843 250.693C41.8326 250.161 41.7053 249.638 41.47 249.16C41.2847 248.84 41.0404 248.559 40.75 248.33L40.39 248.04L40.66 247.66C40.9697 247.284 41.1645 246.826 41.2212 246.342C41.278 245.858 41.1942 245.368 40.98 244.93C40.7601 244.493 40.4418 244.113 40.05 243.82L39.64 243.53L39.93 243.12C40.2709 242.696 40.4901 242.187 40.5641 241.648C40.6381 241.109 40.5641 240.56 40.35 240.06C40.2197 239.803 40.0657 239.559 39.89 239.33L39.66 239.04L39.87 238.74C40.1552 238.312 40.3331 237.821 40.3888 237.309C40.4445 236.797 40.3763 236.28 40.19 235.8C40.0213 235.244 39.7071 234.744 39.28 234.35L38.97 234.06L39.2 233.71C39.4682 233.272 39.6344 232.78 39.6864 232.269C39.7383 231.759 39.6746 231.243 39.5 230.76C39.3246 230.146 38.9777 229.594 38.5 229.17L38.13 228.84L38.46 228.47C38.8167 228.047 39.0546 227.538 39.1495 226.993C39.2444 226.448 39.1928 225.888 39 225.37C38.8537 224.831 38.5714 224.339 38.18 223.94L37.88 223.63L38.14 223.29C38.466 222.824 38.6782 222.288 38.7599 221.726C38.8415 221.163 38.7902 220.589 38.61 220.05C38.4257 219.293 37.9969 218.618 37.39 218.13L37.03 217.84L37.3 217.46C37.6051 217 37.8031 216.477 37.8792 215.93C37.9554 215.383 37.9078 214.826 37.74 214.3C37.6263 213.809 37.4086 213.347 37.1016 212.947C36.7945 212.547 36.4053 212.217 35.96 211.98L35.3 211.6L35.91 211.14C36.2259 210.949 36.5004 210.696 36.7173 210.397C36.9341 210.098 37.0891 209.759 37.1729 209.4C37.2568 209.04 37.2679 208.667 37.2055 208.303C37.1432 207.939 37.0088 207.591 36.81 207.28C36.5485 206.825 36.2102 206.419 35.81 206.08L35.38 205.71L35.8 205.33C36.3556 204.844 36.7317 204.185 36.8677 203.46C37.0038 202.734 36.8919 201.984 36.55 201.33C36.337 200.886 36.0258 200.496 35.64 200.19L35.21 199.83L35.61 199.44C36.1728 198.911 36.5512 198.216 36.6898 197.457C36.8284 196.697 36.7198 195.913 36.38 195.22C36.1509 194.73 35.8081 194.301 35.38 193.97L34.99 193.63L35.34 193.25C35.883 192.672 36.2385 191.944 36.3598 191.16C36.4812 190.377 36.3627 189.575 36.02 188.86C35.8159 188.368 35.5051 187.927 35.11 187.57L34.77 187.25L35.06 186.89C35.5049 186.288 35.8049 185.591 35.9367 184.854C36.0686 184.117 36.0286 183.359 35.82 182.64C35.5463 181.943 35.0862 181.334 34.49 180.88L34.06 180.53L34.54 180.07C35.0394 179.427 35.378 178.674 35.5276 177.874C35.6772 177.074 35.6334 176.25 35.4 175.47C35.1846 174.912 34.8422 174.412 34.4 174.01L34.02 173.65L34.5 173.2L34.59 173.11C35.0724 172.466 35.3971 171.718 35.5377 170.926C35.6784 170.134 35.6313 169.32 35.4 168.55C35.1005 167.781 34.5737 167.122 33.89 166.66L33.41 166.31L33.93 165.81C34.431 165.166 34.7705 164.412 34.9201 163.609C35.0697 162.807 35.0251 161.981 34.79 161.2C34.5133 160.479 34.0341 159.854 33.41 159.4L32.88 159L33.41 158.6C33.6158 158.452 33.8067 158.285 33.98 158.1C34.4625 157.456 34.7871 156.708 34.9277 155.916C35.0684 155.124 35.0213 154.31 34.79 153.54C34.5144 152.824 34.0389 152.203 33.42 151.75L32.9 151.35L33.35 151.01" fill="#F7F9FA"/>
<path d="M33.54 150.9C33.6902 150.785 33.8307 150.658 33.96 150.52C34.4432 149.877 34.7682 149.129 34.9089 148.337C35.0496 147.544 35.0021 146.73 34.77 145.96C34.4667 145.191 33.9366 144.531 33.25 144.07L32.68 143.66L33.25 143.25C33.5075 143.076 33.7455 142.875 33.96 142.65C34.4425 142.006 34.7671 141.258 34.9077 140.466C35.0484 139.674 35.0013 138.86 34.77 138.09C34.4431 137.261 33.8575 136.56 33.1 136.09L32.47 135.67L33.11 135.25C33.7558 134.913 34.2974 134.406 34.6763 133.784C35.0552 133.162 35.257 132.448 35.26 131.72C35.1773 130.965 34.9201 130.239 34.5088 129.601C34.0975 128.962 33.5433 128.428 32.89 128.04L32.29 127.64L32.87 127.22C33.3902 126.883 33.836 126.442 34.1799 125.927C34.5238 125.411 34.7587 124.83 34.87 124.22C35.16 122.35 34.35 120.86 32.45 119.8C32.24 119.68 30.08 119.36 30.08 119.36C28.6227 118.92 27.1355 118.586 25.63 118.36C20.3 117.53 16.3 117.44 14.21 116.61C12.12 115.78 10.88 112.78 10.88 112.78C10.88 112.78 7.34004 108.96 11.34 83.1C15.34 57.24 20.69 33.02 35.15 25.4L27.73 21.8C22.558 25.558 18.6406 30.7894 16.49 36.81C11.92 48.99 8.01004 63.28 4.23004 89.27C0.680042 113.63 5.49004 120.44 11.44 122.77L10.86 122.88V123.38C7.31004 123.68 4.86004 124.26 3.66004 125.05C3.15137 125.44 2.77098 125.973 2.56781 126.58C2.36464 127.188 2.34801 127.843 2.52004 128.46C2.72536 129.113 3.08667 129.707 3.57276 130.19C4.05885 130.672 4.65511 131.029 5.31004 131.23L6.43004 131.67L5.33004 132.15C3.46004 132.96 2.48004 133.97 2.42004 135.15C2.29004 137.48 3.00004 138.77 4.79004 139.45L5.86004 139.86L4.86004 140.37C3.32004 141.14 2.50004 142.07 2.44004 143.14C2.31004 145.43 2.98004 146.7 4.67004 147.39L5.67004 147.8L4.67004 148.3C3.22004 149.05 2.46004 149.96 2.40004 150.99C2.27004 153.24 2.92004 154.51 4.56004 155.21L5.56004 155.62L4.64004 156.11C3.25004 156.85 2.52004 157.74 2.46004 158.76C2.34004 160.95 2.98004 162.24 4.54004 162.94L5.36004 163.31L4.61004 163.81C4.1832 164.037 3.81753 164.364 3.54418 164.762C3.27082 165.161 3.09786 165.62 3.04004 166.1C2.93004 168.1 3.45004 169.35 4.73004 170.1L5.49004 170.52L4.79004 170.96C4.33238 171.183 3.93738 171.517 3.64062 171.93C3.34386 172.344 3.15465 172.825 3.09004 173.33C2.92852 174.518 3.24106 175.721 3.96004 176.68C4.24663 176.982 4.58542 177.229 4.96004 177.41L5.66004 177.78L5.03004 178.25C4.48037 178.578 4.03587 179.056 3.74887 179.629C3.46187 180.201 3.34432 180.843 3.41004 181.48C3.43843 182.101 3.62753 182.704 3.95883 183.23C4.29012 183.755 4.75227 184.186 5.30004 184.48L6.03004 184.86L5.36004 185.34C4.82636 185.627 4.38849 186.064 4.10058 186.597C3.81266 187.13 3.68731 187.736 3.74004 188.34C3.777 188.916 3.96092 189.473 4.27426 189.958C4.58761 190.443 5.01994 190.84 5.53004 191.11L6.29004 191.5L5.58004 191.97C4.30004 192.81 3.74004 193.79 3.92004 194.89C3.9655 195.41 4.13555 195.911 4.41579 196.352C4.69604 196.792 5.07823 197.159 5.53004 197.42L6.17004 197.78L5.60004 198.24C5.07707 198.599 4.66259 199.095 4.40165 199.673C4.14071 200.251 4.04331 200.89 4.12004 201.52C4.13841 202.07 4.32182 202.601 4.64643 203.045C4.97103 203.49 5.42179 203.826 5.94004 204.01L6.71004 204.33L6.07004 204.86C5.36786 205.413 4.86282 206.177 4.63004 207.04C4.49163 207.568 4.47278 208.12 4.57484 208.657C4.67691 209.193 4.89733 209.7 5.22004 210.14C5.45465 210.431 5.73906 210.678 6.06004 210.87L6.54004 211.16L6.19004 211.6C5.83551 212.037 5.57966 212.545 5.44004 213.09C5.306 213.618 5.2912 214.169 5.39671 214.704C5.50222 215.238 5.72539 215.743 6.05004 216.18C6.20324 216.363 6.37781 216.528 6.57004 216.67L7.03004 217.02L6.62004 217.43C6.14738 217.871 5.80197 218.43 5.62004 219.05C5.49335 219.52 5.47432 220.012 5.56436 220.49C5.6544 220.967 5.85119 221.419 6.14004 221.81C6.32312 222.034 6.53886 222.23 6.78004 222.39L7.25004 222.71L6.87004 223.13C6.45305 223.58 6.15413 224.126 6.00004 224.72C5.87856 225.217 5.87031 225.734 5.9759 226.234C6.08149 226.735 6.29821 227.205 6.61004 227.61C6.79823 227.833 7.01707 228.028 7.26004 228.19L7.72004 228.5L7.37004 228.92C7.02441 229.326 6.77487 229.804 6.64004 230.32C6.52384 230.795 6.51655 231.29 6.61872 231.768C6.7209 232.246 6.92989 232.694 7.23004 233.08C7.40467 233.283 7.60658 233.462 7.83004 233.61L8.27004 233.91L7.95004 234.33C7.37445 235.007 7.0904 235.884 7.16004 236.77C7.19597 237.738 7.60867 238.653 8.31004 239.32L8.66004 239.62L8.39004 239.99C7.9415 240.555 7.72677 241.271 7.79004 241.99C7.81004 242.463 7.93212 242.926 8.14789 243.347C8.36365 243.768 8.668 244.138 9.04004 244.43L9.43004 244.71L9.17004 245.11C8.49432 246.064 8.22131 247.246 8.41004 248.4C8.5749 248.991 8.92549 249.513 9.41004 249.89L9.74004 250.17L9.49004 250.52C8.91676 251.344 8.69378 252.362 8.87004 253.35C9.03019 253.927 9.3831 254.432 9.87004 254.78L10.19 255.04L10 255.4C9.7654 255.789 9.61326 256.223 9.55306 256.674C9.49285 257.124 9.52586 257.583 9.65004 258.02C9.80085 258.448 10.0591 258.83 10.4 259.13L10.69 259.39L10.51 259.73C10.2614 260.125 10.0991 260.568 10.0336 261.029C9.96808 261.491 10.001 261.962 10.13 262.41C10.3785 263.078 10.862 263.633 11.49 263.97L11.88 264.19L11.7 264.6C11.2756 265.463 11.1762 266.45 11.42 267.38C11.5877 267.819 11.856 268.212 12.2034 268.528C12.5507 268.844 12.9675 269.074 13.42 269.2C14.2698 269.451 15.1546 269.562 16.04 269.53C18.3278 269.455 20.6071 269.215 22.86 268.81L26.53 268.24L23.14 269.76C21.0668 270.649 19.0438 271.65 17.08 272.76C14.86 274.09 13.51 276.1 13.66 277.88C13.7394 278.54 14.0098 279.162 14.438 279.67C14.8661 280.178 15.4334 280.55 16.07 280.74C17.0055 281.044 17.9873 281.179 18.97 281.14C21.1742 281.081 23.3705 280.854 25.54 280.46L27.89 280.08L25.89 281.37C24.5568 282.233 23.1782 283.025 21.76 283.74C17.76 285.74 16.87 288.41 17.27 290.1C17.5129 290.906 18.0266 291.605 18.7243 292.076C19.422 292.548 20.2611 292.765 21.1 292.69C22.7997 292.55 24.4775 292.215 26.1 291.69L27.96 291.16L26.68 292.52C25.9663 293.213 25.2982 293.951 24.68 294.73C22.68 297.4 23.07 299.45 24.16 300.48C25.45 301.69 27.33 301.87 30.24 300.81L31.24 300.44L30.87 301.44C29.87 304.28 29.67 306.44 30.43 307.63C30.6961 308.097 31.0718 308.492 31.5248 308.781C31.9778 309.071 32.4945 309.245 33.03 309.29C34.3412 309.259 35.6003 308.771 36.59 307.91L37.72 307.08L37.38 308.52C36.77 310.9 37.23 312.33 38.92 313.29C40.42 314.14 41.85 313.87 43.46 312.41L44.17 311.77L44.29 312.72C44.3298 313.305 44.4929 313.874 44.7687 314.391C45.0445 314.908 45.4267 315.361 45.89 315.72C46.4875 316.136 47.1848 316.386 47.9104 316.444C48.6361 316.501 49.3641 316.366 50.02 316.05C50.3026 315.901 50.5648 315.716 50.8 315.5L51.22 315.12L51.54 315.58C51.8653 316.168 52.3439 316.658 52.9249 316.996C53.506 317.334 54.1678 317.508 54.84 317.5C55.4294 317.444 55.9926 317.23 56.47 316.88L56.91 316.57L57.18 317.04C57.4026 317.46 57.7271 317.817 58.1237 318.08C58.5203 318.342 58.9764 318.5 59.45 318.54C60.3543 318.562 61.2332 318.24 61.91 317.64L62.25 317.35L62.58 317.65C62.9142 317.959 63.3093 318.194 63.74 318.34C64.1993 318.491 64.6838 318.551 65.1659 318.515C65.6481 318.479 66.1184 318.348 66.55 318.13C67.3381 317.661 67.9337 316.928 68.23 316.06L68.53 315.33L69.15 316.01L69.25 316.12C69.675 316.474 70.1747 316.728 70.7116 316.861C71.2485 316.994 71.8087 317.004 72.35 316.89C72.8195 316.839 73.2727 316.689 73.6796 316.449C74.0864 316.209 74.4377 315.886 74.71 315.5C75.064 314.97 75.3088 314.375 75.43 313.75L75.6 313.02L76.21 313.46C76.3207 313.545 76.4377 313.622 76.56 313.69C77.1507 314.11 77.8421 314.367 78.5639 314.433C79.2857 314.5 80.0123 314.375 80.67 314.07C81.298 313.705 81.8218 313.186 82.1913 312.561C82.5607 311.935 82.7635 311.226 82.78 310.5C82.78 310.36 82.78 310.31 82.78 310.26V309.26L83.55 309.83C84.0065 310.176 84.5214 310.436 85.07 310.6C85.4476 310.706 85.8379 310.76 86.23 310.76C86.9752 310.768 87.7073 310.564 88.34 310.17C90 309.09 90.44 307.38 89.75 304.8L89.49 303.63L90.49 304.22C91.1685 304.628 91.9314 304.874 92.72 304.94H92.93C93.4553 304.933 93.9737 304.82 94.4546 304.609C94.9355 304.397 95.3692 304.092 95.73 303.71C97.12 302.32 97.13 300.71 95.78 298.27L95.11 297.07L96.39 297.56C96.993 297.805 97.6308 297.954 98.28 298C98.8027 298.036 99.3272 297.966 99.8221 297.794C100.317 297.622 100.772 297.352 101.16 297C101.49 296.705 101.756 296.345 101.94 295.942C102.124 295.539 102.223 295.103 102.23 294.66C102.119 293.049 101.519 291.511 100.51 290.25L99.9 289.37L100.97 289.47C101.53 289.52 102.03 289.55 102.5 289.55C103.84 289.55 105.62 289.34 106.5 288.33C106.9 287.93 107.214 287.452 107.422 286.925C107.63 286.399 107.728 285.836 107.71 285.27C107.61 284.01 106.78 282.6 105.18 280.99L104.42 280.22L105.5 280.14C106.744 280.123 107.962 279.778 109.03 279.14C109.693 278.669 110.233 278.045 110.604 277.321C110.975 276.597 111.166 275.794 111.16 274.98C111.078 273.854 110.604 272.793 109.82 271.98L109.28 271.37L110.06 271.16C110.606 271.044 111.118 270.803 111.555 270.456C111.992 270.109 112.343 269.666 112.58 269.16C112.846 268.47 112.934 267.724 112.834 266.992C112.735 266.259 112.451 265.564 112.01 264.97L111.67 264.51L112.17 264.23C112.688 263.941 113.127 263.529 113.448 263.03C113.769 262.531 113.962 261.961 114.01 261.37C114.074 260.871 114.037 260.364 113.902 259.88C113.766 259.395 113.534 258.943 113.22 258.55L112.99 258.25L113.22 257.95C113.89 257.06 114.93 255.29 114.3 253.52C114.109 252.975 113.836 252.462 113.49 252L113.23 251.65L113.54 251.34C114.161 250.749 114.584 249.981 114.75 249.14C114.82 248.685 114.795 248.22 114.678 247.775C114.561 247.329 114.354 246.912 114.07 246.55C113.772 246.162 113.437 245.804 113.07 245.48L112.59 245.03L113.15 244.69C113.755 244.372 114.229 243.852 114.49 243.22C114.704 242.537 114.739 241.811 114.592 241.11C114.445 240.41 114.121 239.759 113.65 239.22C113.342 238.893 113.008 238.592 112.65 238.32L112.1 237.9L112.67 237.51C113.218 237.18 113.675 236.718 113.998 236.166C114.322 235.614 114.501 234.99 114.52 234.35C114.563 233.577 114.401 232.806 114.049 232.116C113.698 231.425 113.17 230.84 112.52 230.42L111.99 230.04L112.5 229.63C113.471 228.899 114.129 227.827 114.34 226.63C114.432 226.081 114.404 225.519 114.257 224.981C114.11 224.444 113.849 223.946 113.49 223.52C113.283 223.274 113.052 223.049 112.8 222.85L112.38 222.51L112.75 222.12C114.46 220.29 114.52 218.77 114.28 217.81C113.985 216.811 113.375 215.934 112.54 215.31L112.11 214.96L112.5 214.57C113.25 213.913 113.747 213.016 113.906 212.032C114.065 211.048 113.875 210.039 113.37 209.18C112.94 208.371 112.288 207.701 111.49 207.25L110.84 206.87L111.45 206.42C112.27 205.81 114.08 204.15 113.2 201.92C112.798 200.916 112.101 200.058 111.2 199.46L110.66 199.09L111.16 198.67C111.726 198.256 112.186 197.714 112.502 197.089C112.819 196.463 112.982 195.771 112.98 195.07C112.889 194.359 112.634 193.679 112.235 193.084C111.835 192.488 111.303 191.994 110.68 191.64L110 191.19L110.71 190.78C111.318 190.449 111.833 189.971 112.21 189.39C112.456 188.974 112.615 188.512 112.677 188.032C112.739 187.552 112.703 187.065 112.57 186.6C112.33 185.599 111.737 184.719 110.9 184.12L110.4 183.74L110.88 183.34C111.579 182.756 112.088 181.976 112.34 181.1C112.53 180.39 112.91 177.93 109.64 176.18L108.85 175.76L109.62 175.31C111.03 174.49 111.62 173.57 111.62 172.31C111.624 171.697 111.477 171.092 111.191 170.549C110.905 170.006 110.489 169.543 109.98 169.2L109.54 168.86L109.92 168.45C110.721 167.696 111.207 166.667 111.28 165.57C111.268 165.041 111.145 164.52 110.919 164.041C110.694 163.562 110.37 163.136 109.97 162.79L109.64 162.46L109.94 162.1C110.752 161.232 111.202 160.088 111.2 158.9C111.116 158.003 110.703 157.17 110.04 156.56L109.73 156.25L110 155.9C110.441 155.378 110.751 154.758 110.904 154.092C111.057 153.425 111.049 152.732 110.88 152.07C110.567 151.066 109.908 150.205 109.02 149.64L108.38 149.2L109.05 148.8C109.513 148.537 109.917 148.181 110.235 147.754C110.554 147.327 110.78 146.839 110.9 146.32C111.27 144.6 110.36 142.86 108.47 141.65L107.74 141.19L108.45 140.76C109.059 140.512 109.588 140.101 109.977 139.571C110.367 139.042 110.604 138.415 110.66 137.76C110.631 136.961 110.41 136.181 110.017 135.485C109.623 134.789 109.069 134.198 108.4 133.76L107.8 133.32L108.44 132.93C109.481 132.34 110.247 131.362 110.57 130.21C110.734 129.48 110.705 128.72 110.485 128.004C110.266 127.289 109.865 126.643 109.32 126.13C108.307 125.214 107.106 124.531 105.8 124.13L105.54 124.04L108.66 125.04C108.66 124.85 110.36 121.1 110.19 121.04C109.06 120.73 108.76 118.11 107.37 117.87L104.76 116.93L87.81 115.71L90.21 115.85C94.02 116.07 97.95 116.36 98.01 116.36C98.1405 116.366 98.2681 116.321 98.3667 116.236C98.4653 116.15 98.5274 116.03 98.54 115.9C98.5483 115.769 98.5047 115.64 98.4186 115.541C98.3326 115.442 98.2109 115.38 98.08 115.37C98.01 115.37 90.94 114.85 86.49 114.66H85.93L86.02 114.1C86.0253 114.05 86.0253 114 86.02 113.95C85.9992 113.818 85.9274 113.7 85.82 113.62C85.7675 113.581 85.7077 113.553 85.6441 113.538C85.5806 113.522 85.5146 113.52 85.45 113.53L84.98 113.59C82.91 113.87 79.78 114.3 78.46 116.07C78.1916 116.439 78.0024 116.86 77.9043 117.305C77.8062 117.751 77.8014 118.212 77.89 118.66C78.0121 119.232 78.2881 119.76 78.6881 120.186C79.0882 120.613 79.5971 120.922 80.16 121.08L81.23 121.53L80.17 122C79.5433 122.258 78.9853 122.659 78.54 123.17C78.2473 123.532 78.033 123.951 77.9108 124.4C77.7886 124.85 77.7611 125.32 77.83 125.78C78.01 127.25 78.83 128.05 80.69 128.55L82.01 128.9L80.78 129.48C79.9027 129.861 79.153 130.486 78.62 131.28C78.2349 131.813 78.0032 132.442 77.9503 133.098C77.8975 133.754 78.0253 134.412 78.32 135C78.8395 135.857 79.6372 136.51 80.58 136.85L81.65 137.3L80.58 137.77C78.71 138.59 77.96 139.83 78.21 141.66C78.42 143.12 79.57 144.11 81.85 144.78L83.51 145.27L81.85 145.74C80.1 146.24 79.13 146.95 78.7 148.03C78.27 149.11 77.78 150.35 78.56 151.57C78.9496 152.133 79.4856 152.579 80.11 152.86L80.92 153.27L80.14 153.74C79.4944 154.106 78.9484 154.624 78.55 155.25C78.3106 155.652 78.1688 156.105 78.1358 156.572C78.1028 157.04 78.1796 157.508 78.36 157.94C78.6347 158.749 79.2166 159.417 79.98 159.8L80.73 160.19L80.03 160.66C79.6191 160.932 79.2757 161.293 79.0261 161.718C78.7765 162.143 78.6274 162.619 78.59 163.11C78.5157 163.603 78.5516 164.106 78.6951 164.583C78.8386 165.06 79.0862 165.5 79.42 165.87C79.889 166.353 80.4595 166.725 81.09 166.96L82.09 167.37L81.14 167.87C80.7258 168.045 80.3531 168.306 80.0464 168.635C79.7397 168.964 79.5058 169.354 79.36 169.78C79.1612 170.33 79.1027 170.92 79.19 171.498C79.2773 172.076 79.5077 172.624 79.86 173.09C80.2052 173.508 80.6345 173.849 81.12 174.09L81.85 174.48L81.17 174.95C80.4329 175.423 79.9083 176.164 79.7068 177.017C79.5054 177.869 79.6428 178.767 80.09 179.52C80.5067 180.201 81.0924 180.762 81.79 181.15L82.46 181.55L81.82 181.99C81.0531 182.51 80.4966 183.287 80.25 184.18C80.0725 184.673 80.0118 185.201 80.0725 185.721C80.1332 186.242 80.3138 186.741 80.6 187.18C81.113 187.851 81.8069 188.361 82.6 188.65L83.5 189.02L82.67 189.53C82.0091 189.93 81.4722 190.505 81.1191 191.192C80.7659 191.879 80.6105 192.65 80.67 193.42C80.7165 194.059 80.9512 194.67 81.3445 195.175C81.7379 195.681 82.2722 196.058 82.88 196.26L83.95 196.62L82.95 197.17C82.4363 197.446 81.9785 197.816 81.6 198.26C81.265 198.675 81.0325 199.162 80.9213 199.683C80.8101 200.205 80.8234 200.745 80.96 201.26C81.26 202.53 81.79 203.21 83.96 203.62L85.35 203.88L84.1 204.55C83.363 204.925 82.7176 205.457 82.21 206.11C81.8635 206.577 81.6231 207.115 81.5056 207.685C81.3882 208.255 81.3965 208.844 81.53 209.41C81.6404 210.036 81.9356 210.614 82.3777 211.07C82.8197 211.526 83.3882 211.84 84.01 211.97L85.21 212.33L84.09 212.9C83.5226 213.145 83.0347 213.543 82.6814 214.05C82.328 214.557 82.1232 215.153 82.09 215.77C82.0364 216.23 82.0847 216.696 82.2316 217.135C82.3785 217.574 82.6204 217.975 82.94 218.31C83.5895 218.945 84.3816 219.415 85.25 219.68L86.56 220.13L85.26 220.62C84.6667 220.78 84.1182 221.074 83.6569 221.479C83.1956 221.885 82.8339 222.392 82.6 222.96C82.4029 223.507 82.3453 224.094 82.4327 224.668C82.52 225.243 82.7494 225.787 83.1 226.25C83.4722 226.732 83.9471 227.125 84.49 227.4L85.3 227.84L84.49 228.28C84.0228 228.502 83.615 228.831 83.3002 229.242C82.9855 229.652 82.7729 230.131 82.68 230.64C82.5569 231.163 82.5597 231.708 82.6884 232.229C82.817 232.751 83.0678 233.234 83.42 233.64C83.7487 234.004 84.1378 234.308 84.57 234.54L85.36 234.98L84.56 235.42C84.1166 235.644 83.7307 235.967 83.4324 236.364C83.134 236.761 82.9314 237.222 82.84 237.71C82.6712 238.257 82.6422 238.837 82.7558 239.398C82.8694 239.959 83.1218 240.482 83.49 240.92C83.8062 241.25 84.1787 241.521 84.59 241.72L85.4 242.13L84.62 242.6C83.9413 242.966 83.411 243.556 83.12 244.27C82.838 244.914 82.7772 245.633 82.9473 246.315C83.1174 246.997 83.5087 247.604 84.06 248.04L84.49 248.4L84.07 248.78C83.5554 249.262 83.1615 249.858 82.92 250.52C82.7181 251.097 82.6509 251.712 82.7237 252.319C82.7965 252.926 83.0073 253.507 83.34 254.02L83.55 254.37L83.24 254.65C82.8913 254.963 82.6207 255.354 82.45 255.79C82.1312 256.83 82.1914 257.95 82.62 258.95L82.73 259.23L82.54 259.46C82.153 259.92 81.8577 260.449 81.67 261.02C81.2956 261.99 81.3208 263.069 81.74 264.02L81.91 264.35L81.65 264.61C81.0112 265.286 80.6536 266.18 80.65 267.11C80.5946 267.804 80.7441 268.5 81.08 269.11L81.31 269.49L80.76 269.92C80.1369 270.48 79.7052 271.221 79.5258 272.039C79.3464 272.857 79.4283 273.711 79.76 274.48L79.99 275.04L79.39 275.16C78.8999 275.252 78.4418 275.469 78.06 275.79C77.314 276.51 76.8675 277.485 76.81 278.52V278.84L76.5 278.94C75.8195 279.141 75.1945 279.496 74.6741 279.978C74.1536 280.461 73.7518 281.057 73.5 281.72L73.41 281.97L73.15 282.03C72.6346 282.129 72.1494 282.347 71.7328 282.667C71.3162 282.986 70.9797 283.398 70.75 283.87L70.64 284.11H70.38C69.5567 284.317 68.7996 284.73 68.18 285.31L68.03 285.46H67.88C67.1894 285.577 66.5315 285.839 65.95 286.23L65.78 286.35H65.57C64.807 286.204 64.0231 286.204 63.26 286.35L63.16 286.4L62.91 286.54L62.63 286.4C61.8749 286.114 61.061 286.018 60.26 286.12H60.11H59.88C59.0148 285.867 58.1325 285.677 57.24 285.55H57.09L56.98 285.45C56.3809 284.998 55.6597 284.737 54.91 284.7H54.73L54.6 284.57C54.2755 284.265 53.8456 284.096 53.4 284.1H53.12L52.98 283.86L53.28 283.41L52.9 283.73C52.6358 283.456 52.2798 283.289 51.9 283.26H51.63L51.52 283.01C51.392 282.71 51.206 282.438 50.9726 282.209C50.7392 281.981 50.4631 281.801 50.16 281.68L49.81 281.53V281.15C49.919 280.504 49.8137 279.84 49.51 279.26C49.2431 278.831 48.8801 278.471 48.4496 278.207C48.0191 277.943 47.5331 277.783 47.03 277.74L46.39 277.63L46.66 277.04C46.9391 276.384 47.059 275.671 47.01 274.96C47.0199 274.47 46.9251 273.984 46.732 273.534C46.5388 273.084 46.2518 272.68 45.89 272.35C44.6914 271.485 43.2368 271.049 41.76 271.11L40.02 271.03L41.53 270.17C42.8202 269.567 43.8748 268.554 44.53 267.29C44.8434 266.634 45.0061 265.917 45.0061 265.19C45.0061 264.463 44.8434 263.746 44.53 263.09C44.1689 262.437 43.6365 261.894 42.99 261.52L42.65 261.3L42.79 260.92C42.8385 260.786 42.8786 260.649 42.91 260.51C43.0221 260.104 43.0453 259.678 42.978 259.262C42.9107 258.847 42.7545 258.45 42.52 258.1C42.3618 257.884 42.1732 257.692 41.96 257.53L41.52 257.19L41.91 256.79C41.9506 256.753 41.9844 256.709 42.01 256.66C42.221 256.222 42.3305 255.741 42.3305 255.255C42.3305 254.769 42.221 254.288 42.01 253.85C41.8547 253.585 41.6551 253.348 41.42 253.15L41 252.78L41.41 252.4C41.4604 252.355 41.5012 252.301 41.53 252.24C41.7465 251.754 41.8533 251.226 41.843 250.693C41.8326 250.161 41.7053 249.638 41.47 249.16C41.2847 248.84 41.0404 248.559 40.75 248.33L40.39 248.04L40.66 247.66C40.9697 247.284 41.1645 246.826 41.2212 246.342C41.278 245.858 41.1942 245.368 40.98 244.93C40.7601 244.493 40.4418 244.113 40.05 243.82L39.64 243.53L39.93 243.12C40.2709 242.696 40.4901 242.187 40.5641 241.648C40.6381 241.109 40.5641 240.56 40.35 240.06C40.2197 239.803 40.0657 239.559 39.89 239.33L39.66 239.04L39.87 238.74C40.1552 238.312 40.3331 237.821 40.3888 237.309C40.4445 236.797 40.3763 236.28 40.19 235.8C40.0213 235.244 39.7071 234.744 39.28 234.35L38.97 234.06L39.2 233.71C39.4682 233.272 39.6344 232.78 39.6864 232.269C39.7383 231.759 39.6746 231.243 39.5 230.76C39.3246 230.146 38.9777 229.594 38.5 229.17L38.13 228.84L38.46 228.47C38.8167 228.047 39.0546 227.538 39.1495 226.993C39.2444 226.448 39.1928 225.888 39 225.37C38.8537 224.831 38.5714 224.339 38.18 223.94L37.88 223.63L38.14 223.29C38.466 222.824 38.6782 222.288 38.7599 221.726C38.8415 221.163 38.7902 220.589 38.61 220.05C38.4257 219.293 37.9969 218.618 37.39 218.13L37.03 217.84L37.3 217.46C37.6051 217 37.8031 216.477 37.8792 215.93C37.9554 215.383 37.9078 214.826 37.74 214.3C37.6263 213.809 37.4086 213.347 37.1016 212.947C36.7945 212.547 36.4053 212.217 35.96 211.98L35.3 211.6L35.91 211.14C36.2259 210.949 36.5004 210.696 36.7173 210.397C36.9341 210.098 37.0891 209.759 37.1729 209.4C37.2568 209.04 37.2679 208.667 37.2055 208.303C37.1432 207.939 37.0088 207.591 36.81 207.28C36.5485 206.825 36.2102 206.419 35.81 206.08L35.38 205.71L35.8 205.33C36.3556 204.844 36.7317 204.185 36.8677 203.46C37.0038 202.734 36.8919 201.984 36.55 201.33C36.337 200.886 36.0258 200.496 35.64 200.19L35.21 199.83L35.61 199.44C36.1728 198.911 36.5512 198.216 36.6898 197.457C36.8284 196.697 36.7198 195.913 36.38 195.22C36.1509 194.73 35.8081 194.301 35.38 193.97L34.99 193.63L35.34 193.25C35.883 192.672 36.2385 191.944 36.3598 191.16C36.4812 190.377 36.3627 189.575 36.02 188.86C35.8159 188.368 35.5051 187.927 35.11 187.57L34.77 187.25L35.06 186.89C35.5049 186.288 35.8049 185.591 35.9367 184.854C36.0686 184.117 36.0286 183.359 35.82 182.64C35.5463 181.943 35.0862 181.334 34.49 180.88L34.06 180.53L34.54 180.07C35.0394 179.427 35.378 178.674 35.5276 177.874C35.6772 177.074 35.6334 176.25 35.4 175.47C35.1846 174.912 34.8422 174.412 34.4 174.01L34.02 173.65L34.5 173.2L34.59 173.11C35.0724 172.466 35.3971 171.718 35.5377 170.926C35.6784 170.134 35.6313 169.32 35.4 168.55C35.1005 167.781 34.5737 167.122 33.89 166.66L33.41 166.31L33.93 165.81C34.431 165.166 34.7705 164.412 34.9201 163.609C35.0697 162.807 35.0251 161.981 34.79 161.2C34.5133 160.479 34.0341 159.854 33.41 159.4L32.88 159L33.41 158.6C33.6158 158.452 33.8067 158.285 33.98 158.1C34.4625 157.456 34.7871 156.708 34.9277 155.916C35.0684 155.124 35.0213 154.31 34.79 153.54C34.5144 152.824 34.0389 152.203 33.42 151.75L32.9 151.35L33.35 151.01" stroke="#1975F1"/>
<path d="M28.42 125.46C26.72 125.05 22.52 124.77 17.57 124.11C9.74004 123.05 -0.509964 121.89 4.23004 89.27C8.02004 63.27 11.92 48.98 16.49 36.81C18.6423 30.7931 22.5596 25.5654 27.73 21.81L33.8 24.81C19.35 32.37 15.35 57.27 11.35 83.13C7.35004 108.99 10.89 112.81 10.89 112.81C10.89 112.81 12.14 115.81 14.22 116.64C16.3 117.47 20.3 117.56 25.64 118.39C30.98 119.22 34.95 120.57 34.39 124.14C34.2148 124.836 33.8833 125.484 33.4207 126.033C32.9581 126.582 32.3765 127.019 31.72 127.31" fill="#F7F9FA"/>
<path d="M28.42 125.46C26.72 125.05 22.52 124.77 17.57 124.11C9.74004 123.05 -0.509964 121.89 4.23004 89.27C8.02004 63.27 11.92 48.98 16.49 36.81C18.6423 30.7931 22.5596 25.5654 27.73 21.81L33.8 24.81C19.35 32.37 15.35 57.27 11.35 83.13C7.35004 108.99 10.89 112.81 10.89 112.81C10.89 112.81 12.14 115.81 14.22 116.64C16.3 117.47 20.3 117.56 25.64 118.39C30.98 119.22 34.95 120.57 34.39 124.14C34.2148 124.836 33.8833 125.484 33.4207 126.033C32.9581 126.582 32.3765 127.019 31.72 127.31" stroke="#1975F1"/>
<path d="M10.89 125.18C15.37 125.56 29.57 127.07 31.64 127.9C34.44 129.03 36.74 132.85 32.16 135.19" fill="#F7F9FA"/>
<path d="M10.89 125.18C15.37 125.56 29.57 127.07 31.64 127.9C34.44 129.03 36.74 132.85 32.16 135.19" stroke="#1975F1"/>
<path d="M14.49 123.68C11.57 123.77 5.96002 124.11 3.99002 125.46C2.32002 126.61 1.99002 130.9 8.55002 131.4C15.49 131.93 23.02 132.4 28.05 133.53" fill="#F7F9FA"/>
<path d="M14.49 123.68C11.57 123.77 5.96002 124.11 3.99002 125.46C2.32002 126.61 1.99002 130.9 8.55002 131.4C15.49 131.93 23.02 132.4 28.05 133.53" stroke="#1975F1"/>
<path d="M9.71996 131.52C9.71996 131.52 3.09996 132.45 2.94996 135.22C2.79996 137.99 3.78996 139.3 7.85996 139.55C11.93 139.8 26.3 140.61 28.86 141.61" fill="#F7F9FA"/>
<path d="M9.71996 131.52C9.71996 131.52 3.09996 132.45 2.94996 135.22C2.79996 137.99 3.78996 139.3 7.85996 139.55C11.93 139.8 26.3 140.61 28.86 141.61" stroke="#1975F1"/>
<path d="M8.31005 139.74C6.31005 140.19 3.05005 141.23 2.94005 143.17C2.78005 145.94 3.78005 147.25 7.85005 147.5C11.92 147.75 26.29 148.56 28.85 149.56" fill="#F7F9FA"/>
<path d="M8.31005 139.74C6.31005 140.19 3.05005 141.23 2.94005 143.17C2.78005 145.94 3.78005 147.25 7.85005 147.5C11.92 147.75 26.29 148.56 28.85 149.56" stroke="#1975F1"/>
<path d="M8.31005 147.59C6.31005 148.04 3.05005 149.08 2.94005 151.02C2.78005 153.79 3.78005 155.1 7.85005 155.35C11.92 155.6 26.29 156.41 28.85 157.41" fill="#F7F9FA"/>
<path d="M8.31005 147.59C6.31005 148.04 3.05005 149.08 2.94005 151.02C2.78005 153.79 3.78005 155.1 7.85005 155.35C11.92 155.6 26.29 156.41 28.85 157.41" stroke="#1975F1"/>
<path d="M8.32994 155.36C6.32994 155.81 3.06994 156.85 2.95994 158.79C2.79994 161.56 3.79994 162.87 7.86994 163.12C11.9399 163.37 26.3099 164.18 28.8699 165.18" fill="#F7F9FA"/>
<path d="M8.32994 155.36C6.32994 155.81 3.06994 156.85 2.95994 158.79C2.79994 161.56 3.79994 162.87 7.86994 163.12C11.9399 163.37 26.3099 164.18 28.8699 165.18" stroke="#1975F1"/>
<path d="M7.43002 163.09C5.62002 163.66 3.62002 164.62 3.54002 166.09C3.38002 168.86 4.38002 170.17 8.45002 170.42C12.52 170.67 26.89 171.52 29.49 172.52" fill="#F7F9FA"/>
<path d="M7.43002 163.09C5.62002 163.66 3.62002 164.62 3.54002 166.09C3.38002 168.86 4.38002 170.17 8.45002 170.42C12.52 170.67 26.89 171.52 29.49 172.52" stroke="#1975F1"/>
<path d="M9.97998 133.52C9.97998 133.52 20.73 134.17 28.86 135.19C36.99 136.21 34.17 141.65 33.61 142.27C33.0271 142.794 32.3742 143.235 31.67 143.58" fill="#F7F9FA"/>
<path d="M9.97998 133.52C9.97998 133.52 20.73 134.17 28.86 135.19C36.99 136.21 34.17 141.65 33.61 142.27C33.0271 142.794 32.3742 143.235 31.67 143.58" stroke="#1975F1"/>
<path d="M9.97998 141.39C9.97998 141.39 20.73 142.04 28.86 143.06C36.99 144.08 34.17 149.52 33.61 150.14C33.29 150.458 32.9303 150.734 32.54 150.96" fill="#F7F9FA"/>
<path d="M9.97998 141.39C9.97998 141.39 20.73 142.04 28.86 143.06C36.99 144.08 34.17 149.52 33.61 150.14C33.29 150.458 32.9303 150.734 32.54 150.96" stroke="#1975F1"/>
<path d="M9.97998 149.02C9.97998 149.02 20.73 149.67 28.86 150.69C36.99 151.71 34.17 157.15 33.61 157.77C33.2751 158.101 32.8986 158.387 32.49 158.62" fill="#F7F9FA"/>
<path d="M9.97998 149.02C9.97998 149.02 20.73 149.67 28.86 150.69C36.99 151.71 34.17 157.15 33.61 157.77C33.2751 158.101 32.8986 158.387 32.49 158.62" stroke="#1975F1"/>
<path d="M9.97998 156.68C9.97998 156.68 20.73 157.33 28.86 158.35C36.99 159.37 34.17 164.81 33.61 165.43C33.31 165.722 32.9739 165.974 32.61 166.18" fill="#F7F9FA"/>
<path d="M9.97998 156.68C9.97998 156.68 20.73 157.33 28.86 158.35C36.99 159.37 34.17 164.81 33.61 165.43C33.31 165.722 32.9739 165.974 32.61 166.18" stroke="#1975F1"/>
<path d="M10.6 164.02C10.6 164.02 21.35 164.67 29.48 165.69C37.61 166.71 34.79 172.15 34.23 172.77C33.9664 173.041 33.6709 173.28 33.35 173.48" fill="#F7F9FA"/>
<path d="M10.6 164.02C10.6 164.02 21.35 164.67 29.48 165.69C37.61 166.71 34.79 172.15 34.23 172.77C33.9664 173.041 33.6709 173.28 33.35 173.48" stroke="#1975F1"/>
<path d="M10.6 170.94C10.6 170.94 21.35 171.59 29.48 172.61C37.61 173.63 34.79 179.07 34.23 179.69C33.9664 179.961 33.6709 180.2 33.35 180.4" fill="#F7F9FA"/>
<path d="M10.6 170.94C10.6 170.94 21.35 171.59 29.48 172.61C37.61 173.63 34.79 179.07 34.23 179.69C33.9664 179.961 33.6709 180.2 33.35 180.4" stroke="#1975F1"/>
<path d="M34.22 187.06C34.3632 186.952 34.4971 186.831 34.62 186.7C35.18 186.08 37.95 180.96 29.87 179.62C22.7868 178.559 15.6483 177.908 8.48998 177.67C4.42998 177.46 3.42998 176.11 3.57998 173.34C3.65998 171.92 5.44998 170.98 7.15998 170.4" fill="#F7F9FA"/>
<path d="M34.22 187.06C34.3632 186.952 34.4971 186.831 34.62 186.7C35.18 186.08 37.95 180.96 29.87 179.62C22.7868 178.559 15.6483 177.908 8.48998 177.67C4.42998 177.46 3.42998 176.11 3.57998 173.34C3.65998 171.92 5.44998 170.98 7.15998 170.4" stroke="#1975F1"/>
<path d="M7.36004 177.52C7.36004 177.52 3.44004 178.73 3.81004 181.35C4.18004 183.97 5.56004 184.56 9.98004 184.77C14.4 184.98 22.61 185.15 27.27 185.77C31.57 186.31 34.68 186.93 35.55 189.1C35.8952 189.816 35.9842 190.628 35.8022 191.402C35.6202 192.176 35.1782 192.863 34.55 193.35" fill="#F7F9FA"/>
<path d="M7.36004 177.52C7.36004 177.52 3.44004 178.73 3.81004 181.35C4.18004 183.97 5.56004 184.56 9.98004 184.77C14.4 184.98 22.61 185.15 27.27 185.77C31.57 186.31 34.68 186.93 35.55 189.1C35.8952 189.816 35.9842 190.628 35.8022 191.402C35.6202 192.176 35.1782 192.863 34.55 193.35" stroke="#1975F1"/>
<path d="M7.68999 184.73C7.68999 184.73 3.76999 185.85 4.13999 188.3C4.50999 190.75 5.88999 191.3 10.31 191.48C14.73 191.66 22.94 191.83 27.6 192.37C31.9 192.87 35.01 193.45 35.88 195.48C36.2305 196.154 36.3223 196.933 36.1381 197.67C35.9539 198.406 35.5064 199.05 34.88 199.48" fill="#F7F9FA"/>
<path d="M7.68999 184.73C7.68999 184.73 3.76999 185.85 4.13999 188.3C4.50999 190.75 5.88999 191.3 10.31 191.48C14.73 191.66 22.94 191.83 27.6 192.37C31.9 192.87 35.01 193.45 35.88 195.48C36.2305 196.154 36.3223 196.933 36.1381 197.67C35.9539 198.406 35.5064 199.05 34.88 199.48" stroke="#1975F1"/>
<path d="M7.86004 191.52C7.86004 191.52 3.94004 192.52 4.31004 194.84C4.68004 197.16 6.06004 197.65 10.48 197.84C14.9 198.03 23.11 198.17 27.77 198.68C32.07 199.15 35.18 199.68 36.05 201.6C36.3837 202.232 36.4661 202.966 36.2806 203.656C36.0951 204.346 35.6555 204.941 35.05 205.32" fill="#F7F9FA"/>
<path d="M7.86004 191.52C7.86004 191.52 3.94004 192.52 4.31004 194.84C4.68004 197.16 6.06004 197.65 10.48 197.84C14.9 198.03 23.11 198.17 27.77 198.68C32.07 199.15 35.18 199.68 36.05 201.6C36.3837 202.232 36.4661 202.966 36.2806 203.656C36.0951 204.346 35.6555 204.941 35.05 205.32" stroke="#1975F1"/>
<path d="M7.96005 197.65C7.96005 197.65 4.28005 198.41 4.61005 201.45C4.84005 203.56 6.36005 204 10.78 204.17C15.2 204.34 22.0401 204.35 27.85 204.65C32.16 204.87 35.0601 205.32 36.35 207.58C36.5194 207.864 36.6281 208.181 36.6693 208.509C36.7104 208.838 36.6832 209.171 36.5893 209.489C36.4954 209.806 36.3368 210.101 36.1235 210.354C35.9103 210.607 35.6469 210.814 35.35 210.96L34.4 211.46" fill="#F7F9FA"/>
<path d="M7.96005 197.65C7.96005 197.65 4.28005 198.41 4.61005 201.45C4.84005 203.56 6.36005 204 10.78 204.17C15.2 204.34 22.0401 204.35 27.85 204.65C32.16 204.87 35.0601 205.32 36.35 207.58C36.5194 207.864 36.6281 208.181 36.6693 208.509C36.7104 208.838 36.6832 209.171 36.5893 209.489C36.4954 209.806 36.3368 210.101 36.1235 210.354C35.9103 210.607 35.6469 210.814 35.35 210.96L34.4 211.46" stroke="#1975F1"/>
<path d="M8.66998 204.04C8.66998 204.04 5.66997 204.8 5.10997 207.15C4.78997 208.43 5.10998 211.01 8.66998 210.96C12.48 210.96 27.4 210.76 31.17 211.27C34.94 211.78 36.73 212.46 37.23 214.46C37.3987 214.951 37.4414 215.477 37.354 215.989C37.2667 216.501 37.0521 216.983 36.73 217.39" fill="#F7F9FA"/>
<path d="M8.66998 204.04C8.66998 204.04 5.66997 204.8 5.10997 207.15C4.78997 208.43 5.10998 211.01 8.66998 210.96C12.48 210.96 27.4 210.76 31.17 211.27C34.94 211.78 36.73 212.46 37.23 214.46C37.3987 214.951 37.4414 215.477 37.354 215.989C37.2667 216.501 37.0521 216.983 36.73 217.39" stroke="#1975F1"/>
<path d="M7.33005 211.13C6.63659 211.636 6.13581 212.362 5.91005 213.19C5.60005 214.47 5.91005 217.05 9.51005 216.97C13.32 216.89 28.24 216.6 32.01 217.08C35.78 217.56 37.58 218.22 38.1 220.21C38.2716 220.7 38.3175 221.224 38.2336 221.736C38.1498 222.248 37.9388 222.731 37.62 223.14" fill="#F7F9FA"/>
<path d="M7.33005 211.13C6.63659 211.636 6.13581 212.362 5.91005 213.19C5.60005 214.47 5.91005 217.05 9.51005 216.97C13.32 216.89 28.24 216.6 32.01 217.08C35.78 217.56 37.58 218.22 38.1 220.21C38.2716 220.7 38.3175 221.224 38.2336 221.736C38.1498 222.248 37.9388 222.731 37.62 223.14" stroke="#1975F1"/>
<path d="M7.54 217.27C6.85688 217.713 6.35085 218.382 6.11 219.16C5.8 220.33 6.11 222.69 9.73 222.61C13.57 222.53 28.58 222.26 32.37 222.69C36.16 223.12 37.97 223.69 38.5 225.55C38.671 225.998 38.7167 226.484 38.6321 226.957C38.5476 227.429 38.3359 227.869 38.02 228.23" fill="#F7F9FA"/>
<path d="M7.54 217.27C6.85688 217.713 6.35085 218.382 6.11 219.16C5.8 220.33 6.11 222.69 9.73 222.61C13.57 222.53 28.58 222.26 32.37 222.69C36.16 223.12 37.97 223.69 38.5 225.55C38.671 225.998 38.7167 226.484 38.6321 226.957C38.5476 227.429 38.3359 227.869 38.02 228.23" stroke="#1975F1"/>
<path d="M7.89003 222.85C7.2084 223.335 6.71693 224.042 6.50003 224.85C6.21003 226.07 6.56003 228.52 10.18 228.38C14.01 228.23 29.02 227.7 32.82 228.09C36.62 228.48 38.44 229.09 39 230.96C39.1807 231.423 39.2361 231.926 39.1606 232.418C39.0851 232.909 38.8814 233.372 38.57 233.76" fill="#F7F9FA"/>
<path d="M7.89003 222.85C7.2084 223.335 6.71693 224.042 6.50003 224.85C6.21003 226.07 6.56003 228.52 10.18 228.38C14.01 228.23 29.02 227.7 32.82 228.09C36.62 228.48 38.44 229.09 39 230.96C39.1807 231.423 39.2361 231.926 39.1606 232.418C39.0851 232.909 38.8814 233.372 38.57 233.76" stroke="#1975F1"/>
<path d="M8.48998 228.52C7.81871 228.982 7.33048 229.665 7.10998 230.45C6.82998 231.63 7.19998 233.99 10.82 233.82C14.65 233.64 29.65 232.97 33.46 233.31C37.27 233.65 39.09 234.2 39.66 236.02C39.8421 236.465 39.9001 236.951 39.8279 237.427C39.7557 237.902 39.556 238.349 39.25 238.72" fill="#F7F9FA"/>
<path d="M8.48998 228.52C7.81871 228.982 7.33048 229.665 7.10998 230.45C6.82998 231.63 7.19998 233.99 10.82 233.82C14.65 233.64 29.65 232.97 33.46 233.31C37.27 233.65 39.09 234.2 39.66 236.02C39.8421 236.465 39.9001 236.951 39.8279 237.427C39.7557 237.902 39.556 238.349 39.25 238.72" stroke="#1975F1"/>
<path d="M9.22994 233.75C9.22994 233.75 7.47994 235.03 7.66994 236.75C7.85994 238.47 8.51994 239.85 11.4799 239.63C11.4799 239.63 18.8599 238.63 28.6699 238.38C38.4799 238.13 39.1299 238.94 39.8699 240.38C40.6099 241.82 39.1699 243.32 39.1699 243.32" fill="#F7F9FA"/>
<path d="M9.22994 233.75C9.22994 233.75 7.47994 235.03 7.66994 236.75C7.85994 238.47 8.51994 239.85 11.4799 239.63C11.4799 239.63 18.8599 238.63 28.6699 238.38C38.4799 238.13 39.1299 238.94 39.8699 240.38C40.6099 241.82 39.1699 243.32 39.1699 243.32" stroke="#1975F1"/>
<path d="M9.07004 239.92C8.80693 240.18 8.60217 240.492 8.46939 240.837C8.33662 241.182 8.27888 241.551 8.30004 241.92C8.49004 243.46 9.15004 244.74 12.11 244.54C12.11 244.54 19.48 243.63 29.3 243.4C39.12 243.17 39.76 243.91 40.5 245.22C41.24 246.53 39.8 247.9 39.8 247.9" fill="#F7F9FA"/>
<path d="M9.07004 239.92C8.80693 240.18 8.60217 240.492 8.46939 240.837C8.33662 241.182 8.27888 241.551 8.30004 241.92C8.49004 243.46 9.15004 244.74 12.11 244.54C12.11 244.54 19.48 243.63 29.3 243.4C39.12 243.17 39.76 243.91 40.5 245.22C41.24 246.53 39.8 247.9 39.8 247.9" stroke="#1975F1"/>
<path d="M9.97995 244.84C9.97995 244.84 6.85995 248.59 10.92 250.22C14.98 249.47 32.17 247.22 37.98 247.91C42.67 248.47 41.04 252.1 41.04 252.1" fill="#F7F9FA"/>
<path d="M9.97995 244.84C9.97995 244.84 6.85995 248.59 10.92 250.22C14.98 249.47 32.17 247.22 37.98 247.91C42.67 248.47 41.04 252.1 41.04 252.1" stroke="#1975F1"/>
<path d="M10.4299 250.09C10.4299 250.09 7.33994 253.59 11.4299 255.09C15.4899 254.36 32.6499 252.09 38.4299 252.69C43.1199 253.16 41.5299 256.53 41.5299 256.53" fill="#F7F9FA"/>
<path d="M10.4299 250.09C10.4299 250.09 7.33994 253.59 11.4299 255.09C15.4899 254.36 32.6499 252.09 38.4299 252.69C43.1199 253.16 41.5299 256.53 41.5299 256.53" stroke="#1975F1"/>
<path d="M10.7 255.15C10.02 256.2 9.05003 258.45 12.11 259.54C16.17 258.81 33.33 256.54 39.11 257.14C42.63 257.5 42.61 259.48 42.39 260.45C42.3467 260.632 42.2864 260.809 42.21 260.98" fill="#F7F9FA"/>
<path d="M10.7 255.15C10.02 256.2 9.05003 258.45 12.11 259.54C16.17 258.81 33.33 256.54 39.11 257.14C42.63 257.5 42.61 259.48 42.39 260.45C42.3467 260.632 42.2864 260.809 42.21 260.98" stroke="#1975F1"/>
<path d="M11.17 259.52C10.48 260.58 9.49998 262.83 12.66 263.9C16.83 263.12 34.51 260.36 40.47 261.19C44.98 261.82 44.77 265.62 44.04 267.07C43.15 268.83 41.86 269.63 37.17 271.7" fill="#F7F9FA"/>
<path d="M11.17 259.52C10.48 260.58 9.49998 262.83 12.66 263.9C16.83 263.12 34.51 260.36 40.47 261.19C44.98 261.82 44.77 265.62 44.04 267.07C43.15 268.83 41.86 269.63 37.17 271.7" stroke="#1975F1"/>
<path d="M12.66 263.93C12.66 263.93 10.23 267.56 13.66 268.74C16.33 269.66 22.35 268.34 28.74 267.41C32.197 266.917 35.6891 266.713 39.18 266.8" fill="#F7F9FA"/>
<path d="M12.66 263.93C12.66 263.93 10.23 267.56 13.66 268.74C16.33 269.66 22.35 268.34 28.74 267.41C32.197 266.917 35.6891 266.713 39.18 266.8" stroke="#1975F1"/>
<path d="M30.77 267.14C30.77 267.14 21.71 270.66 17.4 273.23C13.98 275.23 12.86 278.96 16.32 280.31C19.32 281.49 28.15 279.48 33.82 278.56C39.49 277.64 41.32 277.56 41.32 277.56" fill="#F7F9FA"/>
<path d="M30.77 267.14C30.77 267.14 21.71 270.66 17.4 273.23C13.98 275.23 12.86 278.96 16.32 280.31C19.32 281.49 28.15 279.48 33.82 278.56C39.49 277.64 41.32 277.56 41.32 277.56" stroke="#1975F1"/>
<path d="M22.49 274.01C22.49 274.01 32.41 272.27 38.66 271.71C44.91 271.15 46.4 272.71 46.49 274.98C46.58 277.25 45.41 277.73 45.41 277.73" fill="#F7F9FA"/>
<path d="M22.49 274.01C22.49 274.01 32.41 272.27 38.66 271.71C44.91 271.15 46.4 272.71 46.49 274.98C46.58 277.25 45.41 277.73 45.41 277.73" stroke="#1975F1"/>
<path d="M29.8 279.25C27.4031 281.194 24.801 282.871 22.04 284.25C15.98 287.25 16.92 292.25 21.19 292.25C24.82 292.25 38.26 287.08 38.26 287.08" fill="#F7F9FA"/>
<path d="M29.8 279.25C27.4031 281.194 24.801 282.871 22.04 284.25C15.98 287.25 16.92 292.25 21.19 292.25C24.82 292.25 38.26 287.08 38.26 287.08" stroke="#1975F1"/>
<path d="M28.92 294.09C30.8 292.9 37.11 288.72 40.08 286.59C43.05 284.46 47.96 281.59 49.08 281.95C49.2724 281.568 49.3662 281.145 49.3529 280.718C49.3396 280.291 49.2197 279.874 49.0039 279.505C48.7882 279.136 48.4836 278.827 48.1178 278.606C47.7521 278.385 47.3369 278.259 46.91 278.24C43.41 277.66 38.99 280.24 33.85 282.07L25.51 285.07" fill="#F7F9FA"/>
<path d="M28.92 294.09C30.8 292.9 37.11 288.72 40.08 286.59C43.05 284.46 47.96 281.59 49.08 281.95C49.2724 281.568 49.3662 281.145 49.3529 280.718C49.3396 280.291 49.2197 279.874 49.0039 279.505C48.7882 279.136 48.4836 278.827 48.1178 278.606C47.7521 278.385 47.3369 278.259 46.91 278.24C43.41 277.66 38.99 280.24 33.85 282.07L25.51 285.07" stroke="#1975F1"/>
<path d="M49.06 281.94C49.5702 281.946 50.0617 282.134 50.4464 282.469C50.8311 282.804 51.084 283.265 51.16 283.77C42.9599 291.07 36.38 297.31 32.31 299.4C27.84 301.68 25.64 301.23 24.5 300.15C23.36 299.07 23.5 297.15 25.07 295.07C26.6701 293.217 28.4157 291.495 30.29 289.92" fill="#F7F9FA"/>
<path d="M49.06 281.94C49.5702 281.946 50.0617 282.134 50.4464 282.469C50.8311 282.804 51.084 283.265 51.16 283.77C42.96 291.07 36.38 297.31 32.31 299.4C27.84 301.68 25.64 301.23 24.5 300.15C23.36 299.07 23.5 297.15 25.07 295.07C26.6701 293.217 28.4157 291.495 30.29 289.92" stroke="#1975F1"/>
<path d="M51.17 283.77C51.17 283.77 52.8 283.65 52.55 284.58C49.93 289.58 43.8 299.39 39.61 304.33C35.42 309.27 32.51 309.9 30.86 307.39C29.42 305.2 32.32 299.39 32.32 299.39" fill="#F7F9FA"/>
<path d="M51.17 283.77C51.17 283.77 52.8 283.65 52.55 284.58C49.93 289.58 43.8 299.39 39.61 304.33C35.42 309.27 32.51 309.9 30.86 307.39C29.42 305.2 32.32 299.39 32.32 299.39" stroke="#1975F1"/>
<path d="M41.12 292.73C38.48 295.52 35.54 299.18 34.12 301.04L41.12 292.73Z" fill="#F7F9FA"/>
<path d="M41.12 292.73C38.48 295.52 35.54 299.18 34.12 301.04" stroke="#1975F1"/>
<path d="M52.57 284.77C52.57 284.77 53.8999 284.27 54.3999 285.23C52.8199 291.15 49.6899 302.4 46.7299 307.23C43.7699 312.06 41.5099 314.15 39.1699 312.81C36.3899 311.23 37.9399 308.23 39.1699 304.81" fill="#F7F9FA"/>
<path d="M52.57 284.77C52.57 284.77 53.8999 284.27 54.3999 285.23C52.8199 291.15 49.6899 302.4 46.7299 307.23C43.7699 312.06 41.5099 314.15 39.1699 312.81C36.3899 311.23 37.9399 308.23 39.1699 304.81" stroke="#1975F1"/>
<path d="M54.39 285.23C54.39 285.23 56.25 285.23 56.78 286.12C56.37 290.28 55.15 299 53.69 307.18C53.15 310.18 51.91 314.43 49.78 315.52C47.96 316.46 43.92 315.77 44.85 310.21" fill="#F7F9FA"/>
<path d="M54.39 285.23C54.39 285.23 56.25 285.23 56.78 286.12C56.37 290.28 55.15 299 53.69 307.18C53.15 310.18 51.91 314.43 49.78 315.52C47.96 316.46 43.92 315.77 44.85 310.21" stroke="#1975F1"/>
<path d="M57.0199 286.12C57.9154 286.249 58.8008 286.439 59.6699 286.69C59.6699 286.69 60.0299 292.91 59.6699 299.69C59.3299 306.17 58.7199 311.95 57.8499 314.22C56.7799 316.98 53.7599 318.5 51.5699 314.66" fill="#F7F9FA"/>
<path d="M57.0199 286.12C57.9154 286.249 58.8008 286.439 59.6699 286.69C59.6699 286.69 60.0299 292.91 59.6699 299.69C59.3299 306.17 58.7199 311.95 57.8499 314.22C56.7799 316.98 53.7599 318.5 51.5699 314.66" stroke="#1975F1"/>
<path d="M60.2299 286.69C60.9303 286.622 61.6374 286.693 62.3099 286.9C62.8499 287.22 63.5699 293.51 63.9499 299.24C64.3299 304.97 64.6099 312.62 62.3099 316.35C61.2099 318.13 58.5399 318.83 57.4399 316.35" fill="#F7F9FA"/>
<path d="M60.2299 286.69C60.9303 286.622 61.6374 286.693 62.3099 286.9C62.8499 287.22 63.5699 293.51 63.9499 299.24C64.3299 304.97 64.6099 312.62 62.3099 316.35C61.2099 318.13 58.5399 318.83 57.4399 316.35" stroke="#1975F1"/>
<path d="M63.31 286.9C64.0135 286.765 64.7364 286.765 65.44 286.9C66.9785 292.642 67.9828 298.513 68.44 304.44C68.86 309.69 68.96 316.27 66.34 317.66C65.9956 317.845 65.6178 317.959 65.2287 317.995C64.8397 318.032 64.4472 317.99 64.0745 317.873C63.7018 317.755 63.3563 317.565 63.0584 317.312C62.7606 317.059 62.5163 316.749 62.34 316.4" fill="#F7F9FA"/>
<path d="M63.31 286.9C64.0135 286.765 64.7364 286.765 65.44 286.9C66.9785 292.642 67.9828 298.513 68.44 304.44C68.86 309.69 68.96 316.27 66.34 317.66C65.9956 317.845 65.6178 317.959 65.2287 317.995C64.8397 318.032 64.4472 317.99 64.0745 317.873C63.7018 317.755 63.3563 317.565 63.0584 317.312C62.7606 317.059 62.5163 316.749 62.34 316.4" stroke="#1975F1"/>
<path d="M65.9 286.91C66.5504 286.349 67.3562 286.001 68.21 285.91C70.7031 292.085 72.7386 298.436 74.3 304.91C75.24 309.6 76.3 315.72 72.3 316.29C68.3 316.86 68.49 312.58 68.49 312.58" fill="#F7F9FA"/>
<path d="M65.9 286.91C66.5504 286.349 67.3562 286.001 68.21 285.91C70.7031 292.085 72.7386 298.436 74.3 304.91C75.24 309.6 76.3 315.72 72.3 316.29C68.3 316.86 68.49 312.58 68.49 312.58" stroke="#1975F1"/>
<path d="M68.42 285.74C68.42 285.74 69.97 284.33 70.97 284.65C72.41 287.09 77.35 296.03 78.78 299.28C80.21 302.53 82.47 307.72 82.28 310.41C82.09 313.1 79.78 314.97 76.84 313.22C76.3737 312.924 75.9786 312.528 75.683 312.061C75.3874 311.595 75.1986 311.068 75.13 310.52" fill="#F7F9FA"/>
<path d="M68.42 285.74C68.42 285.74 69.97 284.33 70.97 284.65C72.41 287.09 77.35 296.03 78.78 299.28C80.21 302.53 82.47 307.72 82.28 310.41C82.09 313.1 79.78 314.97 76.84 313.22C76.3737 312.924 75.9786 312.528 75.683 312.061C75.3874 311.595 75.1986 311.068 75.13 310.52" stroke="#1975F1"/>
<path d="M71.0599 284.27C71.2976 283.681 71.7161 283.182 72.2552 282.846C72.7944 282.51 73.4263 282.354 74.0599 282.4C75.6399 284.32 78.6899 287.4 81.6299 291.49C84.3899 295.34 87.0599 298.93 88.8099 303.31C90.5599 307.69 89.2299 309.02 88.1399 309.73C87.0499 310.44 83.8699 311.12 81.6499 306.44" fill="#F7F9FA"/>
<path d="M71.0599 284.27C71.2976 283.681 71.7161 283.182 72.2552 282.846C72.7944 282.51 73.4263 282.354 74.0599 282.4C75.6399 284.32 78.6899 287.4 81.6299 291.49C84.3899 295.34 87.0599 298.93 88.8099 303.31C90.5599 307.69 89.2299 309.02 88.1399 309.73C87.0499 310.44 83.8699 311.12 81.6499 306.44" stroke="#1975F1"/>
<path d="M73.77 282.4C73.962 281.579 74.3999 280.835 75.0252 280.269C75.6505 279.702 76.4336 279.34 77.27 279.23C81.5833 282.586 85.5467 286.368 89.1 290.52C95.73 297.94 97.64 301.06 95.39 303.31C93.14 305.56 90.18 304.06 87.81 301.12" fill="#F7F9FA"/>
<path d="M73.77 282.4C73.962 281.579 74.3999 280.835 75.0252 280.269C75.6505 279.702 76.4336 279.34 77.27 279.23C81.5833 282.586 85.5467 286.368 89.1 290.52C95.73 297.94 97.64 301.06 95.39 303.31C93.14 305.56 90.18 304.06 87.81 301.12" stroke="#1975F1"/>
<path d="M77.27 279.23C77.27 279.23 77.08 274.86 81.06 275.69C85.04 276.52 91.17 280.91 96.84 286.69C101.94 291.86 102.69 295 100.84 296.69C98.99 298.38 95.49 297.8 91.16 292.96" fill="#F7F9FA"/>
<path d="M77.27 279.23C77.27 279.23 77.08 274.86 81.06 275.69C85.04 276.52 91.17 280.91 96.84 286.69C101.94 291.86 102.69 295 100.84 296.69C98.99 298.38 95.49 297.8 91.16 292.96" stroke="#1975F1"/>
<path d="M80.33 274.52C79.9682 273.833 79.8436 273.046 79.9756 272.281C80.1076 271.516 80.4889 270.816 81.06 270.29C82.67 268.91 85.64 268.85 96.29 272.36C99.3252 273.313 102.2 274.715 104.82 276.52" fill="#F7F9FA"/>
<path d="M80.33 274.52C79.9682 273.833 79.8436 273.046 79.9756 272.281C80.1076 271.516 80.4889 270.816 81.06 270.29C82.67 268.91 85.64 268.85 96.29 272.36C99.3252 273.313 102.2 274.715 104.82 276.52" stroke="#1975F1"/>
<path d="M99.31 288.73C99.31 288.73 104.6 289.81 106.14 288.02C107.68 286.23 108.35 284.15 103.04 279.71C98.11 275.6 90.97 271.09 83.96 269.41" fill="#F7F9FA"/>
<path d="M99.31 288.73C99.31 288.73 104.6 289.81 106.14 288.02C107.68 286.23 108.35 284.15 103.04 279.71C98.11 275.6 90.97 271.09 83.96 269.41" stroke="#1975F1"/>
<path d="M99.66 285.22C97.01 282.81 90.24 278.1 80.66 274.52L99.66 285.22Z" fill="#F7F9FA"/>
<path d="M99.66 285.22C97.01 282.81 90.24 278.1 80.66 274.52" stroke="#1975F1"/>
<path d="M103.66 279.71C105.05 279.71 107.55 279.65 108.76 278.77C110.48 277.52 112.76 273.77 106.95 270.43C101.14 267.09 90.62 263.62 83.4 264.31C80.55 264.58 80.7 269.07 82.07 269.31" fill="#F7F9FA"/>
<path d="M103.66 279.71C105.05 279.71 107.55 279.65 108.76 278.77C110.48 277.52 112.76 273.77 106.95 270.43C101.14 267.09 90.62 263.62 83.4 264.31C80.55 264.58 80.7 269.07 82.07 269.31" stroke="#1975F1"/>
<path d="M107.8 270.96C113.41 271.23 112.95 266.62 111.4 265.07C109.48 263.15 105.4 261.26 97.57 259.43C93.187 258.479 88.6698 258.317 84.2299 258.95C82.3899 259.22 81.1199 262.81 82.4899 264.22" fill="#F7F9FA"/>
<path d="M107.8 270.96C113.41 271.23 112.95 266.62 111.4 265.07C109.48 263.15 105.4 261.26 97.57 259.43C93.187 258.479 88.6698 258.317 84.2299 258.95C82.3899 259.22 81.1199 262.81 82.4899 264.22" stroke="#1975F1"/>
<path d="M83.2901 259.21C83.2901 259.21 81.4201 255.62 84.6301 254.4C88.5701 252.91 94.2901 253.02 101.76 254.34C110.51 255.89 113.91 258.53 113.54 261.4C113.48 262.167 113.142 262.886 112.59 263.422C112.038 263.958 111.309 264.273 110.54 264.31" fill="#F7F9FA"/>
<path d="M83.2901 259.21C83.2901 259.21 81.4201 255.62 84.6301 254.4C88.5701 252.91 94.2901 253.02 101.76 254.34C110.51 255.89 113.91 258.53 113.54 261.4C113.48 262.167 113.142 262.886 112.59 263.422C112.038 263.958 111.309 264.273 110.54 264.31" stroke="#1975F1"/>
<path d="M112.41 258.26C112.41 258.26 114.64 255.98 113.86 253.77C113.08 251.56 110.8 249.68 103.42 248.4C96.04 247.12 90.79 247.24 87.36 247.78C84.14 248.28 81.65 251.45 84.36 254.54" fill="#F7F9FA"/>
<path d="M112.41 258.26C112.41 258.26 114.64 255.98 113.86 253.77C113.08 251.56 110.8 249.68 103.42 248.4C96.04 247.12 90.79 247.24 87.36 247.78C84.14 248.28 81.65 251.45 84.36 254.54" stroke="#1975F1"/>
<path d="M84.98 248.02C84.3461 247.702 83.8551 247.157 83.605 246.494C83.3548 245.831 83.3637 245.097 83.63 244.44C84.8 241.32 92.63 241.36 99.43 242.04C107.25 242.82 111.56 244.04 113.68 246.94C113.93 247.29 114.106 247.688 114.196 248.11C114.286 248.531 114.288 248.966 114.203 249.388C114.117 249.81 113.946 250.21 113.7 250.563C113.453 250.916 113.137 251.214 112.77 251.44" fill="#F7F9FA"/>
<path d="M84.98 248.02C84.3461 247.702 83.8551 247.157 83.605 246.494C83.3548 245.831 83.3637 245.097 83.63 244.44C84.8 241.32 92.63 241.36 99.43 242.04C107.25 242.82 111.56 244.04 113.68 246.94C113.93 247.29 114.106 247.688 114.196 248.11C114.286 248.531 114.288 248.966 114.203 249.388C114.117 249.81 113.946 250.21 113.7 250.563C113.453 250.916 113.137 251.214 112.77 251.44" stroke="#1975F1"/>
<path d="M89.35 241.78C86.02 242.21 82.56 241.26 83.35 237.78C84.01 234.72 88.61 234.44 98.52 235.11C106.13 235.63 111.03 237.05 113.32 239.53C114.55 240.86 114.95 244.28 111.7 244.78" fill="#F7F9FA"/>
<path d="M89.35 241.78C86.02 242.21 82.56 241.26 83.35 237.78C84.01 234.72 88.61 234.44 98.52 235.11C106.13 235.63 111.03 237.05 113.32 239.53C114.55 240.86 114.95 244.28 111.7 244.78" stroke="#1975F1"/>
<path d="M111.56 237.52C111.56 237.52 114.03 236.52 114.02 234.31C114.01 232.1 113.35 228.97 100.51 227.83C85.2299 226.48 83.5099 228.89 83.1399 230.7C82.6099 233.22 84.9199 235.14 89.3899 234.81" fill="#F7F9FA"/>
<path d="M111.56 237.52C111.56 237.52 114.03 236.52 114.02 234.31C114.01 232.1 113.35 228.97 100.51 227.83C85.2299 226.48 83.5099 228.89 83.1399 230.7C82.6099 233.22 84.9199 235.14 89.3899 234.81" stroke="#1975F1"/>
<path d="M111.08 229.97C111.08 229.97 113.54 228.82 113.85 226.59C114.16 224.36 113.17 220.95 99.85 220.28C87.05 219.64 83.85 221.28 83.18 223.19C82.39 225.64 84.27 227.9 88.68 227.69" fill="#F7F9FA"/>
<path d="M111.08 229.97C111.08 229.97 113.54 228.82 113.85 226.59C114.16 224.36 113.17 220.95 99.85 220.28C87.05 219.64 83.85 221.28 83.18 223.19C82.39 225.64 84.27 227.9 88.68 227.69" stroke="#1975F1"/>
<path d="M94.0899 220.12C85.6299 220.33 82.3899 218.73 82.6399 215.9C82.8599 213.43 85.1399 212.69 89.9699 212.36C95.2599 212 103.89 212.61 108.05 213.69C112.21 214.77 116.5 217.99 111.97 222.23" fill="#F7F9FA"/>
<path d="M94.0899 220.12C85.6299 220.33 82.3899 218.73 82.6399 215.9C82.8599 213.43 85.1399 212.69 89.9699 212.36C95.2599 212 103.89 212.61 108.05 213.69C112.21 214.77 116.5 217.99 111.97 222.23" stroke="#1975F1"/>
<path d="M89.94 203.7C83.41 204.24 81.49 206.79 82.06 209.4C82.82 212.94 87.69 211.69 94.23 211.94C100.77 212.19 106.23 212.19 109.86 213.94" fill="#F7F9FA"/>
<path d="M89.94 203.7C83.41 204.24 81.49 206.79 82.06 209.4C82.82 212.94 87.69 211.69 94.23 211.94C100.77 212.19 106.23 212.19 109.86 213.94" stroke="#1975F1"/>
<path d="M111.24 214.98C111.24 214.98 114.85 212.77 112.97 209.43C111.7 207.17 109.38 206.02 95.06 205.23C92.84 205.11 89.29 205.31 86.16 205.23" fill="#F7F9FA"/>
<path d="M111.24 214.98C111.24 214.98 114.85 212.77 112.97 209.43C111.7 207.17 109.38 206.02 95.06 205.23C92.84 205.11 89.29 205.31 86.16 205.23" stroke="#1975F1"/>
<path d="M109.85 206.79C111.6 206.02 113.62 204.25 112.77 202.11C112.02 200.21 109.85 198.11 102.1 197.78C94.35 197.45 86.42 197.52 86.42 197.52" fill="#F7F9FA"/>
<path d="M109.85 206.79C111.6 206.02 113.62 204.25 112.77 202.11C112.02 200.21 109.85 198.11 102.1 197.78C94.35 197.45 86.42 197.52 86.42 197.52" stroke="#1975F1"/>
<path d="M106.73 206.02C106.73 206.02 108.73 204.25 96.1 203.9C83.85 203.52 81.97 203.52 81.49 201.24C80.67 197.72 85.11 196.32 90.07 196.48" fill="#F7F9FA"/>
<path d="M106.73 206.02C106.73 206.02 108.73 204.25 96.1 203.9C83.85 203.52 81.97 203.52 81.49 201.24C80.67 197.72 85.11 196.32 90.07 196.48" stroke="#1975F1"/>
<path d="M105.76 198.11C105.76 198.11 108.76 197.27 102.76 196.92C96.76 196.57 85.99 196.42 83.43 195.92C80.43 195.39 80.18 190.99 83.63 189.61C86.2079 188.767 88.9239 188.427 91.63 188.61" fill="#F7F9FA"/>
<path d="M105.76 198.11C105.76 198.11 108.76 197.27 102.76 196.92C96.76 196.57 85.99 196.42 83.43 195.92C80.43 195.39 80.18 190.99 83.63 189.61C86.2079 188.767 88.9239 188.427 91.63 188.61" stroke="#1975F1"/>
<path d="M109.62 199.11C111 198.44 112.62 196.81 112.49 195.11C112.36 193.41 111 190.66 102.82 190.04C95.82 189.51 87.47 189.6 87.47 189.6" fill="#F7F9FA"/>
<path d="M109.62 199.11C111 198.44 112.62 196.81 112.49 195.11C112.36 193.41 111 190.66 102.82 190.04C95.82 189.51 87.47 189.6 87.47 189.6" stroke="#1975F1"/>
<path d="M108.71 191.03C110.54 190.62 112.71 189.36 112.1 186.73C111.57 184.57 109.32 182.87 102.32 182.5C95.32 182.13 91.6 182.06 86.41 182.09" fill="#F7F9FA"/>
<path d="M108.71 191.03C110.54 190.62 112.71 189.36 112.1 186.73C111.57 184.57 109.32 182.87 102.32 182.5C95.32 182.13 91.6 182.06 86.41 182.09" stroke="#1975F1"/>
<path d="M86.65 189.01C82.35 188.75 79.84 187.29 80.73 184.34C81.5 181.78 84.29 181 90.92 181.23C90.92 181.23 103.77 181.68 106.53 182.97" fill="#F7F9FA"/>
<path d="M86.65 189.01C82.35 188.75 79.84 187.29 80.73 184.34C81.5 181.78 84.29 181 90.92 181.23C90.92 181.23 103.77 181.68 106.53 182.97" stroke="#1975F1"/>
<path d="M107.43 190.67C107.43 190.67 101.6 188.15 84.6 188.67L107.43 190.67Z" fill="#F7F9FA"/>
<path d="M107.43 190.67C107.43 190.67 101.6 188.15 84.6 188.67" stroke="#1975F1"/>
<path d="M84.01 181.52C84.01 181.52 79.26 180.4 80.33 176.99C81.18 174.28 85.79 174.18 89.33 173.87" fill="#F7F9FA"/>
<path d="M84.01 181.52C84.01 181.52 79.26 180.4 80.33 176.99C81.18 174.28 85.79 174.18 89.33 173.87" stroke="#1975F1"/>
<path d="M90.92 174.43C98.3 174.34 105.92 175.02 108.92 176.43C114.59 179.05 110.98 183.87 108.92 183.66" fill="#F7F9FA"/>
<path d="M90.92 174.43C98.3 174.34 105.92 175.02 108.92 176.43C114.59 179.05 110.98 183.87 108.92 183.66" stroke="#1975F1"/>
<path d="M84.6 174.38C81.14 174.6 79.08 172.65 79.9 170.07C80.72 167.49 86.98 166.32 100.03 167.24C108.82 167.86 111.18 169.91 111.17 172.38C111.17 173.96 109.96 174.81 107.37 175.86" fill="#F7F9FA"/>
<path d="M84.6 174.38C81.14 174.6 79.08 172.65 79.9 170.07C80.72 167.49 86.98 166.32 100.03 167.24C108.82 167.86 111.18 169.91 111.17 172.38C111.17 173.96 109.96 174.81 107.37 175.86" stroke="#1975F1"/>
<path d="M105.31 175.38C105.31 175.38 103.67 172.9 83.42 174.18L105.31 175.38Z" fill="#F7F9FA"/>
<path d="M105.31 175.38C105.31 175.38 103.67 172.9 83.42 174.18" stroke="#1975F1"/>
<path d="M105.02 124.02C94.23 121.02 79.19 123.4 78.44 118.71C77.84 114.98 82.91 113.95 85.57 114.4C88.57 114.91 91.32 115.4 96.47 115.86C104.93 116.61 107.36 117.49 109.11 119.27C110.86 121.05 111.23 124.02 107.45 125.15" fill="#F7F9FA"/>
<path d="M105.02 124.02C94.23 121.02 79.19 123.4 78.44 118.71C77.84 114.98 82.91 113.95 85.57 114.4C88.57 114.91 91.32 115.4 96.47 115.86C104.93 116.61 107.36 117.49 109.11 119.27C110.86 121.05 111.23 124.02 107.45 125.15" stroke="#1975F1"/>
<path d="M83.5499 121.89C80.0599 122.14 78.1099 123.5 78.3899 125.89C78.9399 130.39 87.8499 127.39 105.56 131.72" fill="#F7F9FA"/>
<path d="M83.5499 121.89C80.0599 122.14 78.1099 123.5 78.3899 125.89C78.9399 130.39 87.8499 127.39 105.56 131.72" stroke="#1975F1"/>
<path d="M83.55 121.89C98.06 122.44 106.48 124.02 108.98 126.6C111.22 128.92 110.35 132.14 106.77 133.27" fill="#F7F9FA"/>
<path d="M83.55 121.89C98.06 122.44 106.48 124.02 108.98 126.6C111.22 128.92 110.35 132.14 106.77 133.27" stroke="#1975F1"/>
<path d="M84.6 130.65C96.35 131.48 103.34 132.31 106.73 133.53C110.12 134.75 112.73 139.66 106.15 141.14" fill="#F7F9FA"/>
<path d="M84.6 130.65C96.35 131.48 103.34 132.31 106.73 133.53C110.12 134.75 112.73 139.66 106.15 141.14" stroke="#1975F1"/>
<path d="M84.6 129.27C84.6 129.27 80.6 129.27 79.1 131.69C77.65 133.96 78.39 137.27 85.6 137.32C93.31 137.32 100.39 138.03 104.18 139.32" fill="#F7F9FA"/>
<path d="M84.6 129.27C84.6 129.27 80.6 129.27 79.1 131.69C77.65 133.96 78.39 137.27 85.6 137.32C93.31 137.32 100.39 138.03 104.18 139.32" stroke="#1975F1"/>
<path d="M84.35 137.52C81.06 138.06 78.35 138.82 78.77 141.77C79.48 146.77 94.77 144.69 105.02 147.56" fill="#F7F9FA"/>
<path d="M84.35 137.52C81.06 138.06 78.35 138.82 78.77 141.77C79.48 146.77 94.77 144.69 105.02 147.56" stroke="#1975F1"/>
<path d="M85.5599 138.77C90.4799 139.06 104.43 139.77 108.23 142.15C112.03 144.53 110.68 148.53 107.23 149.02" fill="#F7F9FA"/>
<path d="M85.5599 138.77C90.4799 139.06 104.43 139.77 108.23 142.15C112.03 144.53 110.68 148.53 107.23 149.02" stroke="#1975F1"/>
<path d="M88.04 145.4C83.9 145.94 80.11 146.15 79.23 148.4C78.35 150.65 78.73 153.46 85.88 153.73C96.02 154.12 105.31 154.19 109.06 156.36C111.44 154.19 111.64 149.94 104.81 148.74C98.5879 147.801 92.3114 147.266 86.02 147.14" fill="#F7F9FA"/>
<path d="M88.04 145.4C83.9 145.94 80.11 146.15 79.23 148.4C78.35 150.65 78.73 153.46 85.88 153.73C96.02 154.12 105.31 154.19 109.06 156.36C111.44 154.19 111.64 149.94 104.81 148.74C98.5879 147.801 92.3114 147.266 86.02 147.14" stroke="#1975F1"/>
<path d="M83.1099 153.41C80.3999 153.77 77.9799 155.56 78.8999 157.9C79.8199 160.24 82.0399 160.34 94.3599 160.59C106.68 160.84 108.9 162.59 108.9 162.59C108.9 162.59 113.3 159 108.54 156.09" fill="#F7F9FA"/>
<path d="M83.1099 153.41C80.3999 153.77 77.9799 155.56 78.8999 157.9C79.8199 160.24 82.0399 160.34 94.3599 160.59C106.68 160.84 108.9 162.59 108.9 162.59C108.9 162.59 113.3 159 108.54 156.09" stroke="#1975F1"/>
<path d="M85.88 167.3C82.35 167.4 78.78 166.47 79.15 163.3C79.47 160.56 82.4 160.45 83.78 160.3" fill="#F7F9FA"/>
<path d="M85.88 167.3C82.35 167.4 78.78 166.47 79.15 163.3C79.47 160.56 82.4 160.45 83.78 160.3" stroke="#1975F1"/>
<path d="M108.68 169C108.68 169 113.35 165.82 108.9 162.57L108.68 169Z" fill="#F7F9FA"/>
<path d="M108.68 169C108.68 169 113.35 165.82 108.9 162.57" stroke="#1975F1"/>
<path d="M81.06 63.36V14.27C81.06 13.2092 80.6386 12.1917 79.8884 11.4416C79.1383 10.6914 78.1208 10.27 77.06 10.27H30.73C29.6691 10.27 28.6517 10.6914 27.9016 11.4416C27.1514 12.1917 26.73 13.2092 26.73 14.27V63.36H81.06Z" fill="#F7F9FA" stroke="#1975F1"/>
<path d="M81.06 63.36V32.12C81.06 31.0592 80.6386 30.0417 79.8884 29.2916C79.1383 28.5415 78.1208 28.12 77.06 28.12H30.73C29.6691 28.12 28.6517 28.5415 27.9016 29.2916C27.1514 30.0417 26.73 31.0592 26.73 32.12V63.36H81.06Z" fill="#F7F9FA" stroke="#1975F1"/>
<path d="M41.05 104.74C41.05 104.74 43.32 107.65 43.34 108.65L43.78 120.65L45 154.35H49.62C50.1345 154.35 50.628 154.554 50.9918 154.918C51.3556 155.282 51.56 155.776 51.56 156.29C51.56 156.805 51.3556 157.298 50.9918 157.662C50.628 158.026 50.1345 158.23 49.62 158.23H45.15L45.54 168.98H49.63C50.1445 168.98 50.638 169.184 51.0018 169.548C51.3656 169.912 51.57 170.406 51.57 170.92C51.57 171.435 51.3656 171.928 51.0018 172.292C50.638 172.656 50.1445 172.86 49.63 172.86H45.68L45.85 177.49H61.94L62.11 172.87H58.15C57.8842 172.889 57.6173 172.853 57.366 172.765C57.1146 172.676 56.8842 172.537 56.6892 172.355C56.4941 172.174 56.3385 171.954 56.2321 171.709C56.1257 171.465 56.0708 171.202 56.0708 170.935C56.0708 170.669 56.1257 170.405 56.2321 170.161C56.3385 169.916 56.4941 169.696 56.6892 169.515C56.8842 169.333 57.1146 169.194 57.366 169.105C57.6173 169.017 57.8842 168.981 58.15 169H62.24L62.63 158.25H58.15C57.8842 158.269 57.6173 158.233 57.366 158.145C57.1146 158.056 56.8842 157.917 56.6892 157.735C56.4941 157.554 56.3385 157.334 56.2321 157.089C56.1257 156.845 56.0708 156.582 56.0708 156.315C56.0708 156.049 56.1257 155.785 56.2321 155.541C56.3385 155.296 56.4941 155.076 56.6892 154.895C56.8842 154.713 57.1146 154.574 57.366 154.485C57.6173 154.397 57.8842 154.361 58.15 154.38H62.77L64 120.68L64.44 108.68C64.44 107.68 66.73 104.77 66.73 104.77C70.8197 102.02 73.9178 98.0285 75.5678 93.3844C77.2178 88.7404 77.3324 83.6892 75.8947 78.9751C74.457 74.261 71.5431 70.1333 67.5824 67.2004C63.6216 64.2675 58.8235 62.6844 53.895 62.6844C48.9666 62.6844 44.1684 64.2675 40.2077 67.2004C36.2469 70.1333 33.333 74.261 31.8954 78.9751C30.4577 83.6892 30.5723 88.7404 32.2223 93.3844C33.8722 98.0285 36.9703 102.02 41.06 104.77L41.05 104.74Z" fill="#F7F9FA" stroke="#1975F1"/>
<path d="M53.8899 101.98C62.9087 101.98 70.2199 94.6688 70.2199 85.65C70.2199 76.6312 62.9087 69.32 53.8899 69.32C44.8711 69.32 37.5599 76.6312 37.5599 85.65C37.5599 94.6688 44.8711 101.98 53.8899 101.98Z" fill="#F7F9FA" stroke="#1975F1"/>
<path d="M58.22 147.09H49.56C48.4886 147.09 47.62 147.956 47.62 149.025C47.62 150.094 48.4886 150.96 49.56 150.96H58.22C59.2914 150.96 60.16 150.094 60.16 149.025C60.16 147.956 59.2914 147.09 58.22 147.09Z" fill="#F7F9FA" stroke="#1975F1"/>
<path d="M58.22 161.71H49.56C48.4886 161.71 47.62 162.576 47.62 163.645C47.62 164.714 48.4886 165.58 49.56 165.58H58.22C59.2914 165.58 60.16 164.714 60.16 163.645C60.16 162.576 59.2914 161.71 58.22 161.71Z" fill="#F7F9FA" stroke="#1975F1"/>
<path d="M53.89 105.65C51.6304 105.639 49.3842 105.997 47.24 106.71L53.89 105.65Z" fill="#F7F9FA"/>
<path d="M53.89 105.65C51.6304 105.639 49.3842 105.997 47.24 106.71" stroke="#1975F1"/>
<path d="M53.89 105.65C56.1496 105.639 58.3958 105.997 60.54 106.71L53.89 105.65Z" fill="#F7F9FA"/>
<path d="M53.89 105.65C56.1496 105.639 58.3958 105.997 60.54 106.71" stroke="#1975F1"/>
<path d="M53.89 75.23C51.8291 75.23 49.8145 75.8411 48.1009 76.9861C46.3874 78.1311 45.0518 79.7584 44.2631 81.6625C43.4745 83.5665 43.2681 85.6616 43.6702 87.6829C44.0723 89.7041 45.0647 91.5608 46.5219 93.0181C47.9792 94.4753 49.8358 95.4677 51.8571 95.8698C53.8784 96.2719 55.9735 96.0655 57.8775 95.2768C59.7815 94.4882 61.4089 93.1526 62.5539 91.4391C63.6989 89.7255 64.31 87.7109 64.31 85.65C64.31 82.8865 63.2122 80.2361 61.258 78.282C59.3039 76.3278 56.6535 75.23 53.89 75.23ZM56.79 86.09L58.85 88.81C58.9293 88.9339 58.9714 89.0779 58.9714 89.225C58.9714 89.3721 58.9293 89.5161 58.85 89.64L58.75 89.79C58.5505 90.0641 58.3112 90.3067 58.04 90.51L57.79 90.68C57.667 90.7617 57.5226 90.8053 57.375 90.8053C57.2273 90.8053 57.083 90.7617 56.96 90.68L54.24 88.62C54.1195 88.5366 53.9765 88.4919 53.83 88.4919C53.6835 88.4919 53.5404 88.5366 53.42 88.62L50.7 90.68C50.5765 90.7605 50.4323 90.8033 50.285 90.8033C50.1376 90.8033 49.9934 90.7605 49.87 90.68L49.69 90.56C49.4162 90.3602 49.1736 90.121 48.97 89.85L48.81 89.63C48.7295 89.5066 48.6867 89.3624 48.6867 89.215C48.6867 89.0676 48.7295 88.9235 48.81 88.8L50.87 86.08C50.9534 85.9596 50.9981 85.8165 50.9981 85.67C50.9981 85.5235 50.9534 85.3805 50.87 85.26L48.86 82.52C48.7783 82.397 48.7347 82.2527 48.7347 82.105C48.7347 81.9574 48.7783 81.813 48.86 81.69L49.04 81.44C49.2429 81.1685 49.4856 80.9291 49.76 80.73L49.91 80.63C50.0339 80.5507 50.1779 80.5086 50.325 80.5086C50.4721 80.5086 50.6161 80.5507 50.74 80.63L53.49 82.74C53.6104 82.8234 53.7535 82.8681 53.9 82.8681C54.0465 82.8681 54.1895 82.8234 54.31 82.74L57.03 80.68C57.1585 80.6034 57.3053 80.5629 57.455 80.5629C57.6046 80.5629 57.7514 80.6034 57.88 80.68L58.16 80.85C58.4403 81.032 58.6761 81.2746 58.85 81.56L58.95 81.74C59.0165 81.876 59.0461 82.0271 59.0355 82.1781C59.025 82.3291 58.9748 82.4746 58.89 82.6L56.83 85.32C56.7525 85.4323 56.7086 85.5643 56.7033 85.7007C56.698 85.837 56.7315 85.972 56.8 86.09H56.79Z" fill="#F7F9FA" stroke="#1975F1"/>
</g>
<defs>
<clipPath id="clip0_1992_3757">
<rect width="114.82" height="322.25" fill="white" transform="translate(0.48999 0.52002)"/>
</clipPath>
</defs>
</svg>
