<svg width="31" height="349" viewBox="0 0 31 349" fill="none" xmlns="http://www.w3.org/2000/svg">
<g clip-path="url(#clip0_1992_3766)">
<path d="M15.59 347.77C18.1299 347.874 20.6463 347.247 22.8394 345.961C25.0325 344.676 26.81 342.787 27.96 340.52C29.2932 338.012 29.9806 335.211 29.96 332.37V119.06C29.96 113.21 28.81 112.14 26.46 109.35C23.69 106.06 22.46 104.18 21.71 76.52C20.96 48.86 19.01 14.02 18.71 8.85002C18.31 2.52002 17.14 1.52002 15.53 1.52002C13.92 1.52002 12.75 2.52002 12.39 8.85002C12.14 14.02 10.14 48.85 9.38998 76.52C8.63998 104.19 7.38998 106.07 4.63998 109.35C2.28998 112.14 1.13998 113.2 1.13998 119.06V332.37C1.11935 335.211 1.80671 338.012 3.13998 340.52C4.315 342.784 6.10912 344.667 8.31332 345.951C10.5175 347.235 13.0411 347.865 15.59 347.77Z" fill="#F7F9FA" stroke="#1975F1"/>
<path d="M11.46 25.77H19.64" stroke="#1975F1"/>
<path d="M3.34998 193.02H27.71" stroke="#1975F1"/>
<path d="M1.14001 294.02L5.02001 116.75C5.01912 115.258 5.52312 113.809 6.45001 112.64C6.98001 111.96 7.68001 111.22 8.27001 110.4C11.42 105.93 11.88 99.12 12.51 91.23C12.67 89.23 13.36 83.33 13.36 83.33C13.4314 82.8052 13.6906 82.324 14.0896 81.9756C14.4886 81.6273 15.0003 81.4353 15.53 81.4353C16.0597 81.4353 16.5714 81.6273 16.9704 81.9756C17.3694 82.324 17.6286 82.8052 17.7 83.33C17.7 83.33 18.39 89.24 18.55 91.23C19.17 99.12 19.63 105.93 22.79 110.4C23.37 111.23 24.07 111.97 24.61 112.64C25.5369 113.809 26.0409 115.258 26.04 116.75L29.93 294.02" fill="#F7F9FA"/>
<path d="M1.14001 294.02L5.02001 116.75C5.01912 115.258 5.52312 113.809 6.45001 112.64C6.98001 111.96 7.68001 111.22 8.27001 110.4C11.42 105.93 11.88 99.12 12.51 91.23C12.67 89.23 13.36 83.33 13.36 83.33C13.4314 82.8052 13.6906 82.324 14.0896 81.9756C14.4886 81.6273 15.0003 81.4353 15.53 81.4353C16.0597 81.4353 16.5714 81.6273 16.9704 81.9756C17.3694 82.324 17.6286 82.8052 17.7 83.33C17.7 83.33 18.39 89.24 18.55 91.23C19.17 99.12 19.63 105.93 22.79 110.4C23.37 111.23 24.07 111.97 24.61 112.64C25.5369 113.809 26.0409 115.258 26.04 116.75L29.93 294.02" stroke="#1975F1"/>
</g>
<defs>
<clipPath id="clip0_1992_3766">
<rect width="30.79" height="348.25" fill="white" transform="translate(0.140015 0.52002)"/>
</clipPath>
</defs>
</svg>
