<svg width="27" height="379" viewBox="0 0 27 379" fill="none" xmlns="http://www.w3.org/2000/svg">
<g clip-path="url(#clip0_1992_3763)">
<path d="M13.5499 26.31H20.2599C20.9018 26.31 21.5173 26.0551 21.9711 25.6012C22.425 25.1474 22.6799 24.5318 22.6799 23.89V4.19002C22.6799 3.5482 22.425 2.93266 21.9711 2.47882C21.5173 2.02498 20.9018 1.77002 20.2599 1.77002H6.84993C6.20811 1.77002 5.59257 2.02498 5.13873 2.47882C4.68489 2.93266 4.42993 3.5482 4.42993 4.19002V23.9C4.42993 24.5418 4.68489 25.1574 5.13873 25.6112C5.59257 26.0651 6.20811 26.32 6.84993 26.32L13.5499 26.31Z" fill="#F7F9FA" stroke="#1975F1"/>
<path d="M22.2199 81.9H4.88989V293.41H22.2199V81.9Z" fill="#F7F9FA" stroke="#1975F1"/>
<path d="M13.5499 84.9H21.4599C21.9896 84.9003 22.5048 84.7276 22.9272 84.408C23.3496 84.0885 23.6561 83.6398 23.7999 83.13L24.5499 80.47C24.6101 80.2552 24.6404 80.0331 24.6399 79.81V33C24.6383 32.6556 24.7099 32.3147 24.8499 32L25.7299 30C25.9432 29.5267 25.9993 28.9975 25.8899 28.49L24.9799 24.35C24.8615 23.8093 24.562 23.3253 24.1311 22.978C23.7001 22.6306 23.1635 22.4409 22.6099 22.44H4.50995C3.95605 22.4496 3.42207 22.6482 2.99649 23.0029C2.57092 23.3575 2.27929 23.8469 2.16995 24.39L1.25995 28.53C1.15061 29.0375 1.20669 29.5667 1.41995 30.04L2.29995 32.04C2.44003 32.3547 2.51161 32.6956 2.50995 33.04V79.77C2.50951 79.9931 2.53979 80.2152 2.59995 80.43L3.34995 83.09C3.4938 83.5998 3.80025 84.0485 4.22266 84.368C4.64507 84.6876 5.16031 84.8603 5.68995 84.86L13.5499 84.9Z" fill="#F7F9FA" stroke="#1975F1"/>
<path d="M23.9699 80.15H3.13989" stroke="#1975F1"/>
<path d="M2.46997 32.48H24.64" stroke="#1975F1"/>
<path d="M4.98987 328.9V337.99C4.99317 338.324 5.08 338.652 5.24244 338.943C5.40489 339.235 5.63778 339.481 5.91987 339.66L7.17987 340.44C7.46196 340.619 7.69485 340.865 7.85729 341.157C8.01974 341.448 8.10657 341.776 8.10987 342.11V376.28C8.10854 376.476 8.14617 376.67 8.22058 376.852C8.29499 377.033 8.40469 377.198 8.54332 377.337C8.68194 377.475 8.84673 377.585 9.0281 377.659C9.20948 377.734 9.40383 377.771 9.59987 377.77H17.8199C18.2124 377.77 18.5888 377.614 18.8664 377.337C19.1439 377.059 19.2999 376.683 19.2999 376.29V342.12C19.3032 341.786 19.39 341.458 19.5524 341.167C19.7149 340.875 19.9478 340.629 20.2299 340.45L21.4899 339.67C21.772 339.491 22.0048 339.245 22.1673 338.953C22.3297 338.662 22.4166 338.334 22.4199 338V328.91" fill="#F7F9FA"/>
<path d="M4.98987 328.9V337.99C4.99317 338.324 5.08 338.652 5.24244 338.943C5.40489 339.235 5.63778 339.481 5.91987 339.66L7.17987 340.44C7.46196 340.619 7.69485 340.865 7.85729 341.157C8.01974 341.448 8.10657 341.776 8.10987 342.11V376.28C8.10854 376.476 8.14617 376.67 8.22058 376.852C8.29499 377.033 8.40469 377.198 8.54332 377.337C8.68194 377.475 8.84673 377.585 9.0281 377.659C9.20948 377.734 9.40383 377.771 9.59987 377.77H17.8199C18.2124 377.77 18.5888 377.614 18.8664 377.337C19.1439 377.059 19.2999 376.683 19.2999 376.29V342.12C19.3032 341.786 19.39 341.458 19.5524 341.167C19.7149 340.875 19.9478 340.629 20.2299 340.45L21.4899 339.67C21.772 339.491 22.0048 339.245 22.1673 338.953C22.3297 338.662 22.4166 338.334 22.4199 338V328.91" stroke="#1975F1"/>
<path d="M26.0499 29.31H1.04993" stroke="#1975F1"/>
<path d="M21.6799 291.52H5.72993C4.38787 291.52 3.29993 292.608 3.29993 293.95V326.47C3.29993 327.812 4.38787 328.9 5.72993 328.9H21.6799C23.022 328.9 24.1099 327.812 24.1099 326.47V293.95C24.1099 292.608 23.022 291.52 21.6799 291.52Z" fill="#F7F9FA" stroke="#1975F1"/>
<path d="M24.1199 295.9H3.29993" stroke="#1975F1"/>
<path d="M24.1199 324.52H3.29993" stroke="#1975F1"/>
<path d="M22.4299 338.33H4.98987" stroke="#1975F1"/>
<path d="M19.2999 340.93H8.11987" stroke="#1975F1"/>
<path d="M10.8699 377.77V344.17C10.8699 344.17 11.5599 347.92 13.7099 347.92C15.8599 347.92 16.5499 344.17 16.5499 344.17V377.77" fill="#F7F9FA"/>
<path d="M10.8699 377.77V344.17C10.8699 344.17 11.5599 347.92 13.7099 347.92C15.8599 347.92 16.5499 344.17 16.5499 344.17V377.77" stroke="#1975F1"/>
<path d="M16.5499 344.17C16.5499 344.17 17.3399 347.88 19.2999 347.88L16.5499 344.17Z" fill="#F7F9FA"/>
<path d="M16.5499 344.17C16.5499 344.17 17.3399 347.88 19.2999 347.88" stroke="#1975F1"/>
<path d="M10.8699 344.17C10.8699 344.17 10.0799 347.88 8.11987 347.88L10.8699 344.17Z" fill="#F7F9FA"/>
<path d="M10.8699 344.17C10.8699 344.17 10.0799 347.88 8.11987 347.88" stroke="#1975F1"/>
</g>
<defs>
<clipPath id="clip0_1992_3763">
<rect width="26.77" height="378" fill="white" transform="translate(0.169922 0.77002)"/>
</clipPath>
</defs>
</svg>
