<svg width="28" height="387" viewBox="0 0 28 387" fill="none" xmlns="http://www.w3.org/2000/svg">
<g clip-path="url(#clip0_1992_3759)">
<path d="M25.8201 345.07C25.4982 342.958 25.3278 340.826 25.3101 338.69V32.88C25.3105 32.3632 25.1108 31.8662 24.7529 31.4934C24.3949 31.1205 23.9065 30.9007 23.3901 30.88C20.1235 30.7407 16.9198 31.8085 14.3901 33.88C10.0401 37.43 6.8001 46.52 6.8001 58.65V334.52C6.79835 335.738 6.9977 336.947 7.3901 338.1C8.2701 340.67 8.9401 342.3 11.4601 348.22C14.092 354.677 15.0715 361.689 14.3101 368.62C13.5701 375.76 8.5501 380.95 1.9001 375.68C1.83689 375.631 1.76019 375.603 1.68037 375.599C1.60055 375.595 1.52147 375.616 1.45383 375.658C1.38619 375.701 1.33325 375.763 1.30218 375.837C1.2711 375.91 1.2634 375.992 1.2801 376.07C2.2801 379.69 5.2801 385.51 10.6801 385.75C16.3601 386 20.8601 383.22 23.8001 374.75C26.4901 367.18 27.1301 354.18 25.8201 345.07Z" fill="#F7F9FA" stroke="#1975F1"/>
<path d="M16.0601 68.35C13.2301 68.35 10.9301 73.96 10.9301 80.89V318.69C10.9301 325.61 13.2301 331.23 16.0601 331.23C18.8901 331.23 21.1901 325.62 21.1901 318.69V80.89C21.1901 73.96 18.8901 68.35 16.0601 68.35Z" fill="#F7F9FA" stroke="#1975F1"/>
<path d="M6.80003 68.35C6.80003 68.35 0.87003 56.79 1.64003 34.86C2.38003 14.18 8.60003 7.62003 15.86 3.72003C18.3084 2.37989 20.9894 1.51789 23.76 1.18003C23.9622 1.17604 24.163 1.21241 24.3509 1.28701C24.5388 1.36161 24.7099 1.47294 24.8543 1.61448C24.9986 1.75602 25.1133 1.92494 25.1915 2.11134C25.2698 2.29773 25.3101 2.49787 25.31 2.70003V32.27" fill="#F7F9FA"/>
<path d="M6.80003 68.35C6.80003 68.35 0.87003 56.79 1.64003 34.86C2.38003 14.18 8.60003 7.62003 15.86 3.72003C18.3084 2.37989 20.9894 1.51789 23.76 1.18003C23.9622 1.17604 24.163 1.21241 24.3509 1.28701C24.5388 1.36161 24.7099 1.47294 24.8543 1.61448C24.9986 1.75602 25.1133 1.92494 25.1915 2.11134C25.2698 2.29773 25.3101 2.49787 25.31 2.70003V32.27" stroke="#1975F1"/>
</g>
<defs>
<clipPath id="clip0_1992_3759">
<rect width="27.17" height="386.59" fill="white" transform="translate(0.310059 0.180023)"/>
</clipPath>
</defs>
</svg>
