<svg width="81" height="358" viewBox="0 0 81 358" fill="none" xmlns="http://www.w3.org/2000/svg">
<g clip-path="url(#clip0_1992_3762)">
<path d="M7.98999 83.11V73.63L13.19 10.84C13.3427 8.98251 14.0115 7.20465 15.1208 5.70702C16.2302 4.20939 17.7361 3.05159 19.4684 2.36425C21.2008 1.67691 23.0908 1.48738 24.9252 1.81705C26.7596 2.14672 28.4653 2.98247 29.85 4.23001C38.5 12.06 48.85 21.93 54.99 29.61C70.32 48.78 71.66 72.78 71.66 83.11H7.98999Z" fill="#F7F9FA" stroke="#1975F1"/>
<path d="M75.89 102.44C69.52 126.44 75.89 150.44 75.89 150.44H4.37C4.37 150.44 10.74 126.44 4.37 102.44H75.89Z" fill="#F7F9FA" stroke="#1975F1"/>
<path d="M40.09 356.77H21.62C20.1838 356.769 18.8015 356.223 17.7514 355.243C16.7012 354.264 16.0611 352.923 15.96 351.49L12.4 300.49C12.3352 299.551 12.0135 298.648 11.47 297.88L10.42 296.39C9.86903 295.611 9.54691 294.693 9.48997 293.74C8.59997 279.07 1.28997 158.75 1.08997 155.13C0.899974 151.28 3.70997 150.53 5.29997 150.26C14.15 148.7 23.47 138.72 23.47 125.82C23.6045 120.564 21.8439 115.436 18.5098 111.371C15.1756 107.306 10.4904 104.576 5.30997 103.68C3.71997 103.4 1.08997 102.63 1.08997 98.81C1.08997 97.34 1.08997 94.07 1.08997 85.81V85.74C1.08997 85.0372 1.36917 84.3631 1.86614 83.8662C2.36311 83.3692 3.03715 83.09 3.73997 83.09H76.51C77.2128 83.09 77.8868 83.3692 78.3838 83.8662C78.8808 84.3631 79.16 85.0372 79.16 85.74V85.81C79.16 94.06 79.16 97.33 79.16 98.81C79.16 102.67 76.54 103.41 74.95 103.68C69.7676 104.572 65.0791 107.298 61.7411 111.361C58.4031 115.425 56.6386 120.553 56.77 125.81C56.77 138.72 66.08 148.69 74.94 150.25C76.53 150.53 79.34 151.25 79.15 155.13C78.97 158.75 71.67 279.07 70.78 293.72C70.723 294.673 70.4009 295.591 69.85 296.37L68.8 297.86C68.2564 298.628 67.9347 299.531 67.87 300.47L64.31 351.47C64.2088 352.903 63.5688 354.244 62.5186 355.223C61.4684 356.203 60.0861 356.749 58.65 356.75L40.09 356.77Z" fill="#F7F9FA" stroke="#1975F1"/>
<path d="M40.09 88.02H7.48001C7.02384 88.02 6.58635 88.2012 6.26379 88.5238C5.94122 88.8463 5.76001 89.2838 5.76001 89.74V97.44C5.76001 97.6593 5.80321 97.8765 5.88713 98.0791C5.97106 98.2817 6.09407 98.4658 6.24914 98.6209C6.40422 98.7759 6.58831 98.899 6.79093 98.9829C6.99354 99.0668 7.2107 99.11 7.43001 99.11C13.77 99.11 28.29 107.53 28.29 125.72C28.29 140.92 18.08 150.86 9.74001 153.84C8.78628 154.228 7.8114 154.562 6.82001 154.84C6.5175 154.922 6.25273 155.107 6.0705 155.362C5.88827 155.617 5.79978 155.927 5.82001 156.24C6.58001 168.57 13.37 278.01 14.21 291.83C14.3541 292.8 14.7585 293.712 15.38 294.47L16.2 295.96C16.7435 296.728 17.0653 297.631 17.13 298.57L20.75 348.5C20.88 350.99 21.29 352.7 24.96 352.7H55.31C58.98 352.7 59.39 350.99 59.52 348.5L63.14 298.57C63.2047 297.631 63.5265 296.728 64.07 295.96L64.89 294.47C65.5307 293.701 65.946 292.77 66.09 291.78C66.93 277.96 73.72 168.53 74.48 156.19C74.5002 155.877 74.4118 155.567 74.2295 155.312C74.0473 155.057 73.7825 154.872 73.48 154.79C72.4886 154.512 71.5137 154.178 70.56 153.79C62.22 150.79 52.01 140.87 52.01 125.67C52.01 107.48 66.52 99.06 72.87 99.06C73.3129 99.06 73.7377 98.8841 74.0509 98.5709C74.3641 98.2577 74.54 97.8329 74.54 97.39V89.69C74.54 89.2338 74.3588 88.7963 74.0362 88.4738C73.7137 88.1512 73.2762 87.97 72.82 87.97L40.09 88.02Z" fill="#F7F9FA" stroke="#1975F1"/>
<path d="M40.09 113.86C32.65 113.86 28.76 109.69 25.19 104.74C23.0209 101.781 20.2108 99.3502 16.97 97.63C16.6684 97.4753 16.4154 97.2402 16.239 96.9508C16.0625 96.6615 15.9694 96.3289 15.97 95.99V94.11C15.97 93.6167 16.1659 93.1436 16.5148 92.7948C16.8636 92.446 17.3367 92.25 17.83 92.25H62.41C62.9033 92.25 63.3764 92.446 63.7252 92.7948C64.074 93.1436 64.27 93.6167 64.27 94.11V96.04C64.2705 96.3789 64.1774 96.7115 64.001 97.0008C63.8245 97.2902 63.5715 97.5253 63.27 97.68C60.0208 99.378 57.1972 101.788 55.01 104.73C51.46 109.69 47.57 113.86 40.09 113.86Z" fill="#F7F9FA" stroke="#1975F1"/>
<path d="M40.0899 342.63H45.5799C46.042 342.634 46.5002 342.546 46.9279 342.371C47.3555 342.196 47.744 341.938 48.0708 341.611C48.3975 341.284 48.6559 340.896 48.8309 340.468C49.0059 340.04 49.0939 339.582 49.0899 339.12V302.43C49.0899 293.99 53.0399 289.95 55.1399 288.43C55.5468 288.128 55.8823 287.741 56.1225 287.295C56.3627 286.849 56.5018 286.356 56.5299 285.85L64.1299 158.12C64.1633 157.508 64.036 156.898 63.7606 156.351C63.4851 155.803 63.0712 155.338 62.5599 155C59.2678 152.625 56.4151 149.695 54.1299 146.34C50.5099 141.34 44.5099 140.47 40.1299 140.47C35.7499 140.47 30.6499 141.22 26.1299 146.35C23.4667 149.454 20.5464 152.327 17.3999 154.94C16.9683 155.281 16.6243 155.721 16.3964 156.221C16.1686 156.722 16.0635 157.27 16.0899 157.82L23.7099 285.82C23.7368 286.325 23.8744 286.818 24.1129 287.264C24.3513 287.709 24.6849 288.097 25.0899 288.4C27.1899 289.95 31.1399 294 31.1399 302.4V339.08C31.1306 339.545 31.2143 340.006 31.3863 340.438C31.5582 340.87 31.8149 341.262 32.1411 341.593C32.4673 341.924 32.8565 342.186 33.2856 342.364C33.7148 342.542 34.1753 342.633 34.6399 342.63H40.0899Z" fill="#F7F9FA" stroke="#1975F1"/>
</g>
<defs>
<clipPath id="clip0_1992_3762">
<rect width="80.08" height="357.14" fill="white" transform="translate(0.0899658 0.630005)"/>
</clipPath>
</defs>
</svg>
