<svg width="25" height="483" viewBox="0 0 25 483" fill="none" xmlns="http://www.w3.org/2000/svg">
<g clip-path="url(#clip0_1992_3758)">
<path d="M15.8101 378.31C15.6501 374.55 18.2901 332 18.6101 326.82C18.6307 326.481 18.7411 326.153 18.9301 325.87L20.3101 323.8C20.5198 323.483 20.6312 323.11 20.6301 322.73V157.56C20.6312 157.18 20.5198 156.807 20.3101 156.49L18.9201 154.41C18.7311 154.127 18.6207 153.799 18.6001 153.46C18.2801 148.28 15.6001 105.73 15.8001 101.97C15.9201 99.12 19.6801 97.79 21.8001 97.27C22.2261 97.175 22.6074 96.9384 22.8817 96.5988C23.1559 96.2591 23.3069 95.8365 23.3101 95.4V38.65C23.3101 21.88 22.3101 16.16 13.9801 2C13.8105 1.70727 13.5669 1.46426 13.2738 1.29533C12.9807 1.1264 12.6484 1.03747 12.3101 1.03747C11.9718 1.03747 11.6394 1.1264 11.3463 1.29533C11.0532 1.46426 10.8096 1.70727 10.6401 2C2.31006 16.16 1.31006 21.88 1.31006 38.65V95.4C1.31104 95.8311 1.45632 96.2495 1.72274 96.5884C1.98916 96.9273 2.36138 97.1673 2.78006 97.27C4.93006 97.8 8.69006 99.12 8.78006 101.97C8.94006 105.73 6.30006 148.28 5.98006 153.46C5.9594 153.799 5.84897 154.127 5.66006 154.41L4.31006 156.49C4.10027 156.807 3.98894 157.18 3.99006 157.56V322.73C3.98894 323.11 4.10027 323.483 4.31006 323.8L5.70006 325.88C5.88897 326.163 5.9994 326.491 6.02006 326.83C6.34006 332.01 9.02006 374.56 8.82006 378.32C8.70006 381.17 4.94006 382.5 2.82006 383.02C2.39398 383.115 2.01268 383.352 1.73843 383.691C1.46418 384.031 1.31317 384.453 1.31006 384.89V435.27V476C1.31006 478.2 4.94006 481.75 12.3101 481.75C19.6801 481.75 23.3101 478.2 23.3101 476V384.89C23.3136 384.456 23.1703 384.032 22.9036 383.689C22.6368 383.346 22.2621 383.104 21.8401 383C19.6901 382.49 15.9301 381.16 15.8101 378.31Z" fill="#F7F9FA" stroke="#1975F1"/>
<path d="M15.8101 102.15C15.8101 107.15 13.8101 111.15 12.3101 111.15C10.8101 111.15 8.81006 107.15 8.81006 102.15" fill="#F7F9FA"/>
<path d="M15.8101 102.15C15.8101 107.15 13.8101 111.15 12.3101 111.15C10.8101 111.15 8.81006 107.15 8.81006 102.15" stroke="#1975F1"/>
<path d="M4.51001 97.79C4.51001 97.79 12.91 95.94 20.11 97.79H4.51001Z" fill="#F7F9FA"/>
<path d="M4.51001 97.79C4.51001 97.79 12.91 95.94 20.11 97.79" stroke="#1975F1"/>
<path d="M1.31006 93.9C1.31006 93.9 14.8101 92.15 23.3101 93.9H1.31006Z" fill="#F7F9FA"/>
<path d="M1.31006 93.9C1.31006 93.9 14.8101 92.15 23.3101 93.9" stroke="#1975F1"/>
<path d="M8.81006 378.35C8.81006 373.35 10.8101 369.35 12.3101 369.35C13.8101 369.35 15.8101 373.35 15.8101 378.35" fill="#F7F9FA"/>
<path d="M8.81006 378.35C8.81006 373.35 10.8101 369.35 12.3101 369.35C13.8101 369.35 15.8101 373.35 15.8101 378.35" stroke="#1975F1"/>
<path d="M20.11 382.7C20.11 382.7 11.71 384.55 4.51001 382.7H20.11Z" fill="#F7F9FA"/>
<path d="M20.11 382.7C20.11 382.7 11.71 384.55 4.51001 382.7" stroke="#1975F1"/>
<path d="M23.3101 386.6C23.3101 386.6 9.81006 388.35 1.31006 386.6H23.3101Z" fill="#F7F9FA"/>
<path d="M23.3101 386.6C23.3101 386.6 9.81006 388.35 1.31006 386.6" stroke="#1975F1"/>
<path d="M15.8201 157.37C15.0501 155.46 13.7701 154.2 12.3101 154.2C10.8501 154.2 9.56011 155.46 8.80011 157.37C8.29912 158.671 8.04806 160.056 8.06011 161.45V318.15C8.04806 319.544 8.29912 320.929 8.80011 322.23C9.57011 324.14 10.8501 325.4 12.3101 325.4C13.7701 325.4 15.0601 324.14 15.8201 322.23C16.3211 320.929 16.5721 319.544 16.5601 318.15V161.46C16.5734 160.062 16.3223 158.675 15.8201 157.37Z" fill="#F7F9FA" stroke="#1975F1"/>
<path d="M18.42 152.14C16.8742 153.331 15.8464 155.071 15.55 157L18.42 152.14Z" fill="#F7F9FA"/>
<path d="M18.42 152.14C16.8742 153.331 15.8464 155.071 15.55 157" stroke="#1975F1"/>
<path d="M6.20007 152.14C7.74591 153.331 8.77371 155.071 9.07007 157L6.20007 152.14Z" fill="#F7F9FA"/>
<path d="M6.20007 152.14C7.74591 153.331 8.77371 155.071 9.07007 157" stroke="#1975F1"/>
<path d="M6.20007 327.83C7.73934 326.646 8.76645 324.918 9.07007 323L6.20007 327.83Z" fill="#F7F9FA"/>
<path d="M6.20007 327.83C7.73934 326.646 8.76645 324.918 9.07007 323" stroke="#1975F1"/>
<path d="M18.42 327.83C16.8808 326.646 15.8537 324.918 15.55 323L18.42 327.83Z" fill="#F7F9FA"/>
<path d="M18.42 327.83C16.8808 326.646 15.8537 324.918 15.55 323" stroke="#1975F1"/>
</g>
<defs>
<clipPath id="clip0_1992_3758">
<rect width="24" height="482.77" fill="white" transform="translate(0.310059)"/>
</clipPath>
</defs>
</svg>
