<svg width="112" height="108" viewBox="0 0 112 108" fill="none" xmlns="http://www.w3.org/2000/svg">
<path d="M55.7631 106.27L55.7501 106.27L55.737 106.27C53.9912 106.316 52.0301 105.55 49.6233 103.397L49.6234 103.397L49.6167 103.392C43.0824 97.7524 30.8113 85.3948 19.5837 65.8312L19.5834 65.8307C13.441 55.1538 4.27016 36.4903 1.7845 19.9159L1.7844 19.9152C1.35152 17.0542 1.35936 14.997 2.20939 13.3268C3.05468 11.6659 4.79019 10.281 8.09037 8.92239L8.09096 8.92214C17.1076 5.19661 33.1552 2.07004 55.75 2.07004C78.3447 2.07004 94.3725 5.19655 103.409 8.92229L103.41 8.92239C106.71 10.2809 108.445 11.6682 109.291 13.3304C110.141 15.002 110.149 17.0594 109.716 19.9151L109.716 19.9156C107.22 36.4903 98.059 55.154 91.9163 65.8612C80.6888 85.4247 68.4277 97.7623 61.883 103.422C59.4298 105.541 57.4975 106.316 55.7631 106.27Z" fill="#F7F9FA" stroke="#1975F1"/>
<path d="M63.1481 44.5475L63.1366 44.5541C62.9977 44.3537 62.9207 44.1164 62.9159 43.8718C62.9108 43.6122 62.9874 43.3576 63.1347 43.1439L68.1284 36.5622L68.1362 36.5519L68.1435 36.5411C68.3989 36.1655 68.5506 35.7292 68.5832 35.2761C68.6159 34.8231 68.5284 34.3695 68.3296 33.9611L68.3245 33.9508L68.319 33.9406L68.079 33.5006L68.073 33.4897L68.0665 33.4791C67.6037 32.7226 66.9763 32.0803 66.231 31.5998L66.2233 31.5948L66.2155 31.5902L65.5254 31.1802L65.5142 31.1735L65.5026 31.1674C65.1003 30.956 64.648 30.8583 64.1943 30.8847C63.7406 30.9111 63.3027 31.0607 62.9276 31.3174L62.9174 31.3244L62.9075 31.3319L56.3356 36.3258C56.1284 36.4692 55.8822 36.5461 55.63 36.5461C55.3778 36.5461 55.1317 36.4692 54.9244 36.3258L48.3525 31.3319L48.3419 31.3238L48.3308 31.3163C47.958 31.0633 47.5203 30.9228 47.0699 30.9115C46.6194 30.9003 46.1753 31.0187 45.7903 31.2528L45.78 31.259L45.7701 31.2657L45.4001 31.5157L45.3934 31.5202L45.3869 31.525C44.6837 32.0339 44.0612 32.6457 43.5401 33.3399L43.5352 33.3465L43.5304 33.3533L43.1104 33.9533L43.1063 33.9592L43.1023 33.9653C42.8533 34.3438 42.7207 34.787 42.7207 35.24C42.7207 35.6931 42.8533 36.1362 43.1023 36.5147L43.1115 36.5288L43.1217 36.5422L48.115 43.1234C48.2576 43.3314 48.3339 43.5777 48.3339 43.83C48.3339 44.0823 48.2576 44.3286 48.115 44.5366L43.1217 51.1178L43.111 51.1319L43.1013 51.1468C42.8542 51.5255 42.7226 51.9679 42.7226 52.42C42.7226 52.8722 42.8542 53.3146 43.1013 53.6932L43.1061 53.7006L43.1111 53.7078L43.4911 54.2478L43.491 54.2479L43.499 54.2587C44.0198 54.9579 44.6414 55.576 45.3437 56.0928L45.3509 56.0981L45.3584 56.1031L45.7984 56.4031L45.7983 56.4033L45.8083 56.4097C46.1871 56.655 46.6288 56.7855 47.08 56.7855C47.5313 56.7855 47.973 56.655 48.3518 56.4097L48.3676 56.3995L48.3826 56.3881L54.9544 51.3943C55.1617 51.2509 55.4078 51.174 55.66 51.174C55.9122 51.174 56.1584 51.2509 56.3656 51.3943L62.9375 56.3881L62.9504 56.3979L62.9638 56.4068C63.3422 56.6576 63.7861 56.7914 64.24 56.7914C64.694 56.7914 65.1379 56.6576 65.5163 56.4068L65.5164 56.4069L65.5268 56.3996L66.1268 55.9796L66.1353 55.9736L66.1436 55.9673C66.839 55.4359 67.4504 54.803 67.9575 54.0898L67.9577 54.0898L67.9643 54.08L68.2143 53.71L68.2215 53.6993L68.2282 53.6883C68.4605 53.3032 68.5779 52.8598 68.5667 52.4102C68.5554 51.9607 68.416 51.5237 68.1647 51.1507L68.1568 51.1389L68.1481 51.1275L63.1481 44.5475ZM42.029 23.2477C46.0895 20.5296 50.8644 19.0758 55.7506 19.07C59.0027 19.0662 62.2235 19.704 65.2287 20.947C68.2338 22.19 70.9641 24.0138 73.2632 26.3138C75.5623 28.6138 77.385 31.3448 78.6268 34.3505C79.8686 37.3561 80.5052 40.5772 80.5 43.8292C80.4923 48.7155 79.0366 53.4898 76.317 57.5492C73.5973 61.6086 69.7356 64.7709 65.2196 66.6367C60.7037 68.5026 55.736 68.9883 50.9442 68.0324C46.1524 67.0765 41.7513 64.722 38.2969 61.2662C34.8425 57.8105 32.4897 53.4085 31.5358 48.6163C30.5818 43.8241 31.0694 38.8566 32.9371 34.3414C34.8047 29.8262 37.9686 25.9657 42.029 23.2477Z" fill="#F7F9FA" stroke="#1975F1"/>
</svg>
