<svg width="30" height="244" viewBox="0 0 30 244" fill="none" xmlns="http://www.w3.org/2000/svg">
<g clip-path="url(#clip0_1992_3767)">
<path d="M26.5099 121.99C26.5099 139.65 28.9299 170.32 28.9299 196.29C28.9299 219.53 27.5199 229.48 27.2899 239.96C27.2717 240.714 26.9591 241.432 26.4191 241.958C25.8791 242.485 25.1544 242.78 24.3999 242.78H6.39993C5.64543 242.78 4.92076 242.485 4.38075 241.958C3.84074 241.432 3.52821 240.714 3.50993 239.96C3.33993 229.48 1.92993 219.52 1.92993 196.28C1.92993 170.28 4.34993 139.64 4.34993 121.98C4.34993 104.32 1.92993 73.66 1.92993 47.69C1.92993 24.45 3.33993 14.5 3.56993 4.02001C3.58816 3.26746 3.8993 2.55172 4.43717 2.02506C4.97503 1.4984 5.69716 1.2024 6.44993 1.20001H24.4499C25.2044 1.19979 25.9291 1.49464 26.4691 2.02158C27.0091 2.54851 27.3217 3.26573 27.3399 4.02001C27.5199 14.5 28.9299 24.45 28.9299 47.69C28.9299 73.66 26.5099 104.33 26.5099 121.99Z" fill="#F7F9FA" stroke="#1975F1"/>
<path d="M15.4299 76.73H20.3499C23.6499 76.73 25.2699 74.29 26.3499 70.73C27.7499 66.1 28.9299 60.82 28.9299 51.42C28.9299 42.02 27.7499 36.74 26.3499 32.11C25.2699 28.55 23.6499 26.11 20.3499 26.11H10.5099C7.20993 26.11 5.58993 28.55 4.50993 32.11C3.10993 36.73 1.92993 42.02 1.92993 51.42C1.92993 60.82 3.10993 66.1 4.50993 70.73C5.58993 74.29 7.20993 76.73 10.5099 76.73H15.4299Z" fill="#F7F9FA" stroke="#1975F1"/>
<path d="M15.4299 167.2H20.3499C23.6499 167.2 25.2699 169.64 26.3499 173.2C27.7499 177.87 28.9299 183.2 28.9299 192.55C28.9299 201.9 27.7499 207.2 26.3499 211.87C25.2699 215.43 23.6499 217.87 20.3499 217.87H10.5099C7.20993 217.87 5.58993 215.43 4.50993 211.87C3.10993 207.2 1.92993 201.95 1.92993 192.55C1.92993 183.15 3.10993 177.87 4.50993 173.2C5.58993 169.64 7.20993 167.2 10.5099 167.2H15.4299Z" fill="#F7F9FA" stroke="#1975F1"/>
<path d="M8.24988 167.2C8.72988 149.88 9.38988 133.2 9.38988 121.95C9.38988 110.7 8.72988 94.05 8.24988 76.73" fill="#F7F9FA"/>
<path d="M8.24988 167.2C8.72988 149.88 9.38988 133.2 9.38988 121.95C9.38988 110.7 8.72988 94.05 8.24988 76.73" stroke="#1975F1"/>
<path d="M22.61 167.2C22.13 149.88 21.47 133.2 21.47 121.95C21.47 110.7 22.13 94.01 22.61 76.7" fill="#F7F9FA"/>
<path d="M22.61 167.2C22.13 149.88 21.47 133.2 21.47 121.95C21.47 110.7 22.13 94.01 22.61 76.7" stroke="#1975F1"/>
<path d="M22.61 26.59C24.711 19.1891 26.275 11.6461 27.29 4.02002L22.61 26.59Z" fill="#F7F9FA"/>
<path d="M22.61 26.59C24.711 19.1891 26.275 11.6461 27.29 4.02002" stroke="#1975F1"/>
<path d="M8.24995 26.59C6.14898 19.1891 4.58492 11.6461 3.56995 4.02002L8.24995 26.59Z" fill="#F7F9FA"/>
<path d="M8.24995 26.59C6.14898 19.1891 4.58492 11.6461 3.56995 4.02002" stroke="#1975F1"/>
<path d="M3.68994 6.06H27.1699" stroke="#1975F1"/>
<path d="M8.24995 217.37C6.14898 224.771 4.58492 232.314 3.56995 239.94L8.24995 217.37Z" fill="#F7F9FA"/>
<path d="M8.24995 217.37C6.14898 224.771 4.58492 232.314 3.56995 239.94" stroke="#1975F1"/>
<path d="M22.61 217.37C24.711 224.771 26.275 232.314 27.29 239.94L22.61 217.37Z" fill="#F7F9FA"/>
<path d="M22.61 217.37C24.711 224.771 26.275 232.314 27.29 239.94" stroke="#1975F1"/>
<path d="M27.1699 237.89H3.68994" stroke="#1975F1"/>
</g>
<defs>
<clipPath id="clip0_1992_3767">
<rect width="29" height="243.57" fill="white" transform="translate(0.929932 0.200012)"/>
</clipPath>
</defs>
</svg>
