<svg width="28" height="408" viewBox="0 0 28 408" fill="none" xmlns="http://www.w3.org/2000/svg">
<g clip-path="url(#clip0_1992_3764)">
<path d="M14.27 406.77C16.2634 406.861 18.2466 406.438 20.0293 405.541C21.812 404.644 23.3343 403.304 24.45 401.65C25.89 399.475 26.6426 396.918 26.61 394.31V156.58L22.78 83.64C22.7813 83.6134 22.7813 83.5867 22.78 83.56L21.62 76.13V76.08L15.08 2.70003C15.0579 2.50199 14.9635 2.31905 14.815 2.1862C14.6665 2.05334 14.4742 1.97989 14.275 1.97989C14.0757 1.97989 13.8834 2.05334 13.7349 2.1862C13.5864 2.31905 13.4921 2.50199 13.47 2.70003L6.93998 76.08V76.13L5.77998 83.56C5.77866 83.5867 5.77866 83.6134 5.77998 83.64L1.93998 156.58V394.31C1.90738 396.918 2.65998 399.475 4.09998 401.65C5.21476 403.303 6.73542 404.642 8.51622 405.538C10.297 406.435 12.2782 406.859 14.27 406.77Z" fill="#F7F9FA" stroke="#1975F1"/>
<path d="M26.4699 154.02H14.7899C14.0659 154.02 13.3715 154.308 12.8595 154.82C12.3476 155.332 12.0599 156.026 12.0599 156.75V172.75C12.0599 173.474 12.3476 174.168 12.8595 174.68C13.3715 175.192 14.0659 175.48 14.7899 175.48H16.7899" fill="#F7F9FA"/>
<path d="M26.4699 154.02H14.7899C14.0659 154.02 13.3715 154.308 12.8595 154.82C12.3476 155.332 12.0599 156.026 12.0599 156.75V172.75C12.0599 173.474 12.3476 174.168 12.8595 174.68C13.3715 175.192 14.0659 175.48 14.7899 175.48H16.7899" stroke="#1975F1"/>
<path d="M6.93994 76.1H21.6099" stroke="#1975F1"/>
<path d="M1.93994 178.77H14.0899C14.814 178.77 15.5084 178.482 16.0203 177.97C16.5323 177.458 16.8199 176.764 16.8199 176.04V154.04" fill="#F7F9FA"/>
<path d="M1.93994 178.77H14.0899C14.814 178.77 15.5084 178.482 16.0203 177.97C16.5323 177.458 16.8199 176.764 16.8199 176.04V154.04" stroke="#1975F1"/>
<path d="M14.27 91.2C16.8436 91.2 18.93 89.1137 18.93 86.54C18.93 83.9664 16.8436 81.88 14.27 81.88C11.6963 81.88 9.60999 83.9664 9.60999 86.54C9.60999 89.1137 11.6963 91.2 14.27 91.2Z" fill="#F7F9FA" stroke="#1975F1"/>
<path d="M14.27 115.5C16.8436 115.5 18.93 113.414 18.93 110.84C18.93 108.266 16.8436 106.18 14.27 106.18C11.6963 106.18 9.60999 108.266 9.60999 110.84C9.60999 113.414 11.6963 115.5 14.27 115.5Z" fill="#F7F9FA" stroke="#1975F1"/>
<path d="M1.93994 362.02H26.6099" stroke="#1975F1"/>
<path d="M7.18994 72.64H21.4099" stroke="#1975F1"/>
</g>
<defs>
<clipPath id="clip0_1992_3764">
<rect width="26.67" height="406.81" fill="white" transform="translate(0.939941 0.960022)"/>
</clipPath>
</defs>
</svg>
