<svg width="20" height="387" viewBox="0 0 20 387" fill="none" xmlns="http://www.w3.org/2000/svg">
<g clip-path="url(#clip0_1992_3760)">
<path d="M10.15 385.77H16.57C17.1667 385.77 17.739 385.533 18.161 385.111C18.5829 384.689 18.82 384.117 18.82 383.52V57.18L18.53 53.18L11.14 2.04002C11.14 1.77481 11.0346 1.52045 10.8471 1.33292C10.6595 1.14538 10.4052 1.04002 10.14 1.04002C9.87475 1.04002 9.62039 1.14538 9.43286 1.33292C9.24532 1.52045 9.13996 1.77481 9.13996 2.04002L1.76996 53.09L1.47996 57.18V350.67C1.47307 351.152 1.62369 351.622 1.9089 352.01C2.19411 352.398 2.5983 352.683 3.05996 352.82C4.17996 353.13 5.64996 354.12 6.66996 356.97C6.7354 357.153 6.756 357.35 6.73003 357.543C6.70406 357.736 6.63228 357.92 6.52068 358.079C6.40909 358.239 6.26092 358.369 6.08856 358.46C5.91621 358.551 5.72467 358.599 5.52996 358.6H3.72996C3.43449 358.6 3.14191 358.658 2.86893 358.771C2.59594 358.884 2.3479 359.05 2.13897 359.259C1.93004 359.468 1.76431 359.716 1.65123 359.989C1.53816 360.262 1.47996 360.555 1.47996 360.85V383.52C1.47996 384.117 1.71702 384.689 2.13897 385.111C2.56093 385.533 3.13323 385.77 3.72996 385.77H10.15Z" fill="#F7F9FA" stroke="#1975F1"/>
<path d="M2.47998 352.56C3.84998 344.12 6.53998 331.1 10.14 331.1C15.47 331.1 18.81 359.6 18.81 359.6" fill="#F7F9FA"/>
<path d="M2.47998 352.56C3.84998 344.12 6.53998 331.1 10.14 331.1C15.47 331.1 18.81 359.6 18.81 359.6" stroke="#1975F1"/>
<path d="M1.47998 56.3C1.47998 51.3 5.97998 46.56 10.15 46.56C14.32 46.56 18.82 51.26 18.82 56.3" fill="#F7F9FA"/>
<path d="M1.47998 56.3C1.47998 51.3 5.97998 46.56 10.15 46.56C14.32 46.56 18.82 51.26 18.82 56.3" stroke="#1975F1"/>
<path d="M10.15 55.94C7.63999 55.94 5.60999 61.4 5.60999 68.13V299.29C5.60999 306.02 7.60999 311.48 10.15 311.48C12.69 311.48 14.69 306.02 14.69 299.29V68.12C14.69 61.39 12.65 55.94 10.15 55.94Z" fill="#F7F9FA" stroke="#1975F1"/>
</g>
<defs>
<clipPath id="clip0_1992_3760">
<rect width="19.33" height="386.59" fill="white" transform="translate(0.47998 0.180023)"/>
</clipPath>
</defs>
</svg>
