<svg width="134" height="148" viewBox="0 0 134 148" fill="none" xmlns="http://www.w3.org/2000/svg">
<g clip-path="url(#clip0_1992_3768)">
<path d="M66.7499 146.77C102.549 146.77 131.57 117.749 131.57 81.95C131.57 46.1509 102.549 17.13 66.7499 17.13C30.9508 17.13 1.92993 46.1509 1.92993 81.95C1.92993 117.749 30.9508 146.77 66.7499 146.77Z" fill="#F7F9FA" stroke="#1975F1"/>
<path d="M46.4599 26.08C34.9851 30.2467 25.0712 37.8451 18.0653 47.8426C11.0593 57.8401 7.30103 69.7521 7.30103 81.96C7.30103 94.1679 11.0593 106.08 18.0653 116.077C25.0712 126.075 34.9851 133.673 46.4599 137.84" fill="#F7F9FA"/>
<path d="M46.4599 26.08C34.9851 30.2467 25.0712 37.8451 18.0653 47.8426C11.0593 57.8401 7.30103 69.7521 7.30103 81.96C7.30103 94.1679 11.0593 106.08 18.0653 116.077C25.0712 126.075 34.9851 133.673 46.4599 137.84" stroke="#1975F1"/>
<path d="M87.0399 137.84C98.5148 133.673 108.429 126.075 115.435 116.077C122.441 106.08 126.199 94.1679 126.199 81.96C126.199 69.7521 122.441 57.8401 115.435 47.8426C108.429 37.8451 98.5148 30.2467 87.0399 26.08" fill="#F7F9FA"/>
<path d="M87.0399 137.84C98.5148 133.673 108.429 126.075 115.435 116.077C122.441 106.08 126.199 94.1679 126.199 81.96C126.199 69.7521 122.441 57.8401 115.435 47.8426C108.429 37.8451 98.5148 30.2467 87.0399 26.08" stroke="#1975F1"/>
<path d="M113.16 114.55C124.43 110.72 132.7 97.91 132.7 82.71C132.7 67.51 124.42 54.71 113.16 50.87" fill="#F7F9FA"/>
<path d="M113.16 114.55C124.43 110.72 132.7 97.91 132.7 82.71C132.7 67.51 124.42 54.71 113.16 50.87" stroke="#1975F1"/>
<path d="M94.3299 71.59C96.1786 63.854 99.0719 56.4056 102.93 49.45C96.5899 53.06 81.3399 60.79 66.7499 60.79C57.1999 60.79 47.3699 57.48 39.9299 54.19C39.94 57.6865 40.2209 61.1769 40.7699 64.63C41.0622 66.2773 41.8467 67.7974 43.0199 68.99" fill="#F7F9FA"/>
<path d="M94.3299 71.59C96.1786 63.854 99.0719 56.4056 102.93 49.45C96.5899 53.06 81.3399 60.79 66.7499 60.79C57.1999 60.79 47.3699 57.48 39.9299 54.19C39.94 57.6865 40.2209 61.1769 40.7699 64.63C41.0622 66.2773 41.8467 67.7974 43.0199 68.99" stroke="#1975F1"/>
<path d="M39.5599 90.36C37.6799 100.56 33.0299 110 30.5599 114.46C36.8799 110.85 52.1399 103.12 66.7299 103.12C81.3199 103.12 96.5799 110.86 102.9 114.46C100.45 110 95.7899 100.55 93.8999 90.33" fill="#F7F9FA"/>
<path d="M39.5599 90.36C37.6799 100.56 33.0299 110 30.5599 114.46C36.8799 110.85 52.1399 103.12 66.7299 103.12C81.3199 103.12 96.5799 110.86 102.9 114.46C100.45 110 95.7899 100.55 93.8999 90.33" stroke="#1975F1"/>
<path d="M114.41 107.13C117.637 103.942 120.187 100.135 121.905 95.9365C123.624 91.7383 124.476 87.2359 124.41 82.7C124.476 78.1641 123.624 73.6618 121.905 69.4635C120.187 65.2652 117.637 61.4578 114.41 58.27" fill="#F7F9FA"/>
<path d="M114.41 107.13C117.637 103.942 120.187 100.135 121.905 95.9365C123.624 91.7383 124.476 87.2359 124.41 82.7C124.476 78.1641 123.624 73.6618 121.905 69.4635C120.187 65.2652 117.637 61.4578 114.41 58.27" stroke="#1975F1"/>
<path d="M77.1699 70.22H56.3199C52.1612 70.22 48.7899 73.5913 48.7899 77.75V86.16C48.7899 90.3187 52.1612 93.69 56.3199 93.69H77.1699C81.3286 93.69 84.6999 90.3187 84.6999 86.16V77.75C84.6999 73.5913 81.3286 70.22 77.1699 70.22Z" fill="#F7F9FA" stroke="#1975F1"/>
<path d="M102.93 49.45C102.93 49.45 95.05 58.61 93.05 61.27C91.7549 63.167 90.8788 65.3181 90.48 67.58V96.32C90.48 96.32 91.22 101.1 93.63 103.94C96.04 106.78 102.93 114.46 102.93 114.46" fill="#F7F9FA"/>
<path d="M102.93 49.45C102.93 49.45 95.05 58.61 93.05 61.27C91.7549 63.167 90.8788 65.3181 90.48 67.58V96.32C90.48 96.32 91.22 101.1 93.63 103.94C96.04 106.78 102.93 114.46 102.93 114.46" stroke="#1975F1"/>
<path d="M30.58 114.46C30.58 114.46 37.78 106.28 39.94 103.78C42.1 101.28 43.03 96.33 43.03 96.33V67.59" fill="#F7F9FA"/>
<path d="M30.58 114.46C30.58 114.46 37.78 106.28 39.94 103.78C42.1 101.28 43.03 96.33 43.03 96.33V67.59" stroke="#1975F1"/>
<path d="M93.6199 1.19004H18.5399C17.434 1.19004 16.3733 1.62938 15.5913 2.41141C14.8093 3.19344 14.3699 4.25409 14.3699 5.36004V17.77C14.3417 18.9278 14.7732 20.0496 15.5699 20.89C16.3445 21.6644 16.7797 22.7148 16.7799 23.81V68.2701C16.7856 68.8269 16.6797 69.3792 16.4684 69.8945C16.2572 70.4097 15.9449 70.8775 15.5499 71.2701C15.155 71.6626 14.8427 72.1304 14.6314 72.6456C14.4201 73.1609 14.3142 73.7132 14.3199 74.2701V86.19C14.3199 87.296 14.7593 88.3567 15.5413 89.1387C16.3233 89.9207 17.384 90.36 18.4899 90.36H43.0299V68.97C41.8567 67.7774 41.0722 66.2573 40.7799 64.61C40.0199 60.29 39.8699 55.48 39.8699 45.77C39.8699 36.06 40.0199 31.06 40.7799 26.68C41.1264 24.714 42.1562 22.9335 43.6876 21.6527C45.219 20.372 47.1536 19.6733 49.1499 19.68H82.5599C83.2588 19.6798 83.9465 19.8551 84.5599 20.19L85.1099 20.49C85.7233 20.825 86.411 21.0003 87.1099 21H93.1699C93.7177 21.0004 94.2601 20.8928 94.7663 20.6835C95.2725 20.4742 95.7324 20.1672 96.1199 19.78L96.5799 19.32C96.9671 18.9325 97.2741 18.4726 97.4834 17.9664C97.6927 17.4602 97.8003 16.9178 97.7999 16.37V5.37004C97.8012 4.82075 97.694 4.27661 97.4844 3.76887C97.2748 3.26113 96.967 2.79981 96.5786 2.4114C96.1901 2.02299 95.7288 1.71514 95.2211 1.50554C94.7134 1.29594 94.1692 1.18873 93.6199 1.19004Z" fill="#F7F9FA" stroke="#1975F1"/>
<path d="M93.62 71.52H90.47V90.36H93.62C94.7242 90.3574 95.7823 89.9169 96.5621 89.1351C97.342 88.3534 97.78 87.2942 97.78 86.19V75.69C97.78 74.5858 97.342 73.5267 96.5621 72.7449C95.7823 71.9632 94.7242 71.5227 93.62 71.52Z" fill="#F7F9FA" stroke="#1975F1"/>
<path d="M78.87 14.19H54.63C52.9476 14.1967 51.3156 14.7651 49.9931 15.805C48.6706 16.8449 47.7333 18.2967 47.33 19.93C47.9146 19.8009 48.5112 19.7338 49.11 19.73H82.57C83.2682 19.725 83.9563 19.897 84.57 20.23L85.14 20.54C85.5308 20.7497 85.9529 20.8949 86.39 20.97C86.1992 19.1091 85.3243 17.3853 83.9349 16.1326C82.5456 14.88 80.7406 14.1877 78.87 14.19Z" fill="#F7F9FA" stroke="#1975F1"/>
<path d="M36.64 71.19C35.9663 70.8514 35.398 70.3353 34.9962 69.6974C34.5943 69.0594 34.3744 68.3238 34.36 67.57V24.55C34.3744 23.7962 34.5943 23.0606 34.9962 22.4227C35.398 21.7847 35.9663 21.2686 36.64 20.93" fill="#F7F9FA"/>
<path d="M36.64 71.19C35.9663 70.8514 35.398 70.3353 34.9962 69.6974C34.5943 69.0594 34.3744 68.3238 34.36 67.57V24.55C34.3744 23.7962 34.5943 23.0606 34.9962 22.4227C35.398 21.7847 35.9663 21.2686 36.64 20.93" stroke="#1975F1"/>
<path d="M20.09 20.93C20.7636 21.2686 21.332 21.7847 21.7338 22.4227C22.1356 23.0606 22.3556 23.7962 22.37 24.55V67.61C22.3484 68.357 22.1251 69.0842 21.7236 69.7144C21.3222 70.3447 20.7577 70.8546 20.09 71.19" fill="#F7F9FA"/>
<path d="M20.09 20.93C20.7636 21.2686 21.332 21.7847 21.7338 22.4227C22.1356 23.0606 22.3556 23.7962 22.37 24.55V67.61C22.3484 68.357 22.1251 69.0842 21.7236 69.7144C21.3222 70.3447 20.7577 70.8546 20.09 71.19" stroke="#1975F1"/>
</g>
<defs>
<clipPath id="clip0_1992_3768">
<rect width="132.77" height="147.58" fill="white" transform="translate(0.929932 0.190033)"/>
</clipPath>
</defs>
</svg>
