<?xml version="1.0" encoding="utf-8"?>
<!-- Generator: Adobe Illustrator 25.4.1, SVG Export Plug-In . SVG Version: 6.00 Build 0)  -->
<svg version="1.1" id="Layer_1" xmlns="http://www.w3.org/2000/svg" xmlns:xlink="http://www.w3.org/1999/xlink" x="0px" y="0px"
	 viewBox="0 0 700 115.9" style="enable-background:new 0 0 700 115.9;" xml:space="preserve">
<g id="nvo5U8_00000150069426775678966330000003637257538602235047_">
	<g>
		<path d="M217,0c4,1.2,8,2.2,11.9,3.6c26.1,9.6,41.4,34.3,38.2,61.6c-3,25.5-24.6,46.7-51.1,50.1c-36,4.6-67.8-23.4-67-59
			c0.6-26.6,20.4-49.8,47.2-55.3c1.3-0.3,2.6-0.7,3.8-1C205.7,0,211.3,0,217,0z M208.5,10.9c-26.6-0.1-47.8,20.7-48,47.2
			c-0.2,25.2,21.7,46.6,47.6,46.7c26.6,0.1,47.9-20.9,47.9-47.3C256,32,234.7,11,208.5,10.9z"/>
		<path d="M45,0c5.8,2.9,12.2,4.9,17.1,8.8C76.3,20,80.3,39.2,72.7,56.3c-1.9,4.2-4.4,8.2-6.9,12.1C56.6,82.3,47.3,96.1,38.1,110
			c-0.8,1.2-1.7,2.4-2.7,3.7c-4,0-7.9,0-13.1,0c4.6-6.8,8.6-12.8,12.6-18.8c4-5.9,7.9-11.8,12-17.8c-5.7,0.2-11.1,1.3-16.1,0.5
			c-14.5-2.3-23.4-11.7-28.6-25C1.4,50.4,0.7,48.2,0,46c0-4.7,0-9.3,0-14c2.4-5.3,4.3-10.9,7.3-15.8C12.6,7.4,21.4,2.9,31,0
			C35.7,0,40.3,0,45,0z M38.4,10.9c-14.8,0-27.2,12.4-27.2,27.5c-0.1,15.2,12.4,28.3,27.2,28.3c15,0.1,26.6-11.7,26.6-27.2
			C65,23.6,53.3,11,38.4,10.9z"/>
		<path d="M700,56c-4,0-8,0-12.1,0c-7.2-10-16.5-16.2-29-16.1c-9.5,0-17.6,3.3-24.3,10c-12.7,12.7-12.3,33.5,0.8,46.2
			c14.5,14.1,35.3,11.9,52.3-5.7c3.5,0,7,0,11.2,0c-2.5,6.7-6.5,11.5-11.5,15.4c-14.4,11.4-30.4,13-47,5.8
			c-16.5-7.2-25.1-20.4-25.9-38.3c-1-21,16.4-40.6,38-43.3c19.8-2.5,35.9,5.6,46,23c0.4,0.7,1,1.3,1.5,2C700,55.3,700,55.7,700,56z"
			/>
		<path d="M475.6,2.4c5.8,0,10.9,0,16.5,0c0,37.1,0,73.9,0,110.9c-1.5,0.2-2.6,0.5-3.7,0.5c-1.8,0.1-3.6,0-6.1,0
			c0-32.7,0-64.9,0-97.1c-0.6-0.1-1.1-0.3-1.7-0.4c-13.7,32.3-27.4,64.6-41.2,97.2c-3,0-5.8,0-9.5,0c-13.5-31.9-27.2-64.1-40.8-96.3
			c-0.5,0.1-0.9,0.2-1.4,0.3c0,31.8,0,63.7,0,96c-3.7,0-6.8,0-10.4,0c0-36.9,0-73.7,0-110.9c5.5,0,10.8,0,16.4,0
			c13.4,31.2,26.8,62.4,40.2,93.6c0.4,0.1,0.9,0.2,1.3,0.3C448.8,65.1,462.1,33.9,475.6,2.4z"/>
		<path d="M348.5,12.1c-13.9,0-27.2,0-41.2,0c-1.8,9.8-3.6,19.3-5.5,30c15.1-6.9,28.9-6.5,41.5,3.5c8.8,7,13.6,16.4,14.6,27.5
			c2,22.9-15.2,42.5-37,42.8c-20.6,0.3-39.5-17.6-38.6-37c3.3,0,6.7,0,10.4,0c3.4,15.5,11.4,26.3,28.9,25.8
			c11.5-0.3,21.2-9.1,24-20.7c3-12.2-2-25.2-12-31.5c-11.3-7.1-21.6-5.1-37.3,7.5c-2.5-0.9-5.3-1.9-8.6-3.1
			c3.4-18.4,6.7-36.5,10.1-54.9c17,0,33.6,0,50.6,0C348.5,5.3,348.5,8.3,348.5,12.1z"/>
		<path d="M587.5,99.8c-8.5,10.8-19.3,16-32.4,15.9c-13.3-0.1-24.5-5.6-33.8-15C506.9,86.1,507.6,59,522.8,43
			c8.9-9.4,20-13.7,32.7-13.5c12.7,0.2,23.6,5,31.1,16.2c0.3-0.2,0.6-0.3,0.9-0.5c0.2-4.4,0.4-8.7,0.6-13.6c3.2,0,6,0,9.3,0
			c0,27.2,0,54.2,0,81.8c-2.9,0-5.8,0-9.3,0C588,108.8,587.7,104.3,587.5,99.8z M555.1,39.9c-18.5,0-33.3,14.5-33.3,32.7
			c0,18.1,14.8,32.6,33.4,32.6c17.7,0,32.7-15,32.5-32.5C587.5,54.2,573.3,39.9,555.1,39.9z"/>
		<path d="M113,12.1c-9,0-17.1,0-25.6,0c0-3.5,0-6.4,0-9.9c20.6,0,41.1,0,62,0c0,3.2,0,6.2,0,9.8c-8.3,0-16.2,0-25,0
			c0,34,0,67.6,0,101.5c-4.2,0-7.5,0-11.5,0C113,79.9,113,46.5,113,12.1z"/>
		<path d="M204,54.8c0-10.6,0-20.3,0-29.9c0-1.5-0.5-3.3,0.2-4.4c1-1.6,2.8-3.4,4.4-3.6c1-0.2,2.6,2.3,3.7,3.7
			c0.4,0.5,0.2,1.6,0.2,2.4c0,11.3,0.1,22.6,0,33.9c0,5.4-1,6.4-6.5,6.4c-7.5,0.1-15,0-22.4,0c-3.1,0-6-0.6-5.8-4.4
			c0.1-3.4,2.8-4.1,5.7-4.1C190,54.8,196.6,54.8,204,54.8z"/>
	</g>
</g>
</svg>
