<svg width="96" height="64" viewBox="0 0 96 64" fill="none" xmlns="http://www.w3.org/2000/svg">
<path d="M66 32.4405C66 31.2002 65.88 29.9198 65.6799 28.7195H48.3551V35.8014H58.2779C57.8778 38.0821 56.5574 40.0826 54.5969 41.363L60.5185 45.9642C63.9995 42.7234 66 38.002 66 32.4405Z" fill="#4280EF"/>
<path d="M48.355 50.3654C53.3164 50.3654 57.4775 48.725 60.5184 45.9242L54.5967 41.3629C52.9563 42.4833 50.8357 43.1234 48.355 43.1234C43.5537 43.1234 39.5126 39.8825 38.0322 35.5613L31.9505 40.2426C35.0713 46.4443 41.3931 50.3654 48.355 50.3654Z" fill="#34A353"/>
<path d="M38.0322 35.5213C37.272 33.2407 37.272 30.76 38.0322 28.4794L31.9505 23.7581C29.3498 28.9595 29.3498 35.0812 31.9505 40.2426L38.0322 35.5213Z" fill="#F6B704"/>
<path d="M48.355 20.9173C50.9557 20.8773 53.5164 21.8776 55.397 23.6781L60.6384 18.3966C57.3175 15.2757 52.9163 13.5953 48.355 13.6353C41.3931 13.6353 35.0713 17.5564 31.9505 23.7581L38.0322 28.4794C39.5126 24.1182 43.5537 20.9173 48.355 20.9173Z" fill="#E54335"/>
</svg>
