<svg width="96" height="64" viewBox="0 0 96 64" fill="none" xmlns="http://www.w3.org/2000/svg">
<g clip-path="url(#clip0_1096_30885)">
<path d="M41.915 27.5661C40.5564 27.5661 39.0113 28.1959 38.0672 29.4568L38.0679 29.4542L38.0672 29.4549L38.0679 27.7641H34.8275V39.5643H38.0672V32.8498C38.0672 31.6413 39.0043 30.3568 40.7391 30.3568C42.0798 30.3568 43.4672 31.2894 43.4672 32.8498V39.5643H46.7076V32.2494C46.7076 29.5354 44.7658 27.5661 41.915 27.5661Z" fill="#E60012"/>
<path d="M69.7375 27.7646L66.8082 35.8026L63.8789 27.7646H60.1773L65.0325 39.561H68.5833L73.4384 27.7646H69.7375Z" fill="#E60012"/>
<path d="M25.1539 31.3194C25.7058 30.5785 26.5847 30.1435 27.6463 30.1435C28.8139 30.1435 29.6999 30.8103 30.1579 31.7946L24.4966 34.1433C24.3421 32.938 24.6506 31.9952 25.1539 31.3194ZM31.3792 35.9363C30.0154 36.9455 29.2362 37.1863 27.9925 37.1863C26.8734 37.1863 25.9971 36.8388 25.3794 36.2295L33.6633 32.793C33.4826 31.5123 32.9965 30.3683 32.2485 29.4983C31.1601 28.2343 29.5491 27.5655 27.5875 27.5655C24.0246 27.5655 21.338 30.1939 21.338 33.6655C21.338 37.2272 24.031 39.7649 27.9446 39.7649C30.1374 39.7649 32.3794 38.7257 33.4283 37.5114L31.3792 35.9363Z" fill="#E60012"/>
<path d="M21.0292 36.5891H13.6644V24.235H10.38V39.5644H21.0292V36.5891Z" fill="#E60012"/>
<path d="M79.2568 30.3422C77.4472 30.3422 76.1333 31.7136 76.1333 33.6644C76.1333 35.527 77.5252 36.9865 79.3002 36.9865C81.1105 36.9865 82.4237 35.5774 82.4237 33.6644C82.4237 31.8018 81.0325 30.3422 79.2568 30.3422ZM79.2568 39.7631C75.713 39.7631 72.9364 37.1232 72.9364 33.6644C72.9364 30.2445 75.7322 27.5656 79.3002 27.5656C82.844 27.5656 85.62 30.2056 85.62 33.6644C85.62 37.0836 82.8249 39.7631 79.2568 39.7631Z" fill="#E60012"/>
<path d="M54.3092 30.3422C52.4997 30.3422 51.1864 31.7136 51.1864 33.6644C51.1864 35.527 52.5776 36.9865 54.3533 36.9865C56.1629 36.9865 57.4762 35.5774 57.4762 33.6644C57.4762 31.8018 56.085 30.3422 54.3092 30.3422ZM54.3092 39.7631C50.7655 39.7631 47.9895 37.1232 47.9895 33.6644C47.9895 30.2445 50.7846 27.5656 54.3533 27.5656C57.8964 27.5656 60.6731 30.2056 60.6731 33.6644C60.6731 37.0836 57.8773 39.7631 54.3092 39.7631Z" fill="#E60012"/>
</g>
<defs>
<clipPath id="clip0_1096_30885">
<rect width="76" height="15.96" fill="white" transform="translate(10 24.02)"/>
</clipPath>
</defs>
</svg>
