<svg width="96" height="64" viewBox="0 0 96 64" fill="none" xmlns="http://www.w3.org/2000/svg">
<path d="M10 36.7837V20.8025H12.8073V36.7837H10Z" fill="black"/>
<path d="M19.9933 25.19C16.394 25.19 13.9032 27.9574 13.9032 31.125C13.9032 34.6602 16.6129 37.0955 20.0213 37.0955C23.256 37.0955 26.063 34.705 26.063 31.1173C26.063 28.1005 23.737 25.19 19.9933 25.19ZM19.9602 27.8981C21.8438 27.8981 23.2303 29.3643 23.2303 31.1351C23.2303 33.0127 21.7017 34.3823 20.0111 34.3823C18.0134 34.3823 16.7563 32.799 16.7563 31.1402C16.7563 29.322 18.1756 27.8981 19.9602 27.8981Z" fill="black"/>
<path d="M33.1164 25.19C29.5171 25.19 27.0263 27.9574 27.0263 31.125C27.0263 34.6602 29.736 37.0955 33.1443 37.0955C36.3791 37.0955 39.1861 34.705 39.1861 31.1173C39.1861 29.0047 38.2712 28.0673 38.2712 28.0673L39.0493 27.8004V25.5221H35.0621C35.0621 25.5221 34.1978 25.19 33.1164 25.19ZM33.0833 27.8981C34.9669 27.8981 36.3534 29.3643 36.3534 31.1351C36.3534 33.0127 34.8248 34.3823 33.1342 34.3823C31.1365 34.3823 29.8794 32.799 29.8794 31.1402C29.8794 29.322 31.2987 27.8981 33.0833 27.8981Z" fill="black"/>
<path d="M36.3335 37.5649C36.3335 39.4424 34.8049 40.8222 33.1143 40.8222C31.1166 40.8222 29.8544 39.2237 29.8544 37.5649H27.0064C27.0064 41.1001 29.7161 43.5354 33.1244 43.5354C36.3592 43.5354 39.1662 41.1525 39.1662 37.5649H36.3335Z" fill="black"/>
<path d="M40.3105 36.7837V25.522H43.1177V36.7837H40.3105Z" fill="black"/>
<path d="M45.8437 36.7837V28.0445H44.3383V25.522H45.8437V22.0638H48.651V25.522H50.197V28.0445H48.651V36.7837H45.8437Z" fill="black"/>
<path d="M43.5672 22.3235C43.5672 23.3502 42.7349 24.1825 41.7082 24.1825C40.6816 24.1825 39.8493 23.3502 39.8493 22.3235C39.8493 21.2968 40.6816 20.4645 41.7082 20.4645C42.7349 20.4645 43.5672 21.2968 43.5672 22.3235Z" fill="black"/>
<path d="M56.5083 25.1823C52.8919 25.1823 50.5606 27.9512 50.5606 31.2266C50.5606 34.6114 52.8997 37.1031 56.5668 37.1031C59.9875 37.1031 61.6702 34.9671 61.6702 34.9671L59.7936 33.088C59.7936 33.088 58.3767 34.6162 56.6024 34.6162C55.1233 34.6162 53.9407 33.7907 53.5281 32.2768H62.2754V31.5038C62.2754 28.4193 60.4901 25.1823 56.5083 25.1823ZM56.4193 27.6539C57.7125 27.6539 59.035 28.3458 59.3308 29.9984H53.4518C53.6847 28.8367 54.7009 27.6539 56.4193 27.6539Z" fill="black"/>
<path d="M69.2973 37.1045C65.6707 37.1045 63.1996 34.3424 63.1996 31.0857C63.1996 27.7247 65.9924 25.1802 69.2856 25.1802C72.4693 25.1802 74.0988 27.4277 74.0988 27.4277L72.1405 29.3771C72.1405 29.3771 71.0061 27.9114 69.2723 27.9114C67.3507 27.9114 66.0367 29.3814 66.0367 31.1288C66.0367 32.9738 67.4344 34.3894 69.2507 34.3894C71.0124 34.3894 72.1378 32.926 72.1378 32.926L74.1157 34.8744C74.1157 34.8744 72.502 37.1045 69.2973 37.1045Z" fill="black"/>
<path d="M75.137 36.7918V20.7619H77.9443V26.6514C77.9443 26.6514 79.0192 25.1802 81.3575 25.1802C84.297 25.1802 86 27.3654 86 30.1602V36.7918H83.1927V30.5845C83.1927 28.7069 82.0238 27.9279 80.7288 27.9279C79.2533 27.9279 77.9443 28.7676 77.9443 30.7298V36.7918H75.137Z" fill="black"/>
</svg>
