<svg width="96" height="64" viewBox="0 0 96 64" fill="none" xmlns="http://www.w3.org/2000/svg">
<g clip-path="url(#clip0_104_5562)">
<path d="M41.2701 26.8815V37.1185H39.4929V29.0853H39.4692L36.2938 37.1185H35.109L31.8626 29.0853H31.8389V37.1185H30.2038V26.8815H32.763L35.7014 34.4645H35.7488L38.8531 26.8815H41.2701ZM42.7393 27.6635C42.7393 27.3792 42.8341 27.1422 43.0474 26.9526C43.2607 26.763 43.4976 26.6683 43.782 26.6683C44.0901 26.6683 44.3507 26.763 44.5403 26.9526C44.7299 27.1422 44.8483 27.3792 44.8483 27.6635C44.8483 27.9479 44.7536 28.1848 44.5403 28.3744C44.327 28.564 44.0901 28.6588 43.782 28.6588C43.4739 28.6588 43.237 28.564 43.0474 28.3744C42.8578 28.1611 42.7393 27.9242 42.7393 27.6635ZM44.6588 29.7725V37.1185H42.9289V29.7725H44.6588ZM49.8957 35.8626C50.1564 35.8626 50.4408 35.8152 50.7488 35.673C51.0569 35.5545 51.3412 35.3886 51.6019 35.1991V36.8104C51.3175 36.9763 51.0095 37.0948 50.654 37.1659C50.2986 37.237 49.9194 37.2844 49.4929 37.2844C48.4029 37.2844 47.5261 36.9526 46.8626 36.2654C46.1754 35.5782 45.8436 34.7014 45.8436 33.6588C45.8436 32.4739 46.1991 31.5024 46.8863 30.7441C47.5735 29.9858 48.545 29.6066 49.8247 29.6066C50.1564 29.6066 50.4882 29.654 50.7962 29.7251C51.128 29.7962 51.3886 29.9147 51.5782 30.0095V31.6683C51.3175 31.4787 51.0332 31.3128 50.7725 31.218C50.4882 31.1232 50.2038 31.0521 49.9194 31.0521C49.2322 31.0521 48.6872 31.2654 48.2607 31.7156C47.8341 32.1659 47.6446 32.7583 47.6446 33.5166C47.6446 34.2512 47.8578 34.8436 48.2607 35.2465C48.6635 35.6493 49.2085 35.8626 49.8957 35.8626ZM56.5071 29.654C56.6493 29.654 56.7678 29.654 56.8863 29.6777C57.0047 29.7014 57.0995 29.7251 57.1706 29.7488V31.5024C57.0758 31.4313 56.9574 31.3602 56.7678 31.3128C56.5782 31.2654 56.3886 31.218 56.128 31.218C55.7014 31.218 55.346 31.4076 55.0616 31.763C54.7773 32.1185 54.6114 32.6635 54.6114 33.4218V37.1185H52.8815V29.7725H54.6114V30.9337H54.6351C54.801 30.5308 55.0379 30.2228 55.346 29.9858C55.6777 29.7725 56.0569 29.654 56.5071 29.654ZM57.2654 33.564C57.2654 32.3555 57.6209 31.3839 58.2844 30.673C58.9716 29.9621 59.9194 29.6066 61.128 29.6066C62.2654 29.6066 63.1659 29.9384 63.8057 30.6256C64.4455 31.3128 64.7773 32.237 64.7773 33.3981C64.7773 34.5829 64.4218 35.5308 63.7583 36.2417C63.0711 36.9526 62.1469 37.3081 60.9621 37.3081C59.8247 37.3081 58.9242 36.9763 58.2607 36.3128C57.5972 35.6256 57.2654 34.7014 57.2654 33.564ZM59.0664 33.4929C59.0664 34.2512 59.2322 34.8436 59.5877 35.2465C59.9431 35.6493 60.4408 35.8626 61.0806 35.8626C61.6967 35.8626 62.1943 35.673 62.5261 35.2465C62.8578 34.8436 63.0237 34.2512 63.0237 33.4455C63.0237 32.6635 62.8578 32.0711 62.5261 31.6446C62.1943 31.2417 61.6967 31.0284 61.1043 31.0284C60.4645 31.0284 59.9905 31.2417 59.6351 31.6683C59.2322 32.1185 59.0664 32.7109 59.0664 33.4929ZM67.3602 31.7156C67.3602 31.9526 67.4313 32.1659 67.5972 32.3081C67.763 32.4502 68.0948 32.6161 68.6398 32.8294C69.327 33.1138 69.8246 33.4218 70.0853 33.7536C70.3697 34.109 70.5119 34.5119 70.5119 35.0095C70.5119 35.6967 70.2512 36.2417 69.7062 36.6683C69.1848 37.0948 68.4502 37.2844 67.5498 37.2844C67.2417 37.2844 66.91 37.237 66.5308 37.1659C66.1517 37.0948 65.8436 37 65.5829 36.8815V35.1754C65.891 35.3886 66.2465 35.5782 66.6019 35.6967C66.9574 35.8152 67.2891 35.8863 67.5972 35.8863C67.9763 35.8863 68.2844 35.8389 68.4502 35.7204C68.6398 35.6019 68.7346 35.436 68.7346 35.1754C68.7346 34.9384 68.6398 34.7488 68.4502 34.5592C68.2607 34.3934 67.8815 34.2038 67.3602 33.9905C66.7204 33.7299 66.2701 33.4218 66.0095 33.0901C65.7488 32.7583 65.6066 32.3318 65.6066 31.8104C65.6066 31.1469 65.8673 30.6019 66.3886 30.1754C66.91 29.7488 67.5972 29.5356 68.4265 29.5356C68.6872 29.5356 68.9716 29.5592 69.2796 29.6303C69.5877 29.7014 69.872 29.7725 70.0853 29.8436V31.5261C69.8483 31.3839 69.5877 31.2417 69.2796 31.1232C68.9716 31.0047 68.6635 30.9574 68.3792 30.9574C68.0474 30.9574 67.7867 31.0284 67.6209 31.1469C67.455 31.3128 67.3602 31.4787 67.3602 31.7156ZM71.2465 33.564C71.2465 32.3555 71.6019 31.3839 72.2654 30.673C72.9526 29.9621 73.9005 29.6066 75.109 29.6066C76.2465 29.6066 77.1469 29.9384 77.7867 30.6256C78.4265 31.3128 78.7583 32.237 78.7583 33.3981C78.7583 34.5829 78.4028 35.5308 77.7393 36.2417C77.0521 36.9526 76.128 37.3081 74.9431 37.3081C73.8057 37.3081 72.9052 36.9763 72.2417 36.3128C71.6019 35.6256 71.2465 34.7014 71.2465 33.564ZM73.0474 33.4929C73.0474 34.2512 73.2133 34.8436 73.5687 35.2465C73.9242 35.6493 74.4218 35.8626 75.0616 35.8626C75.6777 35.8626 76.1754 35.673 76.5071 35.2465C76.8389 34.8436 77.0047 34.2512 77.0047 33.4455C77.0047 32.6635 76.8389 32.0711 76.5071 31.6446C76.1754 31.2417 75.6777 31.0284 75.0853 31.0284C74.4455 31.0284 73.9716 31.2417 73.6161 31.6683C73.237 32.1185 73.0474 32.7109 73.0474 33.4929ZM84.5166 31.1943H81.9337V37.1185H80.1801V31.1943H78.9479V29.7725H80.1801V28.7536C80.1801 27.9953 80.4408 27.3555 80.9384 26.8578C81.436 26.3602 82.0758 26.1232 82.8578 26.1232C83.0711 26.1232 83.2607 26.1469 83.4265 26.1469C83.5924 26.1469 83.7346 26.1943 83.8531 26.2417V27.7346C83.8057 27.7109 83.6872 27.6635 83.545 27.6161C83.4028 27.5687 83.237 27.545 83.0474 27.545C82.692 27.545 82.4076 27.6635 82.218 27.8768C82.0284 28.0901 81.9337 28.4455 81.9337 28.872V29.7488H84.5166V28.0901L86.2465 27.5687V29.7488H88V31.1706H86.2465V34.6066C86.2465 35.0569 86.3412 35.3649 86.4834 35.5545C86.6493 35.7441 86.91 35.8389 87.2654 35.8389C87.3602 35.8389 87.4787 35.8152 87.6209 35.7678C87.763 35.7204 87.8815 35.673 87.9763 35.6019V37.0237C87.8578 37.0948 87.692 37.1422 87.4313 37.1896C87.1706 37.237 86.9337 37.2607 86.673 37.2607C85.9384 37.2607 85.3934 37.0711 85.0379 36.692C84.6825 36.3128 84.4929 35.7204 84.4929 34.9384L84.5166 31.1943Z" fill="#737373"/>
<path d="M16.1043 23.4692H8V31.5735H16.1043V23.4692Z" fill="#F25022"/>
<path d="M25.0616 23.4692H16.9574V31.5735H25.0616V23.4692Z" fill="#7FBA00"/>
<path d="M16.1043 32.4265H8V40.5308H16.1043V32.4265Z" fill="#00A4EF"/>
<path d="M25.0616 32.4265H16.9574V40.5308H25.0616V32.4265Z" fill="#FFB900"/>
</g>
<defs>
<clipPath id="clip0_104_5562">
<rect width="80" height="17.0616" fill="white" transform="translate(8 23.4692)"/>
</clipPath>
</defs>
</svg>
