<svg width="96" height="64" viewBox="0 0 96 64" fill="none" xmlns="http://www.w3.org/2000/svg">
<path d="M58.8437 34.308C57.4508 34.308 56.3172 33.1744 56.3172 31.7816C56.3172 30.3888 57.4508 29.2552 58.8437 29.2552C60.2365 29.2552 61.3701 30.3888 61.3701 31.7816C61.3701 33.1744 60.2229 34.308 58.8437 34.308ZM58.8437 27.7527C56.6172 27.7527 54.8148 29.5552 54.8148 31.7816C54.8148 34.008 56.6172 35.8104 58.8437 35.8104C61.0701 35.8104 62.8725 34.008 62.8725 31.7816C62.8725 29.5552 61.0701 27.7527 58.8437 27.7527Z" fill="black"/>
<path d="M53.914 34.5128H54.2421V36.0288H53.914C52.1796 36.0288 50.7596 34.6088 50.7596 32.8744V25.9503H52.2756V27.9711H54.2284V29.4872H52.2756V32.888C52.2756 33.776 53.0132 34.5128 53.914 34.5128Z" fill="black"/>
<path d="M72.3775 34.308C70.9847 34.308 69.851 33.1744 69.851 31.7816C69.851 30.3888 70.9847 29.2552 72.3775 29.2552C73.7703 29.2552 74.9039 30.3888 74.9039 31.7816C74.8903 33.188 73.7567 34.308 72.3775 34.308ZM72.3775 27.7527C70.1511 27.7527 68.3486 29.5552 68.3486 31.7816C68.3486 34.008 70.1511 35.8104 72.3775 35.8104C74.6039 35.8104 76.4063 34.008 76.4063 31.7816C76.4063 29.5552 74.6039 27.7527 72.3775 27.7527Z" fill="black"/>
<path d="M83.972 34.308C82.5792 34.308 81.4456 33.1744 81.4456 31.7816C81.4456 30.3888 82.5792 29.2552 83.972 29.2552C85.3648 29.2552 86.4985 30.3888 86.4985 31.7816C86.4985 33.1744 85.3512 34.308 83.972 34.308ZM83.972 27.7527C81.7456 27.7527 79.9432 29.5552 79.9432 31.7816C79.9432 34.008 81.7456 35.8104 83.972 35.8104C84.9552 35.8104 85.8569 35.4552 86.5529 34.868V35.66H88.0001V31.7816C88.0001 29.5696 86.1977 27.7527 83.9712 27.7527" fill="black"/>
<path d="M67.0382 27.7527H67.7622V29.2688H67.0382C66.1366 29.2688 65.3998 30.0064 65.3998 30.9072V35.7144H63.8838V30.9072C63.8838 29.1728 65.3038 27.7527 67.0382 27.7527Z" fill="black"/>
<path d="M78.9327 25.7455H77.4167V35.6872H78.9327V25.7455Z" fill="black"/>
<path d="M40.6803 31.1128V35.9064H39.1643V31.1128C39.1643 30.2112 38.4267 29.4744 37.5259 29.4744C36.6251 29.4744 35.8874 30.212 35.8874 31.1128V35.9064H34.3714V31.1128C34.3714 30.2112 33.6338 29.4744 32.733 29.4744C31.8322 29.4744 31.0946 30.212 31.0946 31.1128V35.9064H29.5786V31.1128C29.5786 29.3784 30.9986 27.9584 32.7194 27.9584C33.689 27.9584 34.5354 28.3816 35.1226 29.0648C35.7098 28.3816 36.5563 27.9584 37.5259 27.9584C39.2603 27.9584 40.6803 29.3784 40.6803 31.1128Z" fill="black"/>
<path d="M45.7332 34.5128C44.3404 34.5128 43.2068 33.3792 43.2068 31.9864C43.2068 30.5936 44.3404 29.46 45.7332 29.46C47.126 29.46 48.2596 30.5936 48.2596 31.9864C48.2596 33.3792 47.1124 34.5128 45.7332 34.5128ZM45.7332 27.9576C43.4932 27.9576 41.6908 29.76 41.6908 31.9864C41.6908 34.2128 43.4932 36.0152 45.7196 36.0152C47.946 36.0152 49.7484 34.2128 49.7484 31.9864C49.762 29.7744 47.9596 27.9576 45.7332 27.9576Z" fill="black"/>
<path d="M17.1633 22.8367C12.0968 22.8367 8 26.9335 8 32C8 37.0664 12.0968 41.1633 17.1633 41.1633C22.2297 41.1633 26.3266 37.0664 26.3266 32C26.3266 26.9335 22.2849 22.8367 17.1633 22.8367Z" fill="black"/>
<path d="M19.8953 25.0903L17.1777 34.104L17.1641 34.1176L17.1369 34.104L14.4185 25.0903L10.9088 36.6296H11.5641C11.5641 36.6296 12.0009 34.6224 12.7249 33.42C13.1209 32.7648 13.7217 32.232 14.5273 32.2456C15.1009 32.2592 15.5929 32.5736 16.2073 33.4336C16.3441 33.6248 16.5081 33.9392 16.6713 34.2392C16.9305 34.7448 17.1489 35.2632 17.1489 35.2632C17.1489 35.2632 17.7225 33.952 18.0913 33.4336C18.7057 32.5736 19.1977 32.2592 19.7713 32.2456C20.5769 32.232 21.1913 32.7648 21.5737 33.42C22.2978 34.6216 22.7346 36.6296 22.7346 36.6296H23.3898L19.8953 25.0903Z" fill="white"/>
</svg>
