<?xml version="1.0" encoding="UTF-8"?><svg id="Layer_1" xmlns="http://www.w3.org/2000/svg" viewBox="0 0 1000 500"><defs><style>.cls-1{fill:#124191;fill-rule:evenodd;}</style></defs><path class="cls-1" d="m252.72,281.71l-76.06-93.9h-66.67v126.76h38.5v-96.71l77.93,95.77h64.79v-126.76h-38.5v94.84Zm170.89-96.71h-65.73c-22.54,0-34.74,2.82-43.19,11.27-5.63,5.63-8.45,12.21-8.45,29.11v48.83c0,17.84,3.76,23.47,8.45,29.11,8.45,8.45,19.72,11.27,43.19,11.27h65.73c22.54,0,34.74-2.82,43.19-11.27,5.63-5.63,8.45-12.21,8.45-29.11v-48.83c0-17.84-2.82-23.48-8.45-29.11-8.45-8.45-20.66-11.27-43.19-11.27Zm15.02,84.51c0,7.51-.94,9.39-2.82,11.27-1.88,1.88-5.63,1.88-14.08,1.88h-61.97c-8.45,0-12.21-.94-14.08-1.88-1.88-1.88-2.82-3.76-2.82-11.27v-38.5c0-7.51.94-9.39,2.82-11.27,1.88-1.88,5.63-2.82,14.08-2.82h61.97c8.45,0,12.21,0,14.08,2.82,2.82.94,2.82,3.76,2.82,11.27v38.5Zm52.58-82.63v126.76h40.38v-126.76h-40.38Zm160.56,0h-52.58l-67.61,60.09,73.24,65.73h56.34l-80.75-67.61,71.36-58.22Zm16.9,126.76h40.38v-126.76h-40.38v126.76Zm169.02-126.76h-49.77l-71.36,126.76h44.13l12.21-21.6h77.93l12.21,21.6h46.95l-72.3-126.76Zm-51.64,76.99l25.35-46.01,25.35,46.01h-50.7Z"/></svg>