<?xml version="1.0" encoding="UTF-8" standalone="no"?>
<!-- Created with Inkscape (http://www.inkscape.org/) -->

<svg
   width="96"
   height="64"
   viewBox="0 0 224.825 59.227276"
   version="1.1"
   id="svg7964"
   xml:space="preserve"
   inkscape:version="1.2.1 (9c6d41e410, 2022-07-14)"
   sodipodi:docname="Polaroid 2022.svg"
   xmlns:inkscape="http://www.inkscape.org/namespaces/inkscape"
   xmlns:sodipodi="http://sodipodi.sourceforge.net/DTD/sodipodi-0.dtd"
   xmlns="http://www.w3.org/2000/svg"
   xmlns:svg="http://www.w3.org/2000/svg"><sodipodi:namedview
     id="namedview7966"
     pagecolor="#ffffff"
     bordercolor="#000000"
     borderopacity="0.25"
     inkscape:showpageshadow="2"
     inkscape:pageopacity="0.0"
     inkscape:pagecheckerboard="0"
     inkscape:deskcolor="#d1d1d1"
     inkscape:document-units="mm"
     showgrid="true"
     inkscape:zoom="1"
     inkscape:cx="472.5"
     inkscape:cy="109"
     inkscape:window-width="1920"
     inkscape:window-height="1009"
     inkscape:window-x="-8"
     inkscape:window-y="-8"
     inkscape:window-maximized="1"
     inkscape:current-layer="layer1" /><defs
     id="defs7961" /><g
     inkscape:label="Layer 1"
     inkscape:groupmode="layer"
     id="layer1"
     transform="translate(-2.778125,-83.608333)"><path
       id="circle8153"
       style="fill:#151011;fill-opacity:1;stroke:none;stroke-width:10.0364;stroke-linecap:round;paint-order:stroke fill markers"
       d="m 186.4228,83.608333 a 5.2720621,5.2215487 0 0 0 -5.27224,5.22155 5.2720621,5.2215487 0 0 0 5.27224,5.221548 5.2720621,5.2215487 0 0 0 5.27225,-5.221548 5.2720621,5.2215487 0 0 0 -5.27225,-5.22155 z m -110.393801,0.07051 v 45.133187 h 8.503666 V 83.678848 Z m 142.921261,0 v 15.744486 c -2.66235,-1.667696 -5.63114,-2.608445 -8.35448,-2.608445 -9.14569,0 -16.55977,6.898806 -16.55977,16.478176 1e-5,9.06367 7.0118,16.41117 16.55977,16.41117 7.60854,0 17.00734,-4.16946 17.00734,-20.81218 V 83.678848 Z M 56.037926,96.7368 c -9.228083,0 -16.708953,6.95216 -16.708958,16.48517 -4e-6,9.62255 7.48087,16.48519 16.708958,16.48519 9.228087,0 16.708962,-6.86264 16.708957,-16.48519 -4e-6,-9.10449 -6.713441,-16.48517 -16.708957,-16.48517 z m 47.366914,0 c -8.610127,0 -15.590056,7.3807 -15.590058,16.48517 -3e-6,9.10449 6.515692,16.48519 15.590058,16.48519 4.80104,0 8.10079,-2.18234 10.21931,-5.27634 v 4.38121 h 8.50367 V 97.78111 h -8.50367 v 4.20521 c -2.07749,-3.043466 -5.33904,-5.24952 -10.21931,-5.24952 z m 41.84699,0 c -4.06349,0 -7.33162,1.320457 -9.3242,5.07237 v -4.02806 h -8.50367 v 31.03092 h 8.50367 v -15.66465 c 0,-5.96747 4.55802,-8.65285 9.3242,-8.65285 z m 16.70895,0 c -9.22808,0 -16.70894,6.95216 -16.70895,16.48517 0,9.62255 7.48087,16.48519 16.70895,16.48519 9.22809,0 16.70896,-6.86264 16.70896,-16.48519 -1e-5,-9.10449 -6.71346,-16.48517 -16.70896,-16.48517 z M 19.785456,96.81082 c -12.6808917,0 -17.007331,9.7378 -17.007331,20.81218 v 25.21261 h 8.652853 v -15.74389 c 2.662346,1.66769 5.631135,2.60844 8.354478,2.60844 9.145686,0 16.559775,-6.89881 16.559771,-16.47819 -5e-6,-9.06364 -6.65351,-16.41115 -16.559771,-16.41115 z m 162.166404,0.970299 v 31.030911 h 8.80203 V 97.78111 Z m -77.05516,6.862601 c 2.90915,0 8.57827,2.53618 8.57827,8.57825 0,4.86918 -4.17725,8.57827 -8.57827,8.57827 -5.192146,0 -8.429064,-3.68384 -8.429065,-8.57827 -10e-7,-4.55019 3.132943,-8.57825 8.429065,-8.57825 z m 105.77367,0.071 c 4.25182,0 7.98152,3.53581 7.98152,8.44597 0,3.09701 -2.13972,8.41218 -7.98152,8.41218 -4.76586,0 -8.13069,-4.3219 -8.13069,-8.41218 0,-4.68096 3.8188,-8.44597 8.13069,-8.44597 z m -154.632444,0.0781 c 4.028043,0 8.056105,3.43131 8.056105,8.50365 0,4.96368 -4.028062,8.50367 -8.056105,8.50367 -4.102381,0 -8.056104,-3.53999 -8.056104,-8.50367 0,-5.00756 3.878874,-8.50365 8.056104,-8.50365 z m 105.922854,0 c 4.02804,0 8.0561,3.43131 8.0561,8.50365 0,4.96368 -4.02806,8.50367 -8.0561,8.50367 -4.10238,0 -8.05611,-3.53999 -8.05611,-8.50367 0,-5.00756 3.87889,-8.50365 8.05611,-8.50365 z M 19.710862,104.942 c 4.765867,0 8.130699,4.3219 8.130699,8.41217 0,4.68096 -3.818801,8.44597 -8.130699,8.44597 -4.251818,0 -7.981512,-3.53582 -7.98151,-8.44597 10e-7,-3.097 2.139706,-8.41217 7.98151,-8.41217 z" /></g></svg>
