<svg width="96" height="64" viewBox="0 0 96 64" fill="none" xmlns="http://www.w3.org/2000/svg">
<g clip-path="url(#clip0_104_5514)">
<path d="M83.9545 31.2519V32.9273H85.1267V34.5897C85.1303 34.7382 85.1223 34.8984 85.0968 35.0266C85.0503 35.3367 84.7571 35.8647 83.925 35.8647C83.0929 35.8647 82.81 35.3367 82.7599 35.0266C82.739 34.8984 82.73 34.7382 82.73 34.5897V29.3393C82.73 29.1535 82.7425 28.9504 82.7817 28.7965C82.8386 28.5167 83.0854 27.9648 83.9189 27.9648C84.7937 27.9648 85.0121 28.5466 85.0621 28.7965C85.095 28.962 85.097 29.2396 85.097 29.2396V29.8771H87.9772V29.5002C87.9772 29.5002 87.9902 29.1069 87.9553 28.74C87.7388 26.585 85.9711 25.9032 83.9443 25.9032C81.9174 25.9032 80.1819 26.5913 79.9296 28.74C79.9068 28.9364 79.8721 29.29 79.8721 29.5002V34.33C79.8721 34.5403 79.8789 34.7032 79.9176 35.0876C80.1056 37.1833 81.9138 37.9261 83.9362 37.9261C85.9586 37.9261 87.767 37.1832 87.9581 35.0876C87.992 34.7032 87.9956 34.5403 88.0001 34.33V31.2519H83.9546H83.9545ZM64.0947 26.2121H61.2022V34.7107C61.2068 34.8588 61.2022 35.0252 61.1768 35.1472C61.1165 35.4324 60.8757 35.9815 60.0778 35.9815C59.2799 35.9815 59.0431 35.4324 58.9873 35.1472C58.9584 35.0252 58.9548 34.8587 58.9584 34.7107V26.2121H56.0668V34.447C56.0632 34.6593 56.0798 35.0929 56.0922 35.2065C56.2918 37.3524 57.9754 38.049 60.0778 38.049C62.1802 38.049 63.8669 37.3524 64.0702 35.2065C64.0862 35.0929 64.1072 34.6593 64.0947 34.447V26.2121ZM37.5186 26.2121L36.0757 35.1919L34.6337 26.2121H29.9679L29.7205 37.7H32.5788L32.6562 27.0653L34.6229 37.7H37.523L39.4914 27.0653L39.5691 37.7H42.4347L42.1789 26.2121H37.5184H37.5186ZM20.244 26.2121L18.1255 37.7H21.2148L22.8114 27.0653L24.3695 37.7H27.4374L25.3277 26.2121H20.2441H20.244ZM74.2032 35.4612L71.51 26.2121H67.266V37.5802H70.0734L69.9104 28.0353L72.8029 37.5802H76.8732V26.2121H74.0474L74.2034 35.4612H74.2032ZM48.2339 29.2019C48.1831 28.975 48.1979 28.7339 48.2241 28.608C48.3059 28.2403 48.5518 27.8392 49.2606 27.8392C49.9211 27.8392 50.3084 28.2529 50.3084 28.8735V29.576H53.1281V28.7753C53.1281 26.3001 50.9188 25.9113 49.3192 25.9113C47.3046 25.9113 45.6595 26.5783 45.359 28.4407C45.2796 28.9476 45.2599 29.3975 45.3864 29.9715C45.8763 32.2938 49.9011 32.9674 50.4853 34.436C50.5884 34.7142 50.5589 35.069 50.5063 35.278C50.4188 35.6602 50.1627 36.0446 49.404 36.0446C48.6923 36.0446 48.264 35.6337 48.264 35.0143L48.2631 33.9118H45.2282V34.7882C45.2282 37.3276 47.2084 38.0937 49.3411 38.0937C51.4738 38.0937 53.0708 37.3926 53.3415 35.4921C53.4706 34.5101 53.3732 33.8706 53.3214 33.6297C52.8485 31.2478 48.5587 30.5313 48.234 29.2019M11.04 29.1737C10.9846 28.9421 10.9975 28.6977 11.0284 28.5703C11.1066 28.2044 11.354 27.7962 12.0752 27.7962C12.7441 27.7962 13.138 28.2137 13.138 28.8395V29.5505H15.9907V28.7434C15.9905 26.2445 13.7474 25.8462 12.1304 25.8462C10.099 25.8462 8.43906 26.5236 8.13535 28.3995C8.05219 28.9145 8.03801 29.3674 8.15815 29.9478C8.65337 32.2966 12.7179 32.9756 13.3094 34.4618C13.4201 34.738 13.3866 35.0928 13.3317 35.31C13.2379 35.6962 12.9799 36.0861 12.2148 36.0861C11.5004 36.0861 11.073 35.6681 11.073 35.04L11.069 33.9346H8V34.813C8 37.3815 10.0082 38.1539 12.1576 38.1539C14.3069 38.1539 15.9208 37.4465 16.1976 35.524C16.3353 34.533 16.232 33.8881 16.1856 33.6436C15.7029 31.2325 11.3655 30.5184 11.0398 29.1737" fill="#283895"/>
</g>
<defs>
<clipPath id="clip0_104_5514">
<rect width="80" height="12.3077" fill="white" transform="translate(8 25.8462)"/>
</clipPath>
</defs>
</svg>
