<svg width="96" height="64" viewBox="0 0 96 64" fill="none" xmlns="http://www.w3.org/2000/svg">
<path d="M47.9688 13.969C38.4969 13.969 30.7374 21.2724 30 30.554L39.6643 34.5497C40.4832 33.9897 41.4724 33.6616 42.5367 33.6616C42.6321 33.6616 42.727 33.6648 42.8212 33.6701L47.119 27.4407C47.119 27.411 47.1186 27.382 47.1186 27.3527C47.1186 23.6031 50.1687 20.5526 53.9186 20.5526C57.6682 20.5526 60.7183 23.6031 60.7183 27.3527C60.7183 31.1022 57.6682 34.1531 53.9186 34.1531C53.8668 34.1531 53.8155 34.1519 53.7641 34.1507L47.6346 38.5243C47.6378 38.6038 47.6407 38.6849 47.6407 38.7656C47.6407 41.5805 45.3512 43.8696 42.5367 43.8696C40.0662 43.8696 38.0005 42.1063 37.5325 39.7711L30.6212 36.9138C32.7611 44.4822 39.7144 50.0309 47.9688 50.0309C57.9274 50.0309 66 41.9579 66 32.0006C66 22.0416 57.927 13.969 47.9688 13.969Z" fill="#C5C3C0"/>
<path d="M41.2992 41.3282L39.0843 40.4131C39.4768 41.2303 40.1559 41.9147 41.0575 42.2905C43.0066 43.1025 45.2538 42.1776 46.0661 40.2268C46.4595 39.2836 46.4619 38.2422 46.0718 37.2966C45.6826 36.3505 44.9481 35.6127 44.0036 35.219C43.0666 34.8289 42.0626 34.8432 41.1806 35.1762L43.4685 36.1222C44.9061 36.7214 45.586 38.3722 44.9868 39.8098C44.3888 41.2479 42.7368 41.9277 41.2992 41.3282Z" fill="#C5C3C0"/>
<path d="M58.4491 27.3526C58.4491 24.8544 56.4168 22.8217 53.9182 22.8217C51.42 22.8217 49.3873 24.8544 49.3873 27.3526C49.3873 29.8513 51.42 31.8832 53.9182 31.8832C56.4168 31.8828 58.4491 29.8508 58.4491 27.3526ZM50.522 27.3449C50.522 25.465 52.0461 23.9414 53.9259 23.9414C55.8058 23.9414 57.3298 25.465 57.3298 27.3449C57.3298 29.2248 55.8058 30.7484 53.9259 30.7484C52.0461 30.7484 50.522 29.2244 50.522 27.3449Z" fill="#C5C3C0"/>
</svg>
