<svg width="96" height="64" viewBox="0 0 96 64" fill="none" xmlns="http://www.w3.org/2000/svg">
<path d="M67.1906 43.7306H53.6103L46.8 31.9213L53.6095 20.112H67.1898L74 31.9213L67.1906 43.7306ZM55.8142 29.2443C54.358 31.7639 55.2239 34.9911 57.7427 36.448C60.2623 37.9042 63.4895 37.0384 64.9465 34.5196C66.4034 32.0008 65.5368 28.7728 63.018 27.3158C60.4992 25.8588 57.2704 26.7255 55.8142 29.2443ZM29.2825 27.9849L31.8415 29.441L29.7548 33.0626L27.1958 31.6064L22 40.6206L29.6367 45.0293L33.8093 37.8255L42.9415 43.1001C44.9487 44.2414 47.4683 43.5723 48.6096 41.5652C49.751 39.558 49.0819 37.0384 47.0747 35.8971L37.9818 30.5832L42.115 23.3794L34.4791 18.9707L29.2825 27.9849Z" fill="black"/>
</svg>
