<svg width="96" height="64" viewBox="0 0 96 64" fill="none" xmlns="http://www.w3.org/2000/svg">
<path d="M10 42.64V21.36H86V42.64H10ZM23.2088 25.7248L20.6764 35.3641L18.1439 25.7248H15.7907L19.5903 38.4554H21.7625L25.562 25.7248H23.2088ZM36.4177 25.7248H33.3422L29.5426 38.4554H32.0751L32.8531 35.3641H36.7258L37.5038 38.4554H40.0362L36.4177 25.7248ZM54.1501 36.2738H48.7214V25.7248H46.3683V38.4554H47.6354H48.7214H54.1501V36.2738ZM64.8265 25.7248L62.2941 35.3641L59.7616 25.7248H57.4084L61.208 38.4554H63.3801L67.1797 25.7248H64.8265ZM77.8543 32.8187H74.4168V30.8174H77.4923V29.1799H74.4168V27.3605H77.8543V25.723H74.4168H72.6067V34.4527H74.4168H77.8543V32.8187ZM34.7903 27.7261L36.2193 33.3645H33.3596L34.7903 27.7261Z" fill="#F74843"/>
</svg>
