<svg width="96" height="64" viewBox="0 0 96 64" fill="none" xmlns="http://www.w3.org/2000/svg">
<g clip-path="url(#clip0_104_5533)">
<path d="M24.65 23.6622C24.4115 23.2519 23.9735 23.0024 23.4994 23.0024H20.8824C20.4083 23.0024 19.9675 23.2575 19.7319 23.6678L12.1773 36.7337C11.9389 37.144 11.9389 37.6514 12.1773 38.0617L13.4886 40.3322C13.7242 40.7425 14.165 40.9976 14.6391 40.9976H29.7399C30.214 40.9976 30.652 40.7453 30.8905 40.335L32.2018 38.0617C32.4374 37.6514 32.4374 37.144 32.2018 36.7337L24.65 23.6622ZM25.7894 37.9924C23.444 38.7298 20.9267 38.7298 18.5813 37.9924C17.2506 37.5821 16.4439 36.232 16.7156 34.8652C17.2257 32.4283 18.4871 30.2132 20.3196 28.5277C21.3675 27.5629 22.9782 27.5629 24.0262 28.5277C25.8587 30.2132 27.1173 32.4283 27.6302 34.8652C27.9047 36.232 27.1007 37.5848 25.7672 37.9951H25.7894V37.9924Z" fill="#00B3E3"/>
<path d="M70.9036 28.2393L66.3431 37.2134C66.2682 37.3575 66.1213 37.449 65.9577 37.449H64.4496C64.286 37.449 64.1391 37.3575 64.0642 37.2134L59.5038 28.2393C59.4261 28.0924 59.4261 27.9122 59.5038 27.7653L59.9917 26.9336C60.0832 26.7645 60.2606 26.6591 60.4519 26.6563H60.8955C61.0119 26.6563 61.12 26.7201 61.1727 26.8255L65.0068 34.4521C65.0623 34.5602 65.1953 34.6018 65.3035 34.5436C65.3423 34.5242 65.3755 34.4909 65.3949 34.4521L69.2291 26.8255C69.279 26.7201 69.3899 26.6536 69.5063 26.6563H69.9471C70.1384 26.6563 70.3158 26.7645 70.4073 26.9336L70.8869 27.7653C70.9673 27.9122 70.9673 28.0896 70.8869 28.2366" fill="#2C3A50"/>
<path d="M48.3091 28.2393L43.7459 37.2134C43.671 37.3575 43.5241 37.449 43.3605 37.449H41.8579C41.6943 37.449 41.5474 37.3575 41.4726 37.2134L36.9065 28.2393C36.8289 28.0924 36.8289 27.9122 36.9065 27.7653L37.3917 26.9336C37.486 26.77 37.6606 26.6702 37.8491 26.6702H38.2927C38.4091 26.6674 38.52 26.734 38.5699 26.8393L42.4041 34.466C42.4595 34.5741 42.5926 34.6157 42.7007 34.5575C42.7395 34.5381 42.7728 34.5048 42.7922 34.466L46.6263 26.8393C46.6762 26.734 46.7871 26.6674 46.9035 26.6702H47.3443C47.5329 26.6702 47.7075 26.77 47.8018 26.9336L48.2814 27.7791C48.3646 27.9233 48.3701 28.1007 48.2952 28.2504" fill="#2C3A50"/>
<path d="M54.8407 26.7839C54.7575 26.7007 54.6466 26.6563 54.5302 26.6563H53.8482C53.6542 26.6563 53.4795 26.7645 53.388 26.9336L52.9029 27.7653C52.8585 27.8401 52.8363 27.9261 52.8363 28.012V37.011C52.8363 37.2522 53.0332 37.449 53.2743 37.449H54.533C54.7742 37.449 54.9682 37.2549 54.9682 37.0137V27.0916C54.9682 26.9752 54.9211 26.8615 54.8379 26.7811" fill="#2C3A50"/>
<path d="M75.9963 26.9197C76.0906 26.7561 76.2652 26.6563 76.4537 26.6563H82.9881C83.1739 26.6563 83.3457 26.7534 83.44 26.9142L83.9002 27.7043C83.9667 27.8179 84 27.9482 84 28.0785V28.2754C84 28.4389 83.8669 28.572 83.7034 28.572H77.7373C77.6153 28.572 77.5183 28.6691 77.5183 28.791V30.8592C77.5183 30.9812 77.6153 31.0782 77.7373 31.0782H81.7766C81.9734 31.081 82.1287 31.239 82.1315 31.4358V32.6224C82.1315 32.8192 81.9707 32.9772 81.7738 32.98H77.7373C77.6153 32.98 77.5183 33.077 77.5183 33.199V35.3254C77.5183 35.4474 77.6153 35.5444 77.7373 35.5444H83.695C83.8586 35.5444 83.9889 35.6747 83.9917 35.8383V36.0379C83.9917 36.1682 83.9584 36.2985 83.8919 36.4122L83.4317 37.2023C83.3402 37.3631 83.1683 37.4601 82.9826 37.4601H76.451C76.2624 37.4601 76.0878 37.3603 75.9935 37.1967L75.5389 36.4122C75.4723 36.2985 75.4391 36.1682 75.4391 36.0379V28.0813C75.4391 27.951 75.4723 27.8207 75.5389 27.7071L75.9963 26.9197Z" fill="#2C3A50"/>
</g>
<defs>
<clipPath id="clip0_104_5533">
<rect width="72" height="17.9952" fill="white" transform="translate(12 23.0024)"/>
</clipPath>
</defs>
</svg>
