<svg
   version="1.1"
   id="_x32_0_IFIXIT"
   xml:space="preserve"
   sodipodi:docname="ifixit-logo-blue-white-20Years-final.svg"
   inkscape:version="1.2.2 (b0a8486541, 2022-12-01)"
   xmlns:inkscape="http://www.inkscape.org/namespaces/inkscape"
   xmlns:sodipodi="http://sodipodi.sourceforge.net/DTD/sodipodi-0.dtd"
   xmlns:xlink="http://www.w3.org/1999/xlink"
   xmlns="http://www.w3.org/2000/svg"
   xmlns:svg="http://www.w3.org/2000/svg"
   width="183.8818px"
   height="47.7881px"
   viewBox="0 0 183.8818 47.7881"
   fill="none"
   focusable="false"
   style="display: block">
<style
   type="text/css"
   id="style2">
	.st0{fill:#FFFFFF;}
	.st1{fill:#0071CE;}
	.st2{clip-path:url(#SVGID_00000145778418669828847000000001864860847353900203_);}
	.st3{fill:#B0D100;}
	.st4{fill:#FF2A51;}
	.st5{fill:#FFB300;}
</style>
<path
   class="st0"
   d="M120.3158,15.3111c-1.0613,0-1.8987,0.8374-1.8987,1.8987v13.761c0,1.0613,0.8374,1.8987,1.8987,1.8987  c1.0613,0,1.8987-0.8396,1.8987-1.8987v-13.761C122.2145,16.1507,121.3749,15.3111,120.3158,15.3111z M113.6324,15.4588h-9.668  c-1.0613,0-1.8987,0.8396-1.8987,1.8987v13.6132c0,1.0613,0.8396,1.8987,1.8987,1.8987c1.0613,0,1.8987-0.8396,1.8987-1.8987  v-4.9303h6.6588c0.9628,0,1.7263-0.7635,1.7263-1.7263c0-0.9628-0.7635-1.7263-1.7263-1.7263h-6.6588v-3.6742h7.7694  c0.9628,0,1.7263-0.7635,1.7263-1.7263C115.3587,16.2246,114.5929,15.4588,113.6324,15.4588z M95.8502,15.3111  c-1.0613,0-1.8987,0.8374-1.8987,1.8987v13.761c0,1.0613,0.8396,1.8987,1.8987,1.8987c1.0613,0,1.8987-0.8396,1.8987-1.8987v-13.761  C97.7488,16.1507,96.9115,15.3111,95.8502,15.3111z M166.4327,15.4588H155.334c-0.9628,0-1.7509,0.7904-1.7509,1.7509  c0,0.9628,0.7881,1.7509,1.7509,1.7509h3.6496v12.0101c0,1.0613,0.8374,1.8987,1.8987,1.8987s1.8987-0.8396,1.8987-1.8987V18.9629  h3.6496c0.9628,0,1.7509-0.7881,1.7509-1.7509C168.1836,16.2492,167.3955,15.4588,166.4327,15.4588z M148.749,15.3111  c-1.0613,0-1.8987,0.8374-1.8987,1.8987v13.761c0,1.0613,0.8374,1.8987,1.8987,1.8987s1.8987-0.8396,1.8987-1.8987v-13.761  C150.6499,16.1507,149.8103,15.3111,148.749,15.3111z M142.6768,16.0477c-0.7568-0.7568-1.9815-0.7568-2.7361,0l-5.4095,5.4094  l-5.4095-5.4094c-0.7568-0.7568-1.9815-0.7568-2.7361,0c-0.7568,0.7568-0.7568,1.9815,0,2.7361l5.4095,5.4094l-5.4095,5.4095  c-0.7568,0.7568-0.7568,1.9815,0,2.7361c0.3784,0.3784,0.8732,0.5665,1.368,0.5665s0.9896-0.1881,1.368-0.5665l5.4094-5.4095  l5.4095,5.4095c0.3784,0.3784,0.8732,0.5665,1.368,0.5665c0.4948,0,0.9919-0.1881,1.368-0.5665  c0.7568-0.7568,0.7568-1.9815,0-2.7361l-5.4095-5.4095l5.4095-5.4094C143.4336,18.0292,143.4336,16.8045,142.6768,16.0477z"
   id="path4" />
<path
   class="st1"
   d="M18.0569,34.0659c14.8785-10.7601,17.6586-13.1285,17.6586-16.526c0-2.3683-2.2138-3.604-4.8908-3.604  c-3.6555,0-6.5383,1.4418-9.0096,3.7582l-4.8908-5.8689c3.6551-4.0158,9.1123-5.7147,13.9005-5.7147  c8.0827,0,13.9,4.5306,13.9,11.4295c0,5.2511-3.7582,9.7301-12.9735,15.7021h13.2311v7.7224H18.0569V34.0659z"
   id="path6" />
<g
   id="g24">
	<defs
   id="defs9">
		<path
   id="SVGID_1_"
   d="M67.3476,5.7818c-9.9725,0-18.0554,8.0828-18.0554,18.0531c0,9.9726,8.0828,18.0554,18.0554,18.0554    c9.9703,0,18.0554-8.0851,18.0554-18.0554C85.4007,13.8647,77.3179,5.7818,67.3476,5.7818z M72.3786,24.5962l3.569,4.7131    c0.2955,0.3918,0.3135,1.0411,0.0381,1.4464L75.8043,31.02c-0.2754,0.4053-0.8262,0.9673-1.227,1.2516l-0.4299,0.3023    c-0.3985,0.2821-1.0456,0.2732-1.4352-0.0246l-4.7131-3.5735c-0.3896-0.2955-1.0277-0.2955-1.4195,0l-4.7131,3.5735    c-0.3896,0.2956-1.0411,0.3112-1.4419,0.0336l-0.3112-0.2149c-0.403-0.2776-0.9628-0.8352-1.2426-1.2359l-0.2687-0.3851    c-0.2799-0.4008-0.2687-1.0479,0.0269-1.4397l3.5735-4.7154c0.2956-0.3918,0.2956-1.0299,0-1.4195l-3.5757-4.7154    c-0.2955-0.3918-0.3067-1.0367-0.0246-1.4374l0.3045-0.4299c0.2821-0.4008,0.8441-0.9516,1.2494-1.227l0.2664-0.1814    c0.4053-0.2754,1.0546-0.2575,1.4442,0.0381l4.7131,3.5735c0.3896,0.2955,1.0277,0.2955,1.4195,0l4.7131-3.5735    c0.3896-0.2955,1.0523-0.3336,1.4755-0.0851l0.4926,0.2911c0.4232,0.2485,0.9605,0.8038,1.2001,1.2315l0.1746,0.3135    c0.2373,0.4277,0.1903,1.0971-0.1075,1.4889l-3.569,4.7154C72.0808,23.5663,72.0808,24.2067,72.3786,24.5962z" />
	</defs>
	<clipPath
   id="SVGID_00000158739017764653375610000010690204822559881149_">
		<use
   xlink:href="#SVGID_1_"
   style="overflow:visible;"
   id="use11" />
	</clipPath>
	<g
   style="clip-path:url(#SVGID_00000158739017764653375610000010690204822559881149_);"
   clip-path="url(#SVGID_00000158739017764653375610000010690204822559881149_)"
   id="g22">
		<defs
   id="defs15">
			<path
   id="SVGID_00000021089427590403199400000015969100620815716265_"
   d="M67.3476,5.7818     c-9.9725,0-18.0554,8.0828-18.0554,18.0531c0,9.9726,8.0828,18.0554,18.0554,18.0554c9.9703,0,18.0554-8.0851,18.0554-18.0554     C85.4007,13.8647,77.3179,5.7818,67.3476,5.7818z" />
		</defs>
		<use
   xlink:href="#SVGID_00000021089427590403199400000015969100620815716265_"
   style="overflow:visible;fill:#0071CE;"
   id="use17" />
		<clipPath
   id="SVGID_00000082330108391535917950000000650589893128204197_">
			<use
   xlink:href="#SVGID_00000021089427590403199400000015969100620815716265_"
   style="overflow:visible;"
   id="use19" />
		</clipPath>
	</g>
</g>
<g
   id="g82">
	<path
   class="st3"
   d="M40.4093,0l-1.8136,1.7671c1.6975,1.7418,3.8609,3.1848,4.5738,2.4901l1.8128-1.7671   C44.2702,3.1848,42.0979,1.7325,40.4093,0z"
   id="path26" />
	<path
   class="st1"
   d="M109.339,40.2667l-1.5783-1.1288c-1.0847,1.5155-1.8808,3.3429-1.2597,3.7864l1.5783,1.1288   C107.4582,43.6102,108.2604,41.7754,109.339,40.2667z"
   id="path28" />
	<path
   class="st3"
   d="M168.1385,10.0869l2.09,1.274c1.2234-2.0073,2.0557-4.3796,1.234-4.8799l-2.0896-1.274   C170.1939,5.7073,169.3558,8.0898,168.1385,10.0869z"
   id="path30" />
	<path
   class="st1"
   d="M119.938,5.2695l-2.2202,0.8291c0.7956,2.1327,2.1034,4.1849,2.9762,3.8597l2.2197-0.8295   C122.0414,9.4548,120.7295,7.391,119.938,5.2695z"
   id="path32" />
	<path
   class="st3"
   d="M141.012,38.2184l-3.0539,1.1409c1.0945,2.9334,2.8936,5.7564,4.0939,5.3091l3.0539-1.1406   C143.9058,43.9757,142.1012,41.1368,141.012,38.2184z"
   id="path34" />
	<path
   class="st1"
   d="M82.0448,0.5067l-2.367,0.2176c0.2074,2.2735,0.9324,4.604,1.8627,4.5196l2.3671-0.2176   C82.9782,5.1117,82.2523,2.769,82.0448,0.5067z"
   id="path36" />
	<path
   class="st1"
   d="M18.9021,3.2921l-0.6705-1.8655C16.4401,2.071,14.71,3.1431,14.973,3.8761l0.6705,1.8655   C15.3805,5.0086,17.1196,3.9331,18.9021,3.2921z"
   id="path38" />
	<path
   class="st4"
   d="M60.955,1.4915l1.0692,1.7686c-1.6995,1.0266-3.703,1.7201-4.1232,1.0261l-1.0683-1.768   C57.253,3.2138,59.2654,2.5133,60.955,1.4915z"
   id="path40" />
	<path
   class="st4"
   d="M128.6512,40.3884l-0.6882-1.1446c1.0988-0.6611,2.3961-1.1072,2.6666-0.6576l0.6875,1.1446   C131.0466,39.2812,129.7445,39.7307,128.6512,40.3884z"
   id="path42" />
	<path
   class="st4"
   d="M156.8442,40.2819l0.9098-0.8634c0.829,0.8735,1.5019,1.9721,1.1443,2.3112l-0.9098,0.8634   C158.346,42.2544,157.6688,41.1509,156.8442,40.2819z"
   id="path44" />
	<path
   class="st3"
   d="M2.9346,8.9268L4.736,9.6976c-0.7401,1.731-1.8988,3.375-2.6069,3.0729l-1.8014-0.7708   C1.0351,12.3025,2.1986,10.6481,2.9346,8.9268z"
   id="path46" />
	<path
   class="st3"
   d="M79.9779,43.2704l1.3418,0.5742c-0.5513,1.2894-1.4144,2.5141-1.9419,2.289l-1.3419-0.5742   C78.5629,45.7849,79.4296,44.5526,79.9779,43.2704z"
   id="path48" />
	<path
   class="st5"
   d="M8.5908,26.0169l-1.9977-2.0712c1.9897-1.9193,4.4987-3.4816,5.2834-2.6673l1.9977,2.0712   C13.0895,22.5354,10.5701,24.1088,8.5908,26.0169z"
   id="path50" />
	<path
   class="st4"
   d="M3.8387,30.1534l1.2249,1.5751c-1.5123,1.1768-3.3568,2.0712-3.8381,1.4517L0,31.6056   C0.482,32.2246,2.3341,31.3242,3.8387,30.1534z"
   id="path52" />
	<path
   class="st3"
   d="M54.8288,43.1547l0.4237,1.6589c-1.5927,0.4069-3.3498,0.478-3.5162-0.1733l-0.4242-1.6588   C51.4785,43.6333,53.2435,43.5602,54.8288,43.1547z"
   id="path54" />
	<path
   class="st4"
   d="M91.7123,10.3017l-1.7598-0.501c0.4809-1.6901,1.3597-3.3501,2.0517-3.154l1.7598,0.5004   C93.0726,6.9505,92.1904,8.6199,91.7123,10.3017z"
   id="path56" />
	<path
   class="st4"
   d="M105.6782,4.4397l1.5373-0.8555c0.8218,1.4769,1.3515,3.2046,0.7478,3.5399l-1.5378,0.8555   C107.0297,7.6432,106.4955,5.908,105.6782,4.4397z"
   id="path58" />
	<path
   class="st1"
   d="M160.2669,4.5706l0.9196,1.4777c-1.4196,0.883-3.0999,1.4901-3.4613,0.9104l-0.9195-1.4777   C157.1671,6.062,158.8546,5.449,160.2669,4.5706z"
   id="path60" />
	<path
   class="st4"
   d="M38.5957,46.1079l-0.5271,1.6802c-1.6138-0.5066-3.1879-1.3952-2.9816-2.0549l0.5271-1.6802   C35.4068,44.7136,36.9902,45.6038,38.5957,46.1079z"
   id="path62" />
	<path
   class="st1"
   d="M183.3405,28.0667l0.5413,1.9357c-1.8592,0.5196-3.9194,0.6487-4.1329-0.1108l-0.5412-1.9368   C179.4201,28.7154,181.4916,28.5829,183.3405,28.0667z"
   id="path64" />
	<path
   class="st5"
   d="M137.1674,7.9533l0.5938,2.0013c-1.9222,0.5705-4.0596,0.7386-4.2923-0.0474l-0.5938-2.0023   C133.1088,8.6918,135.2549,8.52,137.1674,7.9533z"
   id="path66" />
	<path
   class="st3"
   d="M176.4282,19.6927l-0.6512-1.8431c1.7709-0.6248,3.7609-0.8834,4.016-0.1599l0.6512,1.8426   C180.188,18.8088,178.1891,19.0709,176.4282,19.6927z"
   id="path68" />
	<path
   class="st4"
   d="M118.5574,44.4219l-0.018-2.5469c2.4477-0.018,5.0096,0.5098,5.0166,1.5113l0.017,2.5479   C123.566,44.9327,120.9911,44.4059,118.5574,44.4219z"
   id="path70" />
	<path
   class="st5"
   d="M174.7143,41.8188l-0.1058-2.1705c2.085-0.1009,4.2871,0.2577,4.3298,1.1108l0.1044,2.1705   C179.0014,42.0765,176.7882,41.718,174.7143,41.8188z"
   id="path72" />
	<path
   class="st5"
   d="M173.3458,31.768l-1.4416-0.1925c0.1846-1.3852,0.6862-2.7923,1.2534-2.7167l1.4416,0.1925   C174.033,28.9757,173.53,30.3896,173.3458,31.768z"
   id="path74" />
	<path
   class="st4"
   d="M146.1586,5.5933l-1.5736,1.9735c-1.8947-1.5125-3.5391-3.5147-2.9205-4.2902l1.5729-1.9728   C142.6196,2.0786,144.2742,4.0904,146.1586,5.5933z"
   id="path76" />
	<path
   class="st1"
   d="M6.9516,42.6269l0.3402,2.5735c2.4717-0.3268,4.9837-1.2189,4.8502-2.2302l-0.3401-2.574   C11.9354,41.4075,9.4101,42.3017,6.9516,42.6269z"
   id="path78" />
	<path
   class="st5"
   d="M91.4619,37.6285l-2.1466-0.1656c-0.159,2.062,0.1341,4.2542,0.9781,4.3189l2.1469,0.1656   C91.5965,41.8825,91.3038,39.6797,91.4619,37.6285z"
   id="path80" />
</g>
</svg>