<?xml version="1.0" encoding="utf-8"?>
<svg viewBox="0 0 236 72" fill="white" style="display: block" xmlns="http://www.w3.org/2000/svg">
  <defs>
    <clipPath id="clip-path" transform="translate(35.91 27.05)">
      <path class="cls-1" d="M65.32,0a65.32,65.32,0,1,0,65.32,65.31A65.31,65.31,0,0,0,65.32,0Zm18.2,68.07L96.44,85.12a4.81,4.81,0,0,1,.13,5.23l-.65,1a21.67,21.67,0,0,1-4.44,4.53l-1.56,1.09a4.67,4.67,0,0,1-5.19-.09l-17-12.93a4.52,4.52,0,0,0-5.14,0l-17,12.93a4.74,4.74,0,0,1-5.21.12l-1.13-.78a21.43,21.43,0,0,1-4.5-4.47l-1-1.39a4.74,4.74,0,0,1,.1-5.21L46.71,68.05a4.5,4.5,0,0,0,0-5.13L33.77,45.86a4.71,4.71,0,0,1-.09-5.2l1.1-1.56a21.38,21.38,0,0,1,4.52-4.44l1-.65a4.78,4.78,0,0,1,5.22.13l17,12.93a4.52,4.52,0,0,0,5.14,0l17-12.93a5.2,5.2,0,0,1,5.34-.3l1.78,1a14.07,14.07,0,0,1,4.34,4.45l.63,1.14a5.38,5.38,0,0,1-.38,5.38L83.52,62.92A4.53,4.53,0,0,0,83.52,68.07Z"/>
    </clipPath>
    <style>.cls-1{fill:none;}.cls-2{fill:#fff;}.cls-3{clip-path:url(#clip-path);}.cls-4{fill:#ffd400;}.cls-5{fill:#0071ce;}</style>
  </defs>
  <g id="Layer_2" data-name="Layer 2" transform="matrix(0.527977, 0, 0, 0.407125, -11.741398, -0.191758)">
    <g id="Layer_1-2" data-name="Layer 1">
      <path class="cls-2" d="M 187.482 54.907 C 187.482 47.628 193.442 43.078 198.21 46.719 C 200.424 48.41 201.787 51.53 201.787 54.907 L 201.787 123.405 C 201.787 130.686 195.826 135.234 191.058 131.595 C 188.845 129.905 187.482 126.783 187.482 123.405 L 187.482 54.907 Z" style=""/>
      <path class="cls-2" d="M 218.032 55.649 C 217.998 50.408 221.22 46.147 225.185 46.193 L 261.579 46.193 C 266.581 46.193 269.707 53.352 267.206 59.081 C 266.045 61.738 263.901 63.375 261.579 63.375 L 232.305 63.375 L 232.305 81.672 L 257.374 81.672 C 262.377 81.672 265.503 88.83 263.003 94.558 C 261.842 97.216 259.696 98.854 257.374 98.854 L 232.305 98.854 L 232.305 123.405 C 232.305 130.686 226.345 135.234 221.577 131.595 C 219.365 129.905 218.001 126.783 218.001 123.405 L 218.032 55.649 Z" style=""/>
      <path class="cls-2" d="M 279.599 54.907 C 279.39 47.633 285.215 42.787 290.084 46.185 C 292.516 47.882 293.998 51.273 293.894 54.907 L 293.894 123.405 C 294.104 130.68 288.278 135.527 283.409 132.13 C 280.975 130.431 279.494 127.04 279.599 123.405 L 279.599 54.907 Z" style=""/>
      <path class="cls-2" d="M 386.665 54.907 C 386.455 47.633 392.28 42.787 397.149 46.185 C 399.583 47.882 401.063 51.273 400.959 54.907 L 400.959 123.405 C 401.168 130.68 395.345 135.527 390.474 132.13 C 388.041 130.431 386.561 127.04 386.665 123.405 L 386.665 54.907 Z" style=""/>
      <path class="cls-2" d="M 432.35 63.623 L 418.606 63.623 C 413.532 63.623 410.361 56.36 412.898 50.55 C 414.075 47.853 416.251 46.193 418.606 46.193 L 460.388 46.193 C 465.462 46.193 468.633 53.455 466.097 59.266 C 464.919 61.961 462.743 63.623 460.388 63.623 L 446.645 63.623 L 446.645 123.405 C 446.854 130.68 441.029 135.527 436.159 132.13 C 433.726 130.431 432.245 127.04 432.35 123.405 L 432.35 63.623 Z" style=""/>
      <path class="cls-2" d="M 350.582 89.672 L 370.949 62.744 C 374.917 57.5 373.1 48.544 367.682 46.623 C 365.166 45.73 362.482 46.681 360.641 49.117 L 340.263 76.043 L 319.917 49.117 C 315.95 43.87 309.176 46.27 307.723 53.436 C 307.05 56.762 307.768 60.311 309.61 62.744 L 329.977 89.672 L 309.61 116.585 C 305.646 121.83 307.465 130.781 312.882 132.697 C 315.396 133.586 318.078 132.634 319.917 130.2 L 340.263 103.286 L 360.641 130.2 C 364.608 135.445 371.382 133.045 372.835 125.88 C 373.509 122.553 372.79 119.005 370.949 116.571 L 350.582 89.672 Z" style=""/>
      <g id="ifixit-logo-black-blue-horiz-RGB" transform="matrix(0.785955, 0, 0, 1.030507, 4.136522, -5.445747)">
        <g class="cls-3" transform="matrix(1.297841, 0, 0, 1.300483, -25.177507, -28.622059)">
          <polygon class="cls-4" points="61.653 92.36 156.851 92.36 170.789 92.36 170.789 159.273 35.488 159.273 35.488 92.576 61.653 92.36" style=""/>
          <polygon class="cls-5" points="60.277 25.274 154.821 25.274 168.665 25.274 168.665 92.856 34.29 92.856 34.29 25.494 60.277 25.274" style=""/>
        </g>
      </g>
    </g>
  </g>
</svg>