<svg viewBox="0 0 190 190" fill="none" xmlns="http://www.w3.org/2000/svg">
<path d="M94.9999 189.777C113.745 189.777 132.069 184.218 147.655 173.804C163.241 163.39 175.389 148.588 182.562 131.269C189.736 113.951 191.613 94.8948 187.956 76.5099C184.299 58.125 175.272 41.2374 162.017 27.9827C148.762 14.7279 131.875 5.70128 113.49 2.0443C95.1051 -1.61269 76.0486 0.264209 58.7304 7.43764C41.4122 14.6111 26.6101 26.7589 16.1959 42.3448C5.78171 57.9308 0.223145 76.2549 0.223145 95C0.250512 120.128 10.2447 144.219 28.0128 161.987C45.781 179.755 69.872 189.749 94.9999 189.777ZM11.5447 85.0743L52.2987 83.5061V80.525L12.4924 78.9913C16.2037 59.8317 26.4673 42.561 41.5221 30.1426C56.5769 17.7242 75.4842 10.9323 94.9999 10.9323C114.516 10.9323 133.423 17.7242 148.478 30.1426C163.533 42.561 173.796 59.8317 177.507 78.9913L137.684 80.525V83.5061L178.438 85.0743C179.246 91.6667 179.246 98.3332 178.438 104.926L137.684 106.494V109.475L177.507 111.009C173.796 130.168 163.533 147.439 148.478 159.857C133.423 172.276 114.516 179.068 94.9999 179.068C75.4842 179.068 56.5769 172.276 41.5221 159.857C26.4673 147.439 16.2037 130.168 12.4924 111.009L52.3159 109.475V106.494L11.5447 104.926C10.7365 98.3332 10.7365 91.6667 11.5447 85.0743ZM62.2589 95C62.2589 101.476 64.1791 107.806 67.7767 113.19C71.3744 118.574 76.4878 122.771 82.4705 125.249C88.4531 127.727 95.0362 128.375 101.387 127.112C107.739 125.849 113.572 122.73 118.151 118.151C122.73 113.572 125.849 107.739 127.112 101.387C128.375 95.0363 127.727 88.4532 125.249 82.4705C122.771 76.4879 118.574 71.3744 113.19 67.7768C107.806 64.1791 101.476 62.2589 94.9999 62.2589C86.3165 62.2589 77.9886 65.7084 71.8485 71.8485C65.7084 77.9887 62.2589 86.3165 62.2589 95ZM104.753 79.3704C105.143 79.1069 105.597 78.9534 106.068 78.9261C106.538 78.8988 107.006 78.9987 107.424 79.2153L108.32 79.7495C109.207 80.3168 109.955 81.0766 110.509 81.9725L110.819 82.5411C111.028 82.9689 111.121 83.4443 111.088 83.9193C111.054 84.3944 110.896 84.8522 110.629 85.2466L104.15 93.8626C103.889 94.2399 103.75 94.6878 103.75 95.1464C103.75 95.6051 103.889 96.0529 104.15 96.4302L110.629 105.046C110.882 105.437 111.016 105.891 111.016 106.356C111.016 106.821 110.882 107.275 110.629 107.666L110.302 108.148C109.679 109.013 108.929 109.78 108.079 110.423L107.304 110.974C106.918 111.229 106.465 111.365 106.003 111.365C105.54 111.365 105.088 111.229 104.702 110.974L96.0856 104.495C95.7083 104.234 95.2605 104.094 94.8018 104.094C94.3431 104.094 93.8953 104.234 93.518 104.495L84.9019 110.974C84.5124 111.228 84.0574 111.364 83.5923 111.364C83.1271 111.364 82.6721 111.228 82.2826 110.974L81.869 110.509C81.01 109.878 80.2493 109.123 79.6116 108.269L79.1291 107.562C78.8727 107.174 78.736 106.718 78.736 106.253C78.736 105.787 78.8727 105.332 79.1291 104.943L85.6084 96.3268C85.867 95.9486 86.0053 95.5012 86.0053 95.0431C86.0053 94.5849 85.867 94.1375 85.6084 93.7593L79.1291 85.1432C78.8742 84.7572 78.7383 84.3048 78.7383 83.8422C78.7383 83.3796 78.8742 82.9271 79.1291 82.5411L79.6806 81.7657C80.3172 80.9156 81.0782 80.1662 81.938 79.5427L82.4205 79.2153C82.8107 78.9631 83.2655 78.8289 83.7301 78.8289C84.1948 78.8289 84.6495 78.9631 85.0397 79.2153L93.6558 85.6946C94.0331 85.9555 94.4809 86.0952 94.9396 86.0952C95.3983 86.0952 95.8461 85.9555 96.2234 85.6946L104.753 79.3704ZM160.982 95C160.985 94.2414 161.213 93.5008 161.637 92.8716C162.06 92.2423 162.66 91.7524 163.362 91.4637C164.063 91.175 164.835 91.1003 165.578 91.2492C166.322 91.398 167.005 91.7636 167.542 92.3C168.078 92.8364 168.444 93.5195 168.593 94.2633C168.741 95.0071 168.667 95.7784 168.378 96.4798C168.089 97.1813 167.6 97.7816 166.97 98.2052C166.341 98.6287 165.6 98.8566 164.842 98.86C164.334 98.8623 163.831 98.764 163.362 98.5708C162.893 98.3776 162.466 98.0934 162.107 97.7345C161.748 97.3756 161.464 96.9492 161.271 96.4798C161.078 96.0105 160.98 95.5075 160.982 95ZM21.4014 95C21.4049 94.2414 21.6327 93.5008 22.0562 92.8716C22.4798 92.2423 23.0801 91.7524 23.7816 91.4637C24.4831 91.175 25.2543 91.1003 25.9981 91.2492C26.7419 91.398 27.425 91.7636 27.9614 92.3C28.4978 92.8364 28.8634 93.5195 29.0123 94.2633C29.1611 95.0071 29.0864 95.7784 28.7977 96.4798C28.509 97.1813 28.0192 97.7816 27.3899 98.2052C26.7606 98.6287 26.02 98.8566 25.2614 98.86C24.7467 98.8738 24.2345 98.7841 23.7551 98.5961C23.2757 98.4081 22.839 98.1257 22.4709 97.7657C22.1028 97.4056 21.8108 96.9752 21.6123 96.5001C21.4138 96.025 21.3128 95.5149 21.3153 95H21.4014ZM44.0445 59.743L39.3746 67.8421L26.6228 60.5357L28.1909 57.813L38.5302 63.7926L41.5803 58.3644L44.0445 59.743ZM49.9206 52.8502L39.4607 42.5109L41.5803 40.2362L52.0574 50.5755L49.9206 52.8502ZM59.6051 44.2341L52.1436 31.5512L61.1215 26.2782L62.5173 28.6562L56.2448 32.275L57.8302 34.9632L63.9821 31.3444L65.3779 33.7225L59.2432 37.3412L62.3278 42.5109L59.6051 44.2341ZM76.8372 35.8248L73.701 21.4532L83.8852 19.1785L84.4711 21.8668L77.3542 23.4177L78.0263 26.4505L84.9191 24.9341L85.505 27.6223L78.6122 29.1387L79.3187 32.3956L86.4356 30.8447L87.0214 33.5329L76.8372 35.8248ZM100.721 21.5738L96.4302 21.143L96.7231 18.3342L108.407 19.4887L108.131 22.2286L103.874 21.7978L102.703 33.7052L99.5665 33.3951L100.721 21.5738ZM118.384 37.8927L115.454 36.7726L120.624 22.9868L123.554 24.0897L118.384 37.8927ZM129.688 43.7688L127.241 41.7527L136.357 30.2416L139.803 32.9643L137.046 42.149L145.387 37.4274L148.833 40.1845L139.648 51.6956L137.184 49.7311L143.612 41.6837L133.927 47.1463L132.859 46.2847L136.047 35.6352L129.688 43.7688ZM145.542 59.2777L158.19 51.7473L163.515 60.5357L161.137 61.9487L157.415 55.6934L154.744 57.296L158.397 63.4134L156.019 64.8265L152.383 58.8125L149.522 60.5357L153.245 66.7393L150.884 68.1523L145.542 59.2777ZM47.6805 76.148L43.3035 75.924C47.2206 65.3709 54.2736 56.2694 63.515 49.8422C72.7563 43.415 83.7433 39.97 94.9999 39.97C106.257 39.97 117.244 43.415 126.485 49.8422C135.726 56.2694 142.779 65.3709 146.696 75.924L142.285 76.148C138.519 66.6735 131.995 58.5477 123.559 52.8227C115.122 47.0976 105.161 44.037 94.9655 44.037C84.7698 44.037 74.8089 47.0976 66.3724 52.8227C57.9359 58.5477 51.4122 66.6735 47.646 76.148H47.6805ZM47.6805 114.059C51.4638 123.501 57.9882 131.593 66.4129 137.294C74.8376 142.994 84.7764 146.04 94.9482 146.04C105.12 146.04 115.059 142.994 123.484 137.294C131.908 131.593 138.433 123.501 142.216 114.059L146.627 114.283C142.71 124.836 135.657 133.937 126.416 140.365C117.175 146.792 106.188 150.237 94.931 150.237C83.6744 150.237 72.6874 146.792 63.4461 140.365C54.2047 133.937 47.1517 124.836 43.2346 114.283L47.6805 114.059ZM45.4403 134.048L31.6546 137.494L30.1381 134.823L37.031 128.137L27.7946 130.653L26.2781 127.982L36.1349 117.867L37.7375 120.676L30.4139 127.569L40.2017 124.949L41.3218 126.914L34.0843 134.014L43.8377 131.187L45.4403 134.048ZM39.8571 147.644L42.2696 149.798L44.4236 148.626L48.8178 152.452L47.9389 154.727L50.4204 156.898L55.366 143.25L52.6433 140.872L39.8571 147.644ZM49.9551 150.022L46.7499 147.231L52.1781 144.215L49.9551 150.022ZM71.3057 152.676L65.3951 150.143L59.967 162.619L62.6207 163.773L64.5507 159.345L66.498 160.189L67.0149 165.686L70.065 167.013L69.324 161.051C70.2283 161.211 71.16 161.046 71.9546 160.586C72.7492 160.125 73.3555 159.399 73.6665 158.535C73.9284 157.996 74.0729 157.407 74.0906 156.808C74.1083 156.209 73.9987 155.613 73.7691 155.059C73.5395 154.505 73.1951 154.007 72.7586 153.596C72.322 153.185 71.8034 152.872 71.2368 152.676H71.3057ZM71.03 157.346C70.9263 157.583 70.7739 157.795 70.5828 157.969C70.3917 158.143 70.1662 158.275 69.9209 158.356C69.6755 158.437 69.4158 158.466 69.1586 158.44C68.9014 158.415 68.6525 158.335 68.428 158.207L65.5674 157.036L67.0322 153.589L69.8238 154.796C70.0776 154.872 70.3119 155.002 70.5108 155.177C70.7098 155.352 70.8686 155.568 70.9765 155.81C71.0845 156.052 71.139 156.315 71.1363 156.58C71.1336 156.845 71.0739 157.106 70.9611 157.346H71.03ZM93.4318 161.964C93.5198 161.373 93.4813 160.77 93.3188 160.194C93.1562 159.619 92.8734 159.085 92.4889 158.627C92.1044 158.169 91.6272 157.798 91.0886 157.539C90.5501 157.279 89.9626 157.137 89.365 157.122L83.0408 156.45L81.5933 169.96L84.4711 170.27L84.9881 165.479L87.0731 165.652L89.2099 170.821L92.5185 171.183L90.0371 165.652C90.9434 165.531 91.7784 165.096 92.3959 164.422C93.0134 163.747 93.374 162.877 93.4146 161.964H93.4318ZM88.2622 163.256L85.2465 162.929L85.6429 159.276L88.6585 159.603C88.9136 159.609 89.1647 159.668 89.3958 159.777C89.6269 159.885 89.8331 160.04 90.0013 160.232C90.1694 160.424 90.2959 160.648 90.3727 160.892C90.4494 161.135 90.4749 161.392 90.4474 161.645C90.4198 161.899 90.34 162.144 90.2128 162.366C90.0856 162.587 89.9138 162.779 89.7084 162.931C89.503 163.082 89.2684 163.189 89.0195 163.245C88.7705 163.301 88.5126 163.305 88.2622 163.256ZM105.494 156.501L103.03 170.821L106.27 170.167L106.666 167.737L112.387 166.6L113.662 168.702L116.902 168.047L109.096 155.743L105.494 156.501ZM106.907 165.118L107.838 158.966L111.06 164.29L106.907 165.118ZM131.032 146.162L137.77 157.949L135.358 159.328L125.346 154.864L129.74 162.55L127.241 163.98L120.504 152.193L123.088 150.711L132.911 155.037L128.689 147.644L131.032 146.162ZM143.508 138.08L151.59 145.611L149.609 147.748L141.527 140.269L138.821 143.25L136.96 141.527L144.353 133.583L146.214 135.306L143.508 138.08ZM157.518 127.31L147.989 128.465L149.453 125.501L155.847 124.881L152.4 119.47L153.865 116.506L158.759 124.777L163.756 127.241L162.481 129.843L157.518 127.31Z" fill="currentColor"/>
</svg>
