<?xml version="1.0" encoding="utf-8"?>
<!-- Generator: Adobe Illustrator 26.3.1, SVG Export Plug-In . SVG Version: 6.00 Build 0)  -->
<svg version="1.1" id="Layer_1" xmlns="http://www.w3.org/2000/svg" xmlns:xlink="http://www.w3.org/1999/xlink" x="0px" y="0px"
	 viewBox="0 0 233.7 209.9" style="enable-background:new 0 0 233.7 209.9;" xml:space="preserve">
<style type="text/css">
	.st0{fill:#FFFFFF;}
</style>
<g>
	<path class="st0" d="M102.3,103c0.9,1.2,0.9,3,0,4.1l-10.2,13.5c-0.8,1.1-0.9,3-0.1,4.1l0.8,1.1c0.8,1.1,2.4,2.7,3.5,3.5l0.9,0.6
		c1.1,0.8,3,0.8,4.1-0.1l13.5-10.3c1.1-0.8,3-0.8,4.1,0l13.5,10.2c1.1,0.9,3,0.9,4.1,0.1l1.2-0.9c1.2-0.8,2.7-2.4,3.5-3.6l0.5-0.7
		c0.8-1.1,0.7-3-0.1-4.1L131.4,107c-0.9-1.2-0.9-3,0-4.1l10.3-13.4c0.8-1.1,1-3.1,0.3-4.3l-0.5-0.9c-0.7-1.2-2.2-2.8-3.4-3.5
		l-1.4-0.8c-1.2-0.8-3.1-0.6-4.2,0.2L119,90.4c-1.2,0.8-3,0.8-4.1,0l-13.5-10.2c-1.1-0.8-3-0.9-4.1-0.1l-0.8,0.5
		c-1.2,0.8-2.8,2.4-3.6,3.5L92,85.3c-0.8,1.1-0.8,3,0,4.1L102.3,103z"/>
	<circle class="st0" cx="17.6" cy="159.7" r="2"/>
	<circle class="st0" cx="216.1" cy="159.7" r="2"/>
	<path class="st0" d="M206.4,138.2c2.6-1.5,5.2-3,5.8-5.2c1.2-4.3-5.2-10.4-4.6-14.9c0.7-4.5,8.6-8.5,8.6-13.1
		c0-4.6-7.9-8.6-8.6-13.1c-0.6-4.5,5.8-10.6,4.6-14.9c-1.3-4.4-10-6-11.9-10.1c-1.9-4.2,2.6-11.8,0.1-15.6
		c-2.5-3.8-11.3-2.9-14.3-6.3c-3-3.4-0.8-12-4.2-15c-3.4-3-11.6,0.4-15.5-2.1c-3.8-2.5-4.1-11.3-8.3-13.2c-4.1-1.9-11,3.7-15.4,2.4
		c-4.3-1.3-7.2-9.7-11.7-10.3c-4.4-0.6-9.5,6.6-14.1,6.6c-4.6,0-9.7-7.3-14.1-6.6c-4.6,0.6-7.4,9.1-11.7,10.3
		c-4.4,1.3-11.3-4.2-15.4-2.4c-4.1,1.9-4.5,10.8-8.3,13.2c-3.8,2.5-12-0.9-15.5,2.1c-3.4,3-1.3,11.6-4.2,15
		c-3,3.4-11.8,2.5-14.3,6.3c-2.5,3.8,2,11.5,0.1,15.6c-1.9,4.1-10.6,5.7-11.9,10.1c-1.3,4.3,5.2,10.4,4.5,14.9
		c-0.6,4.4-8.5,8.4-8.5,13.1c0,4.7,7.9,8.7,8.5,13.1c0.7,4.5-5.8,10.6-4.5,14.9c0.7,2.3,3.4,3.9,6.1,5.4l-0.1,0l-20.3,4.1v34.4h42.9
		c0.3,1.3,0.8,2.4,1.7,3.1c3.5,3,11.7-0.4,15.5,2.1c3.8,2.4,4.2,11.3,8.3,13.2c4.1,1.8,11-3.7,15.4-2.4c4.3,1.2,7.1,9.7,11.7,10.3
		c4.4,0.7,9.5-6.6,14.1-6.6c4.6,0,9.7,7.2,14.1,6.6c4.5-0.6,7.4-9,11.7-10.3c4.4-1.3,11.3,4.3,15.4,2.4c4.2-1.9,4.5-10.7,8.3-13.2
		c3.9-2.5,12.1,0.9,15.5-2.1c0.8-0.7,1.3-1.8,1.7-3.1h42.7v-34.4L206.4,138.2z M31.1,104.8c0-47.3,38.4-85.7,85.8-85.7
		c47.4,0,85.8,38.3,85.8,85.7c0,13.5-3.1,26.2-8.7,37.6h-2.8c5.7-11.3,9-24.1,9-37.6c0-45.9-37.4-83.2-83.3-83.2
		c-45.9,0-83.2,37.4-83.2,83.3c0,13.5,3.2,26.2,8.9,37.5h-2.8C34.3,131.1,31.1,118.3,31.1,104.8z M223.9,174.3H9.8v-29.4h214V174.3z
		 M54.5,82l-5.3-1.7l0.6-1.9l5.3,1.8c2.2,0.7,3.3,2.5,2.4,5.2c-0.9,2.7-2.8,3.5-5,2.7l-5.3-1.8l0.6-1.9l5.3,1.7
		c1.2,0.4,2.3,0,2.8-1.4C56.3,83.4,55.7,82.4,54.5,82z M76.1,45.6l1.8-1.3l0.4,6.6l2.3,3.1L79,55.1L76.7,52l-6.2-2.3l1.8-1.3
		l4.1,1.6L76.1,45.6z M89.6,48.6l-1.8,0.8l-3.9-8.5l4-1.8c1.8-0.8,3.4-0.1,4.1,1.4c0.7,1.5,0.2,3.2-1.6,4l-2.2,1L89.6,48.6z
		 M117,53.2c28.5,0,51.7,23.1,51.7,51.7c0,1.8-0.1,3.7-0.3,5.5c-0.1,0.9-0.2,1.8-0.3,2.7c-0.4,1.7-0.8,3.4-1.2,5.1
		c0,0.1,0,0.2-0.1,0.2c-0.2,0.7-0.4,1.5-0.7,2.2c-0.3,1-0.6,1.9-1,2.8c-0.7,1.8-1.5,3.6-2.4,5.3c-2.7,5.1-6.2,9.7-10.4,13.7h-0.1
		H81.6c-5-4.7-9.1-10.4-11.9-16.8c-0.4-0.8-0.7-1.6-1-2.4c-0.3-0.8-0.6-1.6-0.9-2.5c-0.3-0.8-0.5-1.5-0.7-2.3c0-0.1-0.1-0.2-0.1-0.2
		c0-0.1-0.1-0.2-0.1-0.3c-0.4-1.5-0.7-3-1-4.6c0-0.1,0-0.2,0-0.2c-0.1-0.9-0.3-1.8-0.3-2.7c-0.2-1.8-0.3-3.7-0.3-5.5
		C65.3,76.4,88.3,53.2,117,53.2z M111.6,42.4l-2.3,0.3l-2.3-3l-1.4,0.2l0.5,3.3l-2,0.3l-1.4-9.2l4.3-0.6c1.9-0.3,3.3,0.8,3.5,2.5
		c0.2,1.6-0.7,2.7-1.6,3L111.6,42.4z M103.2,43.6l-2.1,0.6l-1-1.4l-4,1.2L96,45.8l-2.1,0.6l0.7-10l2.4-0.7L103.2,43.6z M117.1,42.3
		l-2,0l-0.1-7.6l-2.7,0l0-1.8l7.5-0.1l0,1.8l-2.7,0L117.1,42.3z M124.6,38.9c-1.5-0.5-3.4-1.2-3.1-3.2c0.2-1.5,1.7-2.6,3.8-2.4
		c1.5,0.2,2.6,0.8,3.5,1.7l-1.3,1.3c-0.7-0.8-1.6-1.2-2.5-1.3c-0.9-0.1-1.4,0.2-1.5,0.8c-0.1,0.6,0.7,0.9,1.7,1.3
		c1.5,0.5,3.4,1.2,3.1,3.3c-0.2,1.7-1.6,2.8-4.1,2.5c-1.8-0.2-3-1-3.8-1.9l1.3-1.4c0.6,0.8,1.5,1.4,2.8,1.6c1.1,0.1,1.7-0.3,1.7-0.9
		C126.5,39.7,125.7,39.3,124.6,38.9z M132.4,44l6.4-7.7l2.4,0.8l0.4,10l-2.1-0.7l0-1.7l-4-1.3l-1.1,1.3L132.4,44z M149.8,51.4
		l-1.7-0.9l-1-7.6l-2.9,5.6l-1.8-0.9l4.3-8.3l1.8,0.9l1,7.4l2.8-5.4l1.8,0.9L149.8,51.4z M156.9,44.9l2.9,2.2
		c2.3,1.8,2.8,4.5,1.2,6.7c-1.7,2.3-4.4,2.5-6.8,0.8l-2.9-2.2L156.9,44.9z M167.4,55.9l1.3-1.2l4.9,5.6l-1.3,1.2l-1.8-2l-5.7,5
		l-1.3-1.5l5.7-5L167.4,55.9z M171.5,142.4c6.5-9.4,10.6-20.7,11.4-32.8v0l2.5,0.2c-0.8,12-4.7,23.1-10.9,32.6H171.5z M187.7,99.2
		l-1.6-0.9c0.6-0.8,0.8-1.9,0.7-2.8c-0.1-0.9-0.6-1.3-1.1-1.2c-0.6,0.1-0.7,0.9-0.8,2c-0.1,1.6-0.3,3.6-2.4,3.8
		c-1.7,0.2-3.1-0.8-3.5-3.3c-0.2-1.8,0.2-3.1,1-4.1l1.6,0.9c-0.6,0.7-1,1.8-0.9,3.1c0.1,1.1,0.7,1.5,1.3,1.5c0.7-0.1,0.8-0.9,0.9-2
		c0.1-1.6,0.3-3.6,2.4-3.8c1.5-0.2,3,1,3.3,3.1C188.7,96.9,188.4,98.1,187.7,99.2z M179.1,87.7l1,3.8l-1.7,0.4l-1.5-5.7l9-2.4
		l0.5,1.9L179.1,87.7z M180.8,83c-2.6,1.1-5.3,0-6.4-2.6c-1.1-2.6-0.1-5.3,2.5-6.4c2.6-1.1,5.3,0,6.4,2.6
		C184.5,79.2,183.4,81.9,180.8,83z M176.2,72.6c-2.4,1.5-5.2,0.9-6.7-1.5c-1.5-2.4-1-5.2,1.4-6.7c2.4-1.5,5.2-0.9,6.7,1.5
		C179.2,68.2,178.6,71,176.2,72.6z M70.6,52.1L68.6,54l5.3,5.4l-1.4,1.4l-5.3-5.4l-2,1.9L64,56l5.3-5.2L70.6,52.1z M69.6,63.9
		l-1.3,1.5l-7.1-6l1.3-1.5L69.6,63.9z M63.5,68.9l2.3-3.2l1.4,1l-3.4,4.9l-7.7-5.3l1.1-1.6L63.5,68.9z M63.2,72.3l-1,1.9L60.5,74
		l-1.9,3.7l1.2,1.3l-1,1.9l-6.7-7.5l1.1-2.2L63.2,72.3z M51.1,89.8c1.3,0.2,2.4,0.8,3.1,1.7l0.9-0.6l0.9,1.5l-1,0.6
		c0.2,0.7,0.3,1.5,0.1,2.3c-0.4,2.8-2.7,4.5-5.5,4.1c-2.8-0.4-4.5-2.8-4-5.6C46,91.1,48.3,89.4,51.1,89.8z M48.5,109.8l2.5-0.2
		c0.8,12.1,4.9,23.3,11.4,32.8h-3C53.2,132.9,49.3,121.8,48.5,109.8z M117,190.6c-17.2,0-33.2-5.1-46.6-13.8h4.8
		c12.3,7.2,26.6,11.3,41.8,11.3c15.3,0,29.5-4.1,41.8-11.3h4.8C150.2,185.6,134.2,190.6,117,190.6z"/>
	<path class="st0" d="M177.8,75.9c-1.6,0.7-2.4,2.2-1.7,3.8c0.7,1.6,2.3,2.1,3.9,1.4c1.6-0.7,2.4-2.2,1.7-3.8
		C181.1,75.7,179.4,75.2,177.8,75.9z"/>
	<path class="st0" d="M172,66.1c-1.5,0.9-2,2.6-1,4c0.9,1.4,2.7,1.7,4.1,0.7c1.5-1,2-2.6,1-4.1C175.2,65.3,173.5,65.1,172,66.1z"/>
	<path class="st0" d="M49.9,97.4c1.7,0.3,3.2-0.6,3.5-2.3c0.1-0.3,0.1-0.7,0-1L52,95l-0.9-1.5l1.4-0.9c-0.4-0.4-1-0.6-1.7-0.7
		c-1.7-0.3-3.2,0.6-3.5,2.3C47.1,95.9,48.2,97.2,49.9,97.4z"/>
	<polygon class="st0" points="96.1,42.3 99.1,41.4 96.3,37.8 	"/>
	<path class="st0" d="M159.4,52.6c1-1.3,1-2.9-0.6-4.1l-1.4-1l-3.5,4.7l1.4,1C156.8,54.3,158.4,53.9,159.4,52.6z"/>
	<polygon class="st0" points="139.4,38.4 136.6,41.9 139.5,42.9 	"/>
	<path class="st0" d="M107,35.4l-2.1,0.3l0.4,2.5l2.1-0.3c0.8-0.1,1.3-0.7,1.2-1.5C108.4,35.7,107.8,35.3,107,35.4z"/>
	<polygon class="st0" points="58.8,73.7 54.2,73.1 57.4,76.5 	"/>
	<path class="st0" d="M88.3,40.8l-1.9,0.9l1.1,2.3l1.9-0.9c0.7-0.3,1-1,0.7-1.7C89.8,40.7,89,40.4,88.3,40.8z"/>
	<g>
		<g>
			<path class="st0" d="M37.2,164l0.8,1l-1.7,1.4l-0.9-1.1c-0.8,0.4-1.7,0.6-2.7,0.6c-3.6,0-6.1-2.5-6.1-6c0-3.6,2.5-6,6.1-6
				s6.1,2.5,6.1,6C38.7,161.5,38.2,162.9,37.2,164z M33.8,163.4l-1.3-1.5l1.7-1.4l1.3,1.5c0.4-0.6,0.6-1.4,0.6-2.2
				c0-2.2-1.4-3.9-3.6-3.9s-3.6,1.6-3.6,3.9c0,2.1,1.4,3.9,3.6,3.9C33,163.7,33.5,163.7,33.8,163.4z"/>
			<path class="st0" d="M40.5,154h2.5v6.9c0,1.6,0.9,2.7,2.7,2.7c1.8,0,2.6-1.1,2.6-2.7V154H51v7c0,2.9-1.6,4.9-5.2,4.9
				c-3.6,0-5.3-2-5.3-4.9V154z"/>
			<path class="st0" d="M61,165.7l-0.7-2h-5.2l-0.7,2h-2.7l4.5-11.7h3l4.5,11.7H61z M57.7,156.1l-1.9,5.4h3.9L57.7,156.1z"/>
			<path class="st0" d="M64.9,165.7V154h2.4v9.4h5v2.2H64.9z"/>
			<path class="st0" d="M74.1,165.7V154h2.4v11.7H74.1z"/>
			<path class="st0" d="M81.7,165.7v-9.4h-3.4V154h9.3v2.2h-3.3v9.4H81.7z"/>
			<path class="st0" d="M92.5,165.7v-4.8L88,154h2.8l2.9,4.7l2.8-4.7h2.8l-4.5,6.9v4.8H92.5z"/>
			<path class="st0" d="M110.8,153.8c2.4,0,4,1.2,4.9,2.5l-2,1.1c-0.5-0.8-1.5-1.4-2.7-1.4c-2.1,0-3.7,1.6-3.7,3.9
				c0,2.2,1.5,3.9,3.7,3.9c1.1,0,2-0.4,2.5-0.9v-1.4h-3.1v-2.1h5.6v4.5c-1.2,1.3-2.8,2.2-5,2.2c-3.4,0-6.2-2.3-6.2-6.1
				C104.6,156.1,107.4,153.8,110.8,153.8z"/>
			<path class="st0" d="M117.8,154h2.5v6.9c0,1.6,0.9,2.7,2.7,2.7s2.6-1.1,2.6-2.7V154h2.5v7c0,2.9-1.6,4.9-5.2,4.9
				c-3.6,0-5.3-2-5.3-4.9C117.9,161,117.9,154,117.8,154z"/>
			<path class="st0" d="M138.3,165.7l-0.7-2h-5.2l-0.7,2H129l4.5-11.7h3.1l4.5,11.7H138.3z M135,156.1l-1.9,5.4h3.9L135,156.1z"/>
			<path class="st0" d="M148.7,165.7l-2.3-4.2h-1.8v4.2h-2.4V154h5.5c2.4,0,4,1.6,4,3.8c0,2-1.3,3.1-2.5,3.4l2.6,4.5L148.7,165.7
				L148.7,165.7z M147.2,156.1h-2.6v3.2h2.6c1,0,1.7-0.6,1.7-1.6C149,156.8,148.2,156.1,147.2,156.1z"/>
			<path class="st0" d="M161.6,165.7l-0.7-2h-5.2l-0.7,2h-2.7l4.5-11.7h3.1l4.5,11.7H161.6z M158.3,156.1l-1.9,5.4h3.9L158.3,156.1z
				"/>
			<path class="st0" d="M173.6,165.7l-5.6-7.8v7.8h-2.4V154h2.5l5.4,7.5V154h2.4v11.7H173.6z"/>
			<path class="st0" d="M181,165.7v-9.4h-3.4V154h9.3v2.2h-3.3v9.4H181z"/>
			<path class="st0" d="M188.6,165.7V154h8.2v2.1H191v2.5h5.7v2.1H191v2.7h5.8v2.1L188.6,165.7L188.6,165.7z"/>
			<path class="st0" d="M199,165.7V154h8.2v2.1h-5.8v2.5h5.7v2.1h-5.7v2.7h5.8v2.1L199,165.7L199,165.7z"/>
		</g>
	</g>
</g>
</svg>
